<svg width="1920" height="1049" viewBox="0 0 1920 1049" fill="none" xmlns="http://www.w3.org/2000/svg">
<mask id="mask0_2602_4429" style="mask-type:alpha" maskUnits="userSpaceOnUse" x="-425" y="0" width="2345" height="797">
<g opacity="0.2">
<g opacity="0.3">
<path opacity="0.3" d="M39.1812 309.529H-16.1455V796.83H39.1812V309.529Z" fill="url(#paint0_linear_2602_4429)"/>
<path opacity="0.3" d="M120.765 224.781H65.438V796.499H120.765V224.781Z" fill="url(#paint1_linear_2602_4429)"/>
<path opacity="0.3" d="M202.66 58.2637H147.333V796.829H202.66V58.2637Z" fill="url(#paint2_linear_2602_4429)"/>
<path opacity="0.3" d="M284.244 130.764H228.917V796.499H284.244V130.764Z" fill="url(#paint3_linear_2602_4429)"/>
<path opacity="0.3" d="M366.14 259.541H310.813V796.499H366.14V259.541Z" fill="url(#paint4_linear_2602_4429)"/>
<path opacity="0.3" d="M447.723 418.111H392.396V796.498H447.723V418.111Z" fill="url(#paint5_linear_2602_4429)"/>
<path opacity="0.3" d="M529.619 545.234H474.292V796.499H529.619V545.234Z" fill="url(#paint6_linear_2602_4429)"/>
<path opacity="0.3" d="M611.515 392.291H556.188V796.499H611.515V392.291Z" fill="url(#paint7_linear_2602_4429)"/>
<path opacity="0.3" d="M693.098 0H637.771V796.83H693.098V0Z" fill="url(#paint8_linear_2602_4429)"/>
<path opacity="0.3" d="M774.994 92.0312H719.667V796.499H774.994V92.0312Z" fill="url(#paint9_linear_2602_4429)"/>
<path opacity="0.3" d="M856.578 346.275H801.251V796.499H856.578V346.275Z" fill="url(#paint10_linear_2602_4429)"/>
<path opacity="0.3" d="M938.473 685.268H883.147V796.83H938.473V685.268Z" fill="url(#paint11_linear_2602_4429)"/>
<path opacity="0.3" d="M1020.06 571.387H964.73V796.499H1020.06V571.387Z" fill="url(#paint12_linear_2602_4429)"/>
<path opacity="0.3" d="M1101.95 365.807H1046.63V796.499H1101.95V365.807Z" fill="url(#paint13_linear_2602_4429)"/>
<path opacity="0.3" d="M1183.54 112.225H1128.21V796.499H1183.54V112.225Z" fill="url(#paint14_linear_2602_4429)"/>
<path opacity="0.3" d="M1265.43 326.082H1210.11V796.831H1265.43V326.082Z" fill="url(#paint15_linear_2602_4429)"/>
<path opacity="0.3" d="M1347.02 407.188H1291.69V796.83H1347.02V407.188Z" fill="url(#paint16_linear_2602_4429)"/>
<path opacity="0.3" d="M1428.91 276.424H1373.58V796.83H1428.91V276.424Z" fill="url(#paint17_linear_2602_4429)"/>
<path opacity="0.3" d="M1510.49 502.859H1455.17V796.498H1510.49V502.859Z" fill="url(#paint18_linear_2602_4429)"/>
<path opacity="0.3" d="M1592.39 623.691H1537.06V796.498H1592.39V623.691Z" fill="url(#paint19_linear_2602_4429)"/>
<path opacity="0.3" d="M1673.97 385.008H1618.65V796.83H1673.97V385.008Z" fill="url(#paint20_linear_2602_4429)"/>
<path opacity="0.3" d="M1755.87 138.047H1700.54V796.499H1755.87V138.047Z" fill="url(#paint21_linear_2602_4429)"/>
<path opacity="0.3" d="M1837.45 528.02H1782.13V796.499H1837.45V528.02Z" fill="url(#paint22_linear_2602_4429)"/>
<path opacity="0.3" d="M1919.35 407.188H1864.02V796.83H1919.35V407.188Z" fill="url(#paint23_linear_2602_4429)"/>
</g>
<g opacity="0.8">
<path opacity="0.8" d="M1.98412 520.076H-31.4619V796.5H1.98412V520.076Z" fill="url(#paint24_linear_2602_4429)"/>
<path opacity="0.8" d="M51.0588 694.537H17.6128V796.5H51.0588V694.537Z" fill="url(#paint25_linear_2602_4429)"/>
<path opacity="0.8" d="M100.135 438.639H66.6885V796.832H100.135V438.639Z" fill="url(#paint26_linear_2602_4429)"/>
<path opacity="0.8" d="M149.522 589.264H116.076V796.499H149.522V589.264Z" fill="url(#paint27_linear_2602_4429)"/>
<path opacity="0.8" d="M198.597 484.984H165.15V796.831H198.597V484.984Z" fill="url(#paint28_linear_2602_4429)"/>
<path opacity="0.8" d="M247.672 607.473H214.226V796.832H247.672V607.473Z" fill="url(#paint29_linear_2602_4429)"/>
<path opacity="0.8" d="M297.059 504.848H263.613V796.831H297.059V504.848Z" fill="url(#paint30_linear_2602_4429)"/>
<path opacity="0.8" d="M346.135 454.197H312.688V796.831H346.135V454.197Z" fill="url(#paint31_linear_2602_4429)"/>
<path opacity="0.8" d="M395.21 354.221H361.764V796.5H395.21V354.221Z" fill="url(#paint32_linear_2602_4429)"/>
<path opacity="0.8" d="M444.285 397.588H410.839V796.499H444.285V397.588Z" fill="url(#paint33_linear_2602_4429)"/>
<path opacity="0.8" d="M493.672 475.053H460.226V796.83H493.672V475.053Z" fill="url(#paint34_linear_2602_4429)"/>
<path opacity="0.8" d="M542.747 569.732H509.301V796.5H542.747V569.732Z" fill="url(#paint35_linear_2602_4429)"/>
<path opacity="0.8" d="M591.822 645.873H558.376V796.499H591.822V645.873Z" fill="url(#paint36_linear_2602_4429)"/>
<path opacity="0.8" d="M641.21 554.504H607.764V796.83H641.21V554.504Z" fill="url(#paint37_linear_2602_4429)"/>
<path opacity="0.8" d="M690.285 319.461H656.839V796.831H690.285V319.461Z" fill="url(#paint38_linear_2602_4429)"/>
<path opacity="0.8" d="M739.36 374.414H705.914V796.499H739.36V374.414Z" fill="url(#paint39_linear_2602_4429)"/>
<path opacity="0.8" d="M788.748 526.697H755.302V796.501H788.748V526.697Z" fill="url(#paint40_linear_2602_4429)"/>
<path opacity="0.8" d="M837.823 729.959H804.377V796.83H837.823V729.959Z" fill="url(#paint41_linear_2602_4429)"/>
<path opacity="0.8" d="M886.898 661.764H853.452V796.5H886.898V661.764Z" fill="url(#paint42_linear_2602_4429)"/>
<path opacity="0.8" d="M935.973 538.615H902.527V796.832H935.973V538.615Z" fill="url(#paint43_linear_2602_4429)"/>
<path opacity="0.8" d="M985.36 386.664H951.914V796.5H985.36V386.664Z" fill="url(#paint44_linear_2602_4429)"/>
<path opacity="0.8" d="M1034.44 514.779H1000.99V796.831H1034.44V514.779Z" fill="url(#paint45_linear_2602_4429)"/>
<path opacity="0.8" d="M1083.51 563.111H1050.06V796.499H1083.51V563.111Z" fill="url(#paint46_linear_2602_4429)"/>
<path opacity="0.8" d="M1132.9 484.984H1099.45V796.831H1132.9V484.984Z" fill="url(#paint47_linear_2602_4429)"/>
<path opacity="0.8" d="M1181.97 620.713H1148.53V796.83H1181.97V620.713Z" fill="url(#paint48_linear_2602_4429)"/>
<path opacity="0.8" d="M1231.05 692.883H1197.6V796.501H1231.05V692.883Z" fill="url(#paint49_linear_2602_4429)"/>
<path opacity="0.8" d="M1280.44 549.869H1246.99V796.499H1280.44V549.869Z" fill="url(#paint50_linear_2602_4429)"/>
<path opacity="0.8" d="M1329.51 402.223H1296.06V796.831H1329.51V402.223Z" fill="url(#paint51_linear_2602_4429)"/>
<path opacity="0.8" d="M1378.59 635.941H1345.14V796.83H1378.59V635.941Z" fill="url(#paint52_linear_2602_4429)"/>
<path opacity="0.8" d="M1427.97 563.111H1394.53V796.499H1427.97V563.111Z" fill="url(#paint53_linear_2602_4429)"/>
<path opacity="0.8" d="M1477.05 508.158H1443.6V796.831H1477.05V508.158Z" fill="url(#paint54_linear_2602_4429)"/>
<path opacity="0.8" d="M1526.12 354.221H1492.68V796.5H1526.12V354.221Z" fill="url(#paint55_linear_2602_4429)"/>
<path opacity="0.8" d="M1575.2 569.732H1541.75V796.5H1575.2V569.732Z" fill="url(#paint56_linear_2602_4429)"/>
<path opacity="0.8" d="M1624.59 494.916H1591.14V796.831H1624.59V494.916Z" fill="url(#paint57_linear_2602_4429)"/>
<path opacity="0.8" d="M1673.66 673.35H1640.22V796.499H1673.66V673.35Z" fill="url(#paint58_linear_2602_4429)"/>
<path opacity="0.8" d="M1722.74 608.797H1689.29V796.501H1722.74V608.797Z" fill="url(#paint59_linear_2602_4429)"/>
<path opacity="0.8" d="M1772.12 522.393H1738.68V796.5H1772.12V522.393Z" fill="url(#paint60_linear_2602_4429)"/>
<path opacity="0.8" d="M1821.2 354.221H1787.75V796.5H1821.2V354.221Z" fill="url(#paint61_linear_2602_4429)"/>
<path opacity="0.8" d="M1870.27 554.504H1836.83V796.83H1870.27V554.504Z" fill="url(#paint62_linear_2602_4429)"/>
<path opacity="0.8" d="M1919.66 489.289H1886.22V796.501H1919.66V489.289Z" fill="url(#paint63_linear_2602_4429)"/>
</g>
</g>
</mask>
<g mask="url(#mask0_2602_4429)">
<rect x="-587.91" y="63.7891" width="2528.16" height="1036.87" fill="url(#paint64_linear_2602_4429)"/>
</g>
<g opacity="0.26" filter="url(#filter0_f_2602_4429)">
<path d="M1935.3 225.145C2055.54 179.015 2272.38 214.711 2369 271.276L2369 849L1556 849L1685.54 728.183C1716.31 691.572 1777.86 590.781 1777.86 480.508C1777.86 342.667 1815.07 271.275 1935.3 225.145Z" fill="url(#paint65_linear_2602_4429)"/>
</g>
<defs>
<filter id="filter0_f_2602_4429" x="1356" y="4" width="1213" height="1045" filterUnits="userSpaceOnUse" color-interpolation-filters="sRGB">
<feFlood flood-opacity="0" result="BackgroundImageFix"/>
<feBlend mode="normal" in="SourceGraphic" in2="BackgroundImageFix" result="shape"/>
<feGaussianBlur stdDeviation="100" result="effect1_foregroundBlur_2602_4429"/>
</filter>
<linearGradient id="paint0_linear_2602_4429" x1="11.53" y1="3.63327" x2="11.53" y2="826.939" gradientUnits="userSpaceOnUse">
<stop stop-color="white"/>
<stop offset="1" stop-color="white" stop-opacity="0.2"/>
</linearGradient>
<linearGradient id="paint1_linear_2602_4429" x1="93.2773" y1="3.63059" x2="93.2773" y2="826.939" gradientUnits="userSpaceOnUse">
<stop stop-color="white"/>
<stop offset="1" stop-color="white" stop-opacity="0.2"/>
</linearGradient>
<linearGradient id="paint2_linear_2602_4429" x1="175.024" y1="3.63066" x2="175.024" y2="826.937" gradientUnits="userSpaceOnUse">
<stop stop-color="white"/>
<stop offset="1" stop-color="white" stop-opacity="0.2"/>
</linearGradient>
<linearGradient id="paint3_linear_2602_4429" x1="256.771" y1="3.63203" x2="256.771" y2="826.941" gradientUnits="userSpaceOnUse">
<stop stop-color="white"/>
<stop offset="1" stop-color="white" stop-opacity="0.2"/>
</linearGradient>
<linearGradient id="paint4_linear_2602_4429" x1="338.518" y1="3.63869" x2="338.518" y2="826.939" gradientUnits="userSpaceOnUse">
<stop stop-color="white"/>
<stop offset="1" stop-color="white" stop-opacity="0.2"/>
</linearGradient>
<linearGradient id="paint5_linear_2602_4429" x1="420.265" y1="3.63379" x2="420.265" y2="826.943" gradientUnits="userSpaceOnUse">
<stop stop-color="white"/>
<stop offset="1" stop-color="white" stop-opacity="0.2"/>
</linearGradient>
<linearGradient id="paint6_linear_2602_4429" x1="502.009" y1="3.63356" x2="502.009" y2="826.945" gradientUnits="userSpaceOnUse">
<stop stop-color="white"/>
<stop offset="1" stop-color="white" stop-opacity="0.2"/>
</linearGradient>
<linearGradient id="paint7_linear_2602_4429" x1="583.758" y1="3.63963" x2="583.758" y2="826.945" gradientUnits="userSpaceOnUse">
<stop stop-color="white"/>
<stop offset="1" stop-color="white" stop-opacity="0.2"/>
</linearGradient>
<linearGradient id="paint8_linear_2602_4429" x1="665.506" y1="3.63788" x2="665.506" y2="826.944" gradientUnits="userSpaceOnUse">
<stop stop-color="white"/>
<stop offset="1" stop-color="white" stop-opacity="0.2"/>
</linearGradient>
<linearGradient id="paint9_linear_2602_4429" x1="747.256" y1="3.63608" x2="747.256" y2="826.944" gradientUnits="userSpaceOnUse">
<stop stop-color="white"/>
<stop offset="1" stop-color="white" stop-opacity="0.2"/>
</linearGradient>
<linearGradient id="paint10_linear_2602_4429" x1="829" y1="3.63585" x2="829" y2="826.944" gradientUnits="userSpaceOnUse">
<stop stop-color="white"/>
<stop offset="1" stop-color="white" stop-opacity="0.2"/>
</linearGradient>
<linearGradient id="paint11_linear_2602_4429" x1="910.747" y1="3.6514" x2="910.747" y2="826.944" gradientUnits="userSpaceOnUse">
<stop stop-color="white"/>
<stop offset="1" stop-color="white" stop-opacity="0.2"/>
</linearGradient>
<linearGradient id="paint12_linear_2602_4429" x1="992.49" y1="3.6445" x2="992.49" y2="826.944" gradientUnits="userSpaceOnUse">
<stop stop-color="white"/>
<stop offset="1" stop-color="white" stop-opacity="0.2"/>
</linearGradient>
<linearGradient id="paint13_linear_2602_4429" x1="1074.24" y1="3.63921" x2="1074.24" y2="826.943" gradientUnits="userSpaceOnUse">
<stop stop-color="white"/>
<stop offset="1" stop-color="white" stop-opacity="0.2"/>
</linearGradient>
<linearGradient id="paint14_linear_2602_4429" x1="1155.99" y1="3.63493" x2="1155.99" y2="826.947" gradientUnits="userSpaceOnUse">
<stop stop-color="white"/>
<stop offset="1" stop-color="white" stop-opacity="0.2"/>
</linearGradient>
<linearGradient id="paint15_linear_2602_4429" x1="1237.73" y1="3.63834" x2="1237.73" y2="826.944" gradientUnits="userSpaceOnUse">
<stop stop-color="white"/>
<stop offset="1" stop-color="white" stop-opacity="0.2"/>
</linearGradient>
<linearGradient id="paint16_linear_2602_4429" x1="1319.48" y1="3.64023" x2="1319.48" y2="826.944" gradientUnits="userSpaceOnUse">
<stop stop-color="white"/>
<stop offset="1" stop-color="white" stop-opacity="0.2"/>
</linearGradient>
<linearGradient id="paint17_linear_2602_4429" x1="1401.23" y1="3.63452" x2="1401.23" y2="826.945" gradientUnits="userSpaceOnUse">
<stop stop-color="white"/>
<stop offset="1" stop-color="white" stop-opacity="0.2"/>
</linearGradient>
<linearGradient id="paint18_linear_2602_4429" x1="1482.98" y1="3.64079" x2="1482.98" y2="826.943" gradientUnits="userSpaceOnUse">
<stop stop-color="white"/>
<stop offset="1" stop-color="white" stop-opacity="0.2"/>
</linearGradient>
<linearGradient id="paint19_linear_2602_4429" x1="1564.73" y1="3.64581" x2="1564.73" y2="826.943" gradientUnits="userSpaceOnUse">
<stop stop-color="white"/>
<stop offset="1" stop-color="white" stop-opacity="0.2"/>
</linearGradient>
<linearGradient id="paint20_linear_2602_4429" x1="1646.47" y1="3.63668" x2="1646.47" y2="826.974" gradientUnits="userSpaceOnUse">
<stop stop-color="white"/>
<stop offset="1" stop-color="white" stop-opacity="0.2"/>
</linearGradient>
<linearGradient id="paint21_linear_2602_4429" x1="1728.22" y1="3.63518" x2="1728.22" y2="826.946" gradientUnits="userSpaceOnUse">
<stop stop-color="white"/>
<stop offset="1" stop-color="white" stop-opacity="0.2"/>
</linearGradient>
<linearGradient id="paint22_linear_2602_4429" x1="1809.96" y1="3.63889" x2="1809.96" y2="826.943" gradientUnits="userSpaceOnUse">
<stop stop-color="white"/>
<stop offset="1" stop-color="white" stop-opacity="0.2"/>
</linearGradient>
<linearGradient id="paint23_linear_2602_4429" x1="1891.71" y1="3.64023" x2="1891.71" y2="826.944" gradientUnits="userSpaceOnUse">
<stop stop-color="white"/>
<stop offset="1" stop-color="white" stop-opacity="0.2"/>
</linearGradient>
<linearGradient id="paint24_linear_2602_4429" x1="-14.8883" y1="321.586" x2="-14.8883" y2="814.783" gradientUnits="userSpaceOnUse">
<stop stop-color="white"/>
<stop offset="1" stop-color="white" stop-opacity="0.2"/>
</linearGradient>
<linearGradient id="paint25_linear_2602_4429" x1="34.2817" y1="321.585" x2="34.2817" y2="814.781" gradientUnits="userSpaceOnUse">
<stop stop-color="white"/>
<stop offset="1" stop-color="white" stop-opacity="0.2"/>
</linearGradient>
<linearGradient id="paint26_linear_2602_4429" x1="83.4528" y1="321.586" x2="83.4528" y2="814.782" gradientUnits="userSpaceOnUse">
<stop stop-color="white"/>
<stop offset="1" stop-color="white" stop-opacity="0.2"/>
</linearGradient>
<linearGradient id="paint27_linear_2602_4429" x1="132.623" y1="321.584" x2="132.623" y2="814.779" gradientUnits="userSpaceOnUse">
<stop stop-color="white"/>
<stop offset="1" stop-color="white" stop-opacity="0.2"/>
</linearGradient>
<linearGradient id="paint28_linear_2602_4429" x1="181.792" y1="321.585" x2="181.792" y2="814.782" gradientUnits="userSpaceOnUse">
<stop stop-color="white"/>
<stop offset="1" stop-color="white" stop-opacity="0.2"/>
</linearGradient>
<linearGradient id="paint29_linear_2602_4429" x1="230.965" y1="321.585" x2="230.965" y2="814.782" gradientUnits="userSpaceOnUse">
<stop stop-color="white"/>
<stop offset="1" stop-color="white" stop-opacity="0.2"/>
</linearGradient>
<linearGradient id="paint30_linear_2602_4429" x1="280.135" y1="321.586" x2="280.135" y2="814.782" gradientUnits="userSpaceOnUse">
<stop stop-color="white"/>
<stop offset="1" stop-color="white" stop-opacity="0.2"/>
</linearGradient>
<linearGradient id="paint31_linear_2602_4429" x1="329.305" y1="321.585" x2="329.305" y2="814.782" gradientUnits="userSpaceOnUse">
<stop stop-color="white"/>
<stop offset="1" stop-color="white" stop-opacity="0.2"/>
</linearGradient>
<linearGradient id="paint32_linear_2602_4429" x1="378.476" y1="321.585" x2="378.476" y2="814.781" gradientUnits="userSpaceOnUse">
<stop stop-color="white"/>
<stop offset="1" stop-color="white" stop-opacity="0.2"/>
</linearGradient>
<linearGradient id="paint33_linear_2602_4429" x1="427.645" y1="321.585" x2="427.645" y2="814.783" gradientUnits="userSpaceOnUse">
<stop stop-color="white"/>
<stop offset="1" stop-color="white" stop-opacity="0.2"/>
</linearGradient>
<linearGradient id="paint34_linear_2602_4429" x1="476.816" y1="321.59" x2="476.816" y2="814.782" gradientUnits="userSpaceOnUse">
<stop stop-color="white"/>
<stop offset="1" stop-color="white" stop-opacity="0.2"/>
</linearGradient>
<linearGradient id="paint35_linear_2602_4429" x1="525.986" y1="321.588" x2="525.986" y2="814.785" gradientUnits="userSpaceOnUse">
<stop stop-color="white"/>
<stop offset="1" stop-color="white" stop-opacity="0.2"/>
</linearGradient>
<linearGradient id="paint36_linear_2602_4429" x1="575.157" y1="321.588" x2="575.157" y2="814.785" gradientUnits="userSpaceOnUse">
<stop stop-color="white"/>
<stop offset="1" stop-color="white" stop-opacity="0.2"/>
</linearGradient>
<linearGradient id="paint37_linear_2602_4429" x1="624.327" y1="321.588" x2="624.327" y2="814.785" gradientUnits="userSpaceOnUse">
<stop stop-color="white"/>
<stop offset="1" stop-color="white" stop-opacity="0.2"/>
</linearGradient>
<linearGradient id="paint38_linear_2602_4429" x1="673.497" y1="321.588" x2="673.497" y2="814.785" gradientUnits="userSpaceOnUse">
<stop stop-color="white"/>
<stop offset="1" stop-color="white" stop-opacity="0.2"/>
</linearGradient>
<linearGradient id="paint39_linear_2602_4429" x1="722.668" y1="321.588" x2="722.668" y2="814.784" gradientUnits="userSpaceOnUse">
<stop stop-color="white"/>
<stop offset="1" stop-color="white" stop-opacity="0.2"/>
</linearGradient>
<linearGradient id="paint40_linear_2602_4429" x1="771.838" y1="321.589" x2="771.838" y2="814.786" gradientUnits="userSpaceOnUse">
<stop stop-color="white"/>
<stop offset="1" stop-color="white" stop-opacity="0.2"/>
</linearGradient>
<linearGradient id="paint41_linear_2602_4429" x1="821.008" y1="321.589" x2="821.008" y2="814.785" gradientUnits="userSpaceOnUse">
<stop stop-color="white"/>
<stop offset="1" stop-color="white" stop-opacity="0.2"/>
</linearGradient>
<linearGradient id="paint42_linear_2602_4429" x1="870.178" y1="321.589" x2="870.178" y2="814.785" gradientUnits="userSpaceOnUse">
<stop stop-color="white"/>
<stop offset="1" stop-color="white" stop-opacity="0.2"/>
</linearGradient>
<linearGradient id="paint43_linear_2602_4429" x1="919.349" y1="321.589" x2="919.349" y2="814.785" gradientUnits="userSpaceOnUse">
<stop stop-color="white"/>
<stop offset="1" stop-color="white" stop-opacity="0.2"/>
</linearGradient>
<linearGradient id="paint44_linear_2602_4429" x1="968.519" y1="321.589" x2="968.519" y2="814.788" gradientUnits="userSpaceOnUse">
<stop stop-color="white"/>
<stop offset="1" stop-color="white" stop-opacity="0.2"/>
</linearGradient>
<linearGradient id="paint45_linear_2602_4429" x1="1017.69" y1="321.589" x2="1017.69" y2="814.785" gradientUnits="userSpaceOnUse">
<stop stop-color="white"/>
<stop offset="1" stop-color="white" stop-opacity="0.2"/>
</linearGradient>
<linearGradient id="paint46_linear_2602_4429" x1="1066.86" y1="321.589" x2="1066.86" y2="814.785" gradientUnits="userSpaceOnUse">
<stop stop-color="white"/>
<stop offset="1" stop-color="white" stop-opacity="0.2"/>
</linearGradient>
<linearGradient id="paint47_linear_2602_4429" x1="1116.03" y1="321.588" x2="1116.03" y2="814.785" gradientUnits="userSpaceOnUse">
<stop stop-color="white"/>
<stop offset="1" stop-color="white" stop-opacity="0.2"/>
</linearGradient>
<linearGradient id="paint48_linear_2602_4429" x1="1165.2" y1="321.588" x2="1165.2" y2="814.784" gradientUnits="userSpaceOnUse">
<stop stop-color="white"/>
<stop offset="1" stop-color="white" stop-opacity="0.2"/>
</linearGradient>
<linearGradient id="paint49_linear_2602_4429" x1="1214.37" y1="321.589" x2="1214.37" y2="814.786" gradientUnits="userSpaceOnUse">
<stop stop-color="white"/>
<stop offset="1" stop-color="white" stop-opacity="0.2"/>
</linearGradient>
<linearGradient id="paint50_linear_2602_4429" x1="1263.54" y1="321.588" x2="1263.54" y2="814.802" gradientUnits="userSpaceOnUse">
<stop stop-color="white"/>
<stop offset="1" stop-color="white" stop-opacity="0.2"/>
</linearGradient>
<linearGradient id="paint51_linear_2602_4429" x1="1312.71" y1="321.588" x2="1312.71" y2="814.786" gradientUnits="userSpaceOnUse">
<stop stop-color="white"/>
<stop offset="1" stop-color="white" stop-opacity="0.2"/>
</linearGradient>
<linearGradient id="paint52_linear_2602_4429" x1="1361.88" y1="321.588" x2="1361.88" y2="814.784" gradientUnits="userSpaceOnUse">
<stop stop-color="white"/>
<stop offset="1" stop-color="white" stop-opacity="0.2"/>
</linearGradient>
<linearGradient id="paint53_linear_2602_4429" x1="1411.05" y1="321.589" x2="1411.05" y2="814.785" gradientUnits="userSpaceOnUse">
<stop stop-color="white"/>
<stop offset="1" stop-color="white" stop-opacity="0.2"/>
</linearGradient>
<linearGradient id="paint54_linear_2602_4429" x1="1460.22" y1="321.589" x2="1460.22" y2="814.786" gradientUnits="userSpaceOnUse">
<stop stop-color="white"/>
<stop offset="1" stop-color="white" stop-opacity="0.2"/>
</linearGradient>
<linearGradient id="paint55_linear_2602_4429" x1="1509.39" y1="321.588" x2="1509.39" y2="814.784" gradientUnits="userSpaceOnUse">
<stop stop-color="white"/>
<stop offset="1" stop-color="white" stop-opacity="0.2"/>
</linearGradient>
<linearGradient id="paint56_linear_2602_4429" x1="1558.56" y1="321.588" x2="1558.56" y2="814.785" gradientUnits="userSpaceOnUse">
<stop stop-color="white"/>
<stop offset="1" stop-color="white" stop-opacity="0.2"/>
</linearGradient>
<linearGradient id="paint57_linear_2602_4429" x1="1607.73" y1="321.588" x2="1607.73" y2="814.786" gradientUnits="userSpaceOnUse">
<stop stop-color="white"/>
<stop offset="1" stop-color="white" stop-opacity="0.2"/>
</linearGradient>
<linearGradient id="paint58_linear_2602_4429" x1="1656.9" y1="321.588" x2="1656.9" y2="814.808" gradientUnits="userSpaceOnUse">
<stop stop-color="white"/>
<stop offset="1" stop-color="white" stop-opacity="0.2"/>
</linearGradient>
<linearGradient id="paint59_linear_2602_4429" x1="1706.07" y1="321.589" x2="1706.07" y2="814.786" gradientUnits="userSpaceOnUse">
<stop stop-color="white"/>
<stop offset="1" stop-color="white" stop-opacity="0.2"/>
</linearGradient>
<linearGradient id="paint60_linear_2602_4429" x1="1755.24" y1="321.588" x2="1755.24" y2="814.785" gradientUnits="userSpaceOnUse">
<stop stop-color="white"/>
<stop offset="1" stop-color="white" stop-opacity="0.2"/>
</linearGradient>
<linearGradient id="paint61_linear_2602_4429" x1="1804.42" y1="321.588" x2="1804.42" y2="814.784" gradientUnits="userSpaceOnUse">
<stop stop-color="white"/>
<stop offset="1" stop-color="white" stop-opacity="0.2"/>
</linearGradient>
<linearGradient id="paint62_linear_2602_4429" x1="1853.59" y1="321.588" x2="1853.59" y2="814.785" gradientUnits="userSpaceOnUse">
<stop stop-color="white"/>
<stop offset="1" stop-color="white" stop-opacity="0.2"/>
</linearGradient>
<linearGradient id="paint63_linear_2602_4429" x1="1902.76" y1="321.589" x2="1902.76" y2="814.784" gradientUnits="userSpaceOnUse">
<stop stop-color="white"/>
<stop offset="1" stop-color="white" stop-opacity="0.2"/>
</linearGradient>
<linearGradient id="paint64_linear_2602_4429" x1="1708" y1="396.253" x2="631.811" y2="886.229" gradientUnits="userSpaceOnUse">
<stop offset="0.162634" stop-color="#05253D"/>
<stop offset="0.275052" stop-color="#67BFFF"/>
<stop offset="0.62742" stop-color="#278BD3" stop-opacity="0.51"/>
<stop offset="0.731524" stop-color="#4085B7" stop-opacity="0.26"/>
<stop offset="1" stop-color="#787878" stop-opacity="0"/>
</linearGradient>
<linearGradient id="paint65_linear_2602_4429" x1="2181.47" y1="730.073" x2="1530.4" y2="556.386" gradientUnits="userSpaceOnUse">
<stop stop-color="#0194FE"/>
<stop offset="0.405115" stop-color="#0194FE" stop-opacity="0.467139"/>
<stop offset="1" stop-color="#0194FE" stop-opacity="0"/>
</linearGradient>
</defs>
</svg>
