<svg width="172" height="52" viewBox="0 0 172 52" fill="none" xmlns="http://www.w3.org/2000/svg">
<rect x="0.339355" y="0.449707" width="170.824" height="51.2" rx="8.53333" fill="black"/>
<path d="M36.3339 27.1353C36.3507 25.827 36.6982 24.5442 37.3441 23.4063C37.9899 22.2683 38.9131 21.3123 40.0277 20.627C39.3196 19.6157 38.3855 18.7835 37.2995 18.1964C36.2135 17.6093 35.0056 17.2835 33.7717 17.2449C31.1395 16.9686 28.5877 18.82 27.2464 18.82C25.8791 18.82 23.814 17.2723 21.5902 17.3181C20.1517 17.3646 18.7499 17.7829 17.5212 18.5322C16.2924 19.2815 15.2788 20.3364 14.579 21.594C11.5475 26.8425 13.8087 34.5562 16.7126 38.7987C18.1655 40.8762 19.8635 43.1967 22.0853 43.1145C24.2595 43.0243 25.0715 41.7281 27.696 41.7281C30.296 41.7281 31.0579 43.1145 33.3248 43.0621C35.6578 43.0243 37.1277 40.9754 38.5296 38.8783C39.5735 37.3981 40.3768 35.762 40.9097 34.0309C39.5543 33.4576 38.3976 32.498 37.5839 31.2718C36.7702 30.0456 36.3354 28.6069 36.3339 27.1353V27.1353Z" fill="white"/>
<path d="M32.052 14.4544C33.3241 12.9273 33.9508 10.9646 33.799 8.98291C31.8556 9.18703 30.0604 10.1159 28.7712 11.5843C28.1409 12.3017 27.6581 13.1363 27.3505 14.0403C27.0429 14.9444 26.9165 15.9003 26.9785 16.8532C27.9505 16.8632 28.9122 16.6525 29.791 16.237C30.6698 15.8215 31.4429 15.212 32.052 14.4544Z" fill="white"/>
<path d="M64.6895 34.4634H58.0899L56.5051 39.0362H53.7097L59.9608 22.1182H62.865L69.116 39.0362H66.273L64.6895 34.4634ZM58.7734 32.3533H64.0047L61.4259 24.9321H61.3537L58.7734 32.3533Z" fill="white"/>
<path d="M82.6161 32.8691C82.6161 36.7022 80.5165 39.1648 77.3481 39.1648C76.5455 39.2058 75.7473 39.0252 75.0449 38.6435C74.3425 38.2619 73.7642 37.6946 73.3764 37.0068H73.3164V43.1162H70.7253V26.7012H73.2334V28.7527H73.2811C73.6867 28.0682 74.2747 27.5039 74.9825 27.1199C75.6903 26.7359 76.4914 26.5466 77.3005 26.5721C80.5042 26.5721 82.6161 29.0467 82.6161 32.8691ZM79.9528 32.8691C79.9528 30.3719 78.6321 28.7301 76.617 28.7301C74.6372 28.7301 73.3056 30.4065 73.3056 32.8691C73.3056 35.3544 74.6372 37.0188 76.617 37.0188C78.6321 37.0188 79.9528 35.389 79.9528 32.8691Z" fill="white"/>
<path d="M96.5097 32.8691C96.5097 36.7021 94.4101 39.1648 91.2417 39.1648C90.4391 39.2058 89.6409 39.0252 88.9384 38.6435C88.236 38.2619 87.6578 37.6946 87.2699 37.0068H87.21V43.1162H84.6189V26.7011H87.1269V28.7527H87.1746C87.5803 28.0681 88.1683 27.5039 88.876 27.1199C89.5838 26.7359 90.3849 26.5466 91.194 26.5721C94.3978 26.5721 96.5097 29.0467 96.5097 32.8691ZM93.8464 32.8691C93.8464 30.3719 92.5256 28.7301 90.5105 28.7301C88.5308 28.7301 87.1991 30.4064 87.1991 32.8691C87.1991 35.3544 88.5308 37.0188 90.5105 37.0188C92.5257 37.0188 93.8464 35.389 93.8464 32.8691H93.8464Z" fill="white"/>
<path d="M105.692 34.3223C105.884 36 107.552 37.1015 109.831 37.1015C112.015 37.1015 113.587 35.9999 113.587 34.4872C113.587 33.174 112.639 32.3878 110.395 31.8489L108.151 31.3207C104.972 30.5703 103.496 29.1175 103.496 26.7599C103.496 23.8409 106.099 21.8359 109.796 21.8359C113.455 21.8359 115.963 23.8409 116.047 26.7599H113.431C113.275 25.0716 111.847 24.0525 109.759 24.0525C107.672 24.0525 106.244 25.0836 106.244 26.5843C106.244 27.7804 107.156 28.4842 109.388 29.023L111.295 29.4807C114.847 30.3015 116.323 31.6959 116.323 34.1705C116.323 37.3356 113.743 39.318 109.639 39.318C105.8 39.318 103.207 37.3822 103.04 34.3221L105.692 34.3223Z" fill="white"/>
<path d="M121.915 23.7827V26.7017H124.316V28.7067H121.915V35.5066C121.915 36.563 122.396 37.0553 123.451 37.0553C123.736 37.0504 124.021 37.0309 124.304 36.9967V38.9897C123.829 39.0763 123.347 39.1156 122.864 39.1068C120.309 39.1068 119.312 38.1688 119.312 35.7767V28.7067H117.477V26.7017H119.312V23.7827H121.915Z" fill="white"/>
<path d="M125.706 32.8694C125.706 28.9885 128.045 26.5498 131.693 26.5498C135.353 26.5498 137.681 28.9885 137.681 32.8694C137.681 36.761 135.365 39.1891 131.693 39.1891C128.022 39.1891 125.706 36.761 125.706 32.8694ZM135.041 32.8694C135.041 30.2072 133.793 28.6359 131.693 28.6359C129.593 28.6359 128.346 30.2192 128.346 32.8694C128.346 35.5423 129.593 37.1016 131.693 37.1016C133.793 37.1016 135.041 35.5423 135.041 32.8694H135.041Z" fill="white"/>
<path d="M139.818 26.7015H142.289V28.801H142.349C142.516 28.1453 142.909 27.5658 143.462 27.16C144.015 26.7541 144.694 26.5467 145.385 26.5725C145.684 26.5714 145.982 26.6031 146.273 26.6669V29.0351C145.896 28.9226 145.503 28.8709 145.109 28.8821C144.732 28.8672 144.357 28.9321 144.009 29.0722C143.66 29.2124 143.347 29.4246 143.091 29.6942C142.834 29.9638 142.64 30.2844 142.523 30.6341C142.405 30.9838 142.366 31.3542 142.409 31.72V39.0361H139.818L139.818 26.7015Z" fill="white"/>
<path d="M158.219 35.4133C157.871 37.6524 155.639 39.1891 152.784 39.1891C149.112 39.1891 146.833 36.7849 146.833 32.928C146.833 29.059 149.124 26.5498 152.675 26.5498C156.168 26.5498 158.364 28.894 158.364 32.6339V33.5014H149.448V33.6544C149.407 34.1083 149.465 34.5656 149.619 34.9959C149.772 35.4262 150.018 35.8197 150.339 36.1501C150.66 36.4806 151.05 36.7404 151.482 36.9125C151.913 37.0846 152.378 37.1649 152.844 37.1482C153.456 37.2042 154.071 37.0656 154.596 36.7531C155.121 36.4405 155.529 35.9706 155.759 35.4132L158.219 35.4133ZM149.46 31.7319H155.771C155.795 31.3237 155.731 30.9153 155.585 30.5322C155.439 30.1491 155.214 29.7996 154.923 29.5056C154.632 29.2116 154.283 28.9796 153.896 28.824C153.509 28.6684 153.093 28.5926 152.675 28.6014C152.253 28.5989 151.835 28.6781 151.444 28.8344C151.054 28.9908 150.699 29.2211 150.4 29.5121C150.101 29.8032 149.864 30.1492 149.703 30.5302C149.542 30.9112 149.459 31.3196 149.46 31.7319V31.7319Z" fill="white"/>
<path d="M58.4486 9.38374C58.9918 9.34565 59.5369 9.42583 60.0446 9.61852C60.5523 9.81121 61.0099 10.1116 61.3843 10.498C61.7588 10.8844 62.0409 11.3472 62.2101 11.853C62.3794 12.3588 62.4317 12.895 62.3632 13.423C62.3632 16.02 60.9267 17.5128 58.4486 17.5128H55.4436V9.38374H58.4486ZM56.7357 16.3632H58.3043C58.6925 16.3859 59.0809 16.3237 59.4414 16.1812C59.8019 16.0386 60.1253 15.8194 60.3881 15.5393C60.6509 15.2593 60.8465 14.9255 60.9606 14.5622C61.0747 14.199 61.1046 13.8155 61.0479 13.4395C61.1004 13.0651 61.0676 12.684 60.9517 12.3234C60.8358 11.9628 60.6398 11.6317 60.3775 11.3539C60.1153 11.0761 59.7935 10.8584 59.435 10.7164C59.0766 10.5744 58.6905 10.5116 58.3043 10.5325H56.7357V16.3632Z" fill="white"/>
<path d="M63.8228 14.4428C63.7834 14.0396 63.8306 13.6329 63.9614 13.2486C64.0922 12.8643 64.3038 12.511 64.5826 12.2113C64.8614 11.9116 65.2012 11.6721 65.5802 11.5083C65.9592 11.3444 66.3691 11.2598 66.7836 11.2598C67.1981 11.2598 67.608 11.3444 67.987 11.5083C68.366 11.6721 68.7058 11.9116 68.9846 12.2113C69.2634 12.511 69.475 12.8643 69.6058 13.2486C69.7367 13.6329 69.7838 14.0396 69.7444 14.4428C69.7846 14.8464 69.738 15.2537 69.6075 15.6386C69.477 16.0235 69.2655 16.3775 68.9867 16.6778C68.7078 16.9781 68.3678 17.218 67.9884 17.3822C67.6089 17.5464 67.1986 17.6313 66.7836 17.6313C66.3686 17.6313 65.9583 17.5464 65.5789 17.3822C65.1994 17.218 64.8594 16.9781 64.5805 16.6778C64.3017 16.3775 64.0902 16.0235 63.9598 15.6386C63.8293 15.2537 63.7826 14.8464 63.8228 14.4428V14.4428ZM68.4699 14.4428C68.4699 13.113 67.8586 12.3354 66.7857 12.3354C65.7086 12.3354 65.1028 13.113 65.1028 14.4428C65.1028 15.7832 65.7087 16.5549 66.7857 16.5549C67.8586 16.5549 68.4699 15.7779 68.4699 14.4428H68.4699Z" fill="white"/>
<path d="M77.6157 17.5126H76.3303L75.0328 12.9944H74.9347L73.6426 17.5126H72.3695L70.6389 11.3779H71.8957L73.0203 16.0591H73.1129L74.4037 11.3779H75.5924L76.8831 16.0591H76.9812L78.1004 11.3779H79.3394L77.6157 17.5126Z" fill="white"/>
<path d="M80.7951 11.3779H81.9878V12.3524H82.0804C82.2375 12.0024 82.5024 11.709 82.8382 11.5131C83.174 11.3171 83.5641 11.2285 83.9539 11.2595C84.2594 11.237 84.5661 11.282 84.8514 11.3911C85.1367 11.5003 85.3931 11.6707 85.6018 11.8898C85.8105 12.109 85.9661 12.3712 86.057 12.657C86.1479 12.9429 86.1718 13.2451 86.127 13.5412V17.5125H84.888V13.8452C84.888 12.8593 84.4495 12.3691 83.5332 12.3691C83.3258 12.3596 83.1187 12.3941 82.9263 12.4702C82.7338 12.5462 82.5604 12.6621 82.418 12.8097C82.2756 12.9574 82.1676 13.1334 82.1013 13.3257C82.035 13.5179 82.0121 13.7219 82.0341 13.9237V17.5126H80.795L80.7951 11.3779Z" fill="white"/>
<path d="M88.1013 8.98291H89.3404V17.5124H88.1013V8.98291Z" fill="white"/>
<path d="M91.0627 14.4424C91.0232 14.0392 91.0705 13.6325 91.2013 13.2482C91.3322 12.8639 91.5438 12.5105 91.8226 12.2108C92.1014 11.9111 92.4413 11.6717 92.8203 11.5078C93.1994 11.3439 93.6093 11.2593 94.0238 11.2593C94.4383 11.2593 94.8482 11.3439 95.2273 11.5078C95.6063 11.6717 95.9461 11.9111 96.2249 12.2108C96.5037 12.5105 96.7154 12.8639 96.8462 13.2482C96.9771 13.6325 97.0243 14.0392 96.9849 14.4424C97.0251 14.846 96.9784 15.2533 96.8478 15.6382C96.7173 16.0231 96.5058 16.3771 96.2269 16.6774C95.9481 16.9777 95.608 17.2176 95.2286 17.3818C94.8491 17.546 94.4388 17.6309 94.0238 17.6309C93.6088 17.6309 93.1984 17.546 92.819 17.3818C92.4396 17.2176 92.0995 16.9777 91.8206 16.6774C91.5418 16.3771 91.3303 16.0231 91.1997 15.6382C91.0692 15.2533 91.0225 14.846 91.0627 14.4424V14.4424ZM95.7098 14.4424C95.7098 13.1126 95.0984 12.335 94.0255 12.335C92.9485 12.335 92.3426 13.1126 92.3426 14.4424C92.3426 15.7829 92.9485 16.5545 94.0255 16.5545C95.0984 16.5545 95.7098 15.7775 95.7098 14.4424H95.7098Z" fill="white"/>
<path d="M98.2893 15.7775C98.2893 14.6732 99.1308 14.0366 100.624 13.9461L102.325 13.8503V13.3208C102.325 12.6729 101.887 12.307 101.04 12.307C100.348 12.307 99.8688 12.5551 99.7312 12.9889H98.5317C98.6583 11.9351 99.6727 11.2593 101.097 11.2593C102.671 11.2593 103.559 12.0249 103.559 13.3208V17.5124H102.366V16.6503H102.268C102.069 16.9595 101.789 17.2116 101.458 17.3808C101.127 17.5501 100.756 17.6303 100.382 17.6135C100.119 17.6402 99.8521 17.6128 99.6001 17.5328C99.3481 17.4528 99.116 17.3221 98.9188 17.1492C98.7216 16.9762 98.5637 16.7647 98.4553 16.5285C98.3469 16.2922 98.2903 16.0364 98.2893 15.7775V15.7775ZM102.325 15.2533V14.7404L100.792 14.8362C99.9273 14.8927 99.5351 15.1801 99.5351 15.7209C99.5351 16.2731 100.025 16.5944 100.699 16.5944C100.897 16.6139 101.096 16.5944 101.286 16.5371C101.476 16.4797 101.651 16.3857 101.803 16.2606C101.955 16.1354 102.079 15.9818 102.169 15.8087C102.259 15.6357 102.312 15.4468 102.325 15.2533V15.2533Z" fill="white"/>
<path d="M105.187 14.4424C105.187 12.504 106.207 11.276 107.793 11.276C108.186 11.2583 108.575 11.3501 108.916 11.5407C109.257 11.7313 109.535 12.0128 109.718 12.3522H109.811V8.98291H111.05V17.5124H109.863V16.5432H109.765C109.567 16.8804 109.279 17.1583 108.932 17.347C108.584 17.5357 108.191 17.6278 107.793 17.6135C106.196 17.6136 105.187 16.3855 105.187 14.4424ZM106.467 14.4424C106.467 15.7436 107.095 16.5266 108.145 16.5266C109.189 16.5266 109.834 15.7323 109.834 14.4478C109.834 13.1692 109.182 12.3636 108.145 12.3636C107.102 12.3636 106.467 13.1519 106.467 14.4424H106.467Z" fill="white"/>
<path d="M116.176 14.4428C116.137 14.0396 116.184 13.6329 116.315 13.2486C116.446 12.8643 116.657 12.511 116.936 12.2113C117.215 11.9116 117.555 11.6721 117.934 11.5083C118.313 11.3444 118.723 11.2598 119.137 11.2598C119.552 11.2598 119.962 11.3444 120.341 11.5083C120.72 11.6721 121.059 11.9116 121.338 12.2113C121.617 12.511 121.829 12.8643 121.959 13.2486C122.09 13.6329 122.137 14.0396 122.098 14.4428C122.138 14.8464 122.092 15.2537 121.961 15.6386C121.831 16.0235 121.619 16.3775 121.34 16.6778C121.061 16.9781 120.721 17.218 120.342 17.3822C119.963 17.5464 119.552 17.6313 119.137 17.6313C118.722 17.6313 118.312 17.5464 117.932 17.3822C117.553 17.218 117.213 16.9781 116.934 16.6778C116.655 16.3775 116.444 16.0235 116.313 15.6386C116.183 15.2537 116.136 14.8464 116.176 14.4428V14.4428ZM120.824 14.4428C120.824 13.113 120.212 12.3354 119.139 12.3354C118.062 12.3354 117.456 13.113 117.456 14.4428C117.456 15.7832 118.062 16.5549 119.139 16.5549C120.212 16.5549 120.824 15.7779 120.824 14.4428Z" fill="white"/>
<path d="M123.76 11.3779H124.953V12.3524H125.046C125.203 12.0024 125.468 11.709 125.804 11.5131C126.14 11.3171 126.53 11.2285 126.919 11.2595C127.225 11.237 127.532 11.282 127.817 11.3911C128.102 11.5003 128.359 11.6707 128.567 11.8898C128.776 12.109 128.932 12.3712 129.022 12.657C129.113 12.9429 129.137 13.2451 129.092 13.5412V17.5125H127.853V13.8452C127.853 12.8593 127.415 12.3691 126.499 12.3691C126.291 12.3596 126.084 12.3941 125.892 12.4702C125.699 12.5462 125.526 12.6621 125.383 12.8097C125.241 12.9574 125.133 13.1334 125.067 13.3257C125.001 13.5179 124.978 13.7219 125 13.9237V17.5126H123.76V11.3779Z" fill="white"/>
<path d="M136.094 9.85059V11.4059H137.454V12.4257H136.094V15.5802C136.094 16.2228 136.365 16.5042 136.982 16.5042C137.139 16.5037 137.297 16.4943 137.454 16.4762V17.4847C137.231 17.5236 137.006 17.5443 136.78 17.5466C135.402 17.5466 134.853 17.0729 134.853 15.8902V12.4256H133.857V11.4058H134.853V9.85059H136.094Z" fill="white"/>
<path d="M139.146 8.98291H140.375V12.3636H140.473C140.637 12.0103 140.909 11.7152 141.252 11.5186C141.595 11.3219 141.991 11.2332 142.387 11.2646C142.691 11.2485 142.995 11.2981 143.277 11.4098C143.559 11.5216 143.812 11.6928 144.018 11.9113C144.225 12.1297 144.38 12.39 144.471 12.6735C144.563 12.9571 144.59 13.2569 144.549 13.5517V17.5124H143.309V13.8504C143.309 12.8705 142.842 12.3742 141.966 12.3742C141.753 12.3571 141.539 12.3858 141.339 12.458C141.138 12.5303 140.956 12.6445 140.806 12.7927C140.655 12.9408 140.54 13.1193 140.467 13.3157C140.394 13.512 140.367 13.7215 140.385 13.9295V17.5124H139.146L139.146 8.98291Z" fill="white"/>
<path d="M151.774 15.8561C151.605 16.4167 151.241 16.9017 150.743 17.2262C150.246 17.5506 149.648 17.6939 149.053 17.6309C148.64 17.6416 148.229 17.5641 147.849 17.404C147.469 17.2439 147.129 17.0049 146.853 16.7036C146.577 16.4024 146.372 16.046 146.251 15.6594C146.13 15.2727 146.097 14.8649 146.153 14.4644C146.098 14.0627 146.132 13.6541 146.253 13.2662C146.373 12.8784 146.578 12.5204 146.852 12.2165C147.127 11.9126 147.465 11.6699 147.843 11.5047C148.222 11.3396 148.633 11.2559 149.048 11.2594C150.795 11.2594 151.849 12.4256 151.849 14.352V14.7744H147.415V14.8423C147.396 15.0674 147.425 15.294 147.5 15.5076C147.576 15.7211 147.696 15.9169 147.854 16.0824C148.011 16.2479 148.202 16.3793 148.414 16.4684C148.627 16.5575 148.856 16.6023 149.087 16.5998C149.384 16.6345 149.684 16.5824 149.95 16.4499C150.216 16.3175 150.436 16.1108 150.581 15.856L151.774 15.8561ZM147.415 13.879H150.586C150.602 13.6731 150.573 13.4663 150.502 13.2719C150.431 13.0775 150.319 12.8997 150.174 12.75C150.028 12.6004 149.852 12.4821 149.657 12.4028C149.462 12.3236 149.252 12.2851 149.041 12.2898C148.827 12.2872 148.614 12.3265 148.416 12.4054C148.217 12.4844 148.037 12.6014 147.885 12.7495C147.734 12.8976 147.614 13.0738 147.533 13.2678C147.453 13.4618 147.413 13.6696 147.415 13.879H147.415Z" fill="white"/>
</svg>
