<svg width="20" height="15" viewBox="0 0 20 15" fill="none" xmlns="http://www.w3.org/2000/svg">
<path d="M8.12412 6.36447C8.20988 6.3592 8.29421 6.3831 8.3658 6.4316C8.44069 6.48237 8.49413 6.56685 8.51213 6.65634C8.53268 6.75837 8.523 6.87272 8.52315 6.97672C8.52341 7.1585 8.52353 7.34029 8.52349 7.52211C8.52341 7.68523 8.5233 7.84838 8.52304 8.01154C8.52289 8.10776 8.52848 8.20895 8.51768 8.30456C8.51093 8.36418 8.49075 8.41752 8.45772 8.46698C8.39198 8.56536 8.30265 8.61358 8.19094 8.63579C8.11793 8.63941 8.05624 8.62906 7.9911 8.59457L7.97966 8.58841C7.9626 8.57929 7.94726 8.5694 7.93163 8.55778C7.85355 8.5 7.8066 8.4221 7.79217 8.32419C7.77904 8.23485 7.78556 8.13528 7.78538 8.04495C7.78508 7.88272 7.78493 7.72052 7.78485 7.55829C7.78474 7.37247 7.78478 7.18664 7.78497 7.00081C7.78504 6.89943 7.77889 6.79216 7.79067 6.69152C7.79873 6.62281 7.81995 6.56616 7.86086 6.51042C7.92975 6.41655 8.01357 6.38022 8.12412 6.36447Z" fill="#FAFAFA"/>
<path d="M19.5999 8.33396C19.5539 8.43419 19.5058 8.52952 19.4066 8.58422C19.3238 8.62983 19.2314 8.65204 19.139 8.62178C19.0455 8.59111 18.9443 8.51859 18.8999 8.42622C18.8793 8.38346 18.8673 8.33273 18.8634 8.28531C18.8432 8.03567 18.8597 7.77033 18.8597 7.51915C18.8597 7.31985 18.8599 7.12055 18.8602 6.92126C18.8604 6.78812 18.8402 6.61473 18.8826 6.48972L18.8874 6.47632C18.9115 6.4077 18.969 6.33122 19.0309 6.29331L19.0405 6.28769L19.0631 6.27441C19.1469 6.22934 19.2525 6.22422 19.3416 6.25405C19.4819 6.30104 19.538 6.4 19.5999 6.52713V8.33396Z" fill="#FAFAFA"/>
<path d="M0.399902 6.26667C0.43329 6.20859 0.45729 6.14944 0.502979 6.10017L0.51189 6.09032C0.578574 6.01796 0.664856 5.98701 0.760712 5.98563C0.863511 5.98412 0.960944 6.02111 1.03271 6.09771C1.0853 6.15386 1.11657 6.21533 1.12964 6.29154C1.14408 6.37571 1.13834 6.46547 1.13846 6.55076C1.13865 6.69436 1.13875 6.83797 1.1388 6.98157C1.13896 7.39652 1.15159 7.81632 1.13693 8.23081C1.13526 8.27823 1.13173 8.32134 1.1186 8.3671L1.11582 8.37776C1.09004 8.47125 1.01256 8.55004 0.931322 8.59473C0.852509 8.63806 0.752939 8.65026 0.66709 8.62201C0.545325 8.58191 0.47071 8.49931 0.41807 8.38373C0.412356 8.37118 0.407508 8.36229 0.399902 8.35043V6.26667Z" fill="#FAFAFA"/>
<path d="M9.90983 5.51725C9.97534 5.51025 10.0425 5.51721 10.1041 5.54192C10.1903 5.57649 10.2704 5.65389 10.305 5.74237C10.3247 5.79268 10.332 5.85657 10.3347 5.91057C10.3436 6.08785 10.3362 6.26867 10.3362 6.44649C10.3364 6.79817 10.3364 7.14988 10.3364 7.50156C10.3364 7.82429 10.3362 8.14702 10.3362 8.46975C10.3361 8.63298 10.3438 8.80091 10.3343 8.96368C10.3311 9.01865 10.3224 9.08208 10.2991 9.13207C10.2417 9.25504 10.1464 9.31143 10.0265 9.3545C9.94268 9.36528 9.85478 9.35042 9.78214 9.3042C9.69236 9.24708 9.62494 9.16325 9.60368 9.05579C9.57983 8.93512 9.5952 8.78328 9.5952 8.65923C9.59517 8.39693 9.59513 8.13467 9.59513 7.8724C9.59513 7.43105 9.5952 6.98965 9.59535 6.5483C9.59543 6.32256 9.58196 6.08808 9.59933 5.86346C9.6045 5.79661 9.62055 5.73726 9.65787 5.68106C9.72203 5.5843 9.80033 5.53942 9.90983 5.51725Z" fill="#FAFAFA"/>
<path d="M17.336 5.22797C17.4178 5.2262 17.486 5.23251 17.5602 5.27273C17.6428 5.31745 17.7105 5.39636 17.7354 5.48977C17.7593 5.57945 17.7538 5.67841 17.7537 5.77074C17.7537 5.8889 17.7537 6.00706 17.7537 6.12523C17.7537 6.48317 17.7537 6.84108 17.7537 7.19899C17.7537 7.68157 17.7535 8.16411 17.7534 8.64665C17.7533 8.89494 17.7645 9.14858 17.751 9.39618C17.7471 9.46793 17.7333 9.52936 17.6961 9.59121C17.6306 9.70021 17.5355 9.74366 17.4193 9.77234C17.3507 9.77919 17.2609 9.75802 17.2016 9.72199C17.1167 9.67038 17.0442 9.58039 17.0245 9.48013C16.9953 9.3316 17.0143 9.14824 17.0143 8.99563C17.0142 8.66381 17.0142 8.33204 17.0142 8.00022C17.0142 7.46857 17.0143 6.93692 17.0144 6.40531C17.0145 6.14051 16.9982 5.86369 17.0174 5.60043C17.0226 5.52753 17.0369 5.45297 17.0773 5.39124C17.1416 5.29301 17.2257 5.24987 17.336 5.22797Z" fill="#FAFAFA"/>
<path d="M2.60696 4.4297C2.65721 4.43417 2.70418 4.44156 2.75184 4.45915C2.83721 4.49059 2.92037 4.57242 2.95516 4.65856C2.97485 4.70732 2.98379 4.76875 2.98594 4.82118C2.99769 5.10746 2.98728 5.39859 2.98734 5.68529C2.98745 6.25108 2.98753 6.81684 2.98752 7.38263C2.9875 7.97066 2.9874 8.55874 2.9873 9.14677C2.98724 9.44326 2.99722 9.74393 2.9859 10.04C2.9839 10.0923 2.9755 10.1508 2.95556 10.1994L2.95102 10.2098C2.9432 10.2282 2.93464 10.2444 2.92378 10.2612C2.85596 10.3662 2.75522 10.4183 2.637 10.4416C2.59547 10.4409 2.55195 10.4344 2.51204 10.4223C2.42958 10.3973 2.32852 10.3154 2.28878 10.2358C2.261 10.1802 2.24999 10.1226 2.24769 10.0606C2.23685 9.76845 2.24657 9.47197 2.24657 9.17941C2.24656 8.60843 2.24655 8.03744 2.24661 7.46646C2.24667 6.9216 2.24676 6.37679 2.24681 5.83194C2.24684 5.6077 2.24664 5.38346 2.24654 5.15919C2.2465 5.07189 2.24645 4.9846 2.24695 4.89735C2.24735 4.82745 2.24576 4.75139 2.26936 4.68496L2.27421 4.67215C2.30237 4.59463 2.35943 4.52188 2.43044 4.48097L2.44365 4.4737C2.49506 4.44502 2.54993 4.43867 2.60696 4.4297Z" fill="#FAFAFA"/>
<path d="M6.2301 3.71746C6.30222 3.70861 6.37167 3.71088 6.44055 3.73628C6.52646 3.76804 6.60338 3.84036 6.64024 3.92561C6.66627 3.98577 6.67294 4.04477 6.67459 4.1102C6.6849 4.51519 6.67601 4.9229 6.67598 5.32812C6.67598 6.11607 6.67583 6.90398 6.67575 7.69189C6.67568 8.3086 6.6759 8.92531 6.67613 9.54198C6.67624 9.86729 6.68712 10.1973 6.67395 10.5222C6.67204 10.5691 6.66777 10.6154 6.6507 10.6594L6.64575 10.6716L6.62944 10.7119C6.58043 10.8084 6.48252 10.8731 6.38337 10.9019C6.32644 10.9095 6.27357 10.9137 6.21709 10.8988C6.12611 10.8748 6.03754 10.8081 5.98973 10.7244L5.98365 10.7133C5.97023 10.689 5.95875 10.6642 5.95332 10.6366C5.93397 10.5382 5.9379 10.4288 5.93805 10.3284C5.93828 10.1872 5.93816 10.0459 5.93816 9.90466C5.93816 9.42705 5.9382 8.94948 5.9382 8.47187C5.93828 7.50602 5.93858 6.54022 5.93839 5.57437C5.93831 5.25221 5.93813 4.93006 5.93801 4.60791C5.93798 4.4456 5.93224 4.28098 5.93847 4.11886C5.94154 4.03888 5.95039 3.95806 5.99419 3.88962L6.00315 3.87604C6.06282 3.78432 6.12885 3.74471 6.2301 3.71746Z" fill="#FAFAFA"/>
<path d="M15.5001 3.33284C15.5919 3.32914 15.671 3.34777 15.7488 3.39973C15.8095 3.44022 15.8751 3.52186 15.8898 3.59668L15.8921 3.60908C15.9137 3.71496 15.9076 3.82354 15.9075 3.93123C15.9075 4.07949 15.9076 4.22775 15.9076 4.37601C15.9077 4.90531 15.9077 5.43465 15.9078 5.96396C15.9078 7.13841 15.9078 8.31287 15.9077 9.48736C15.9077 9.87857 15.9076 10.2698 15.9075 10.6611C15.9075 10.8636 15.9125 11.0675 15.9066 11.2698C15.9046 11.339 15.8953 11.4071 15.8603 11.4673L15.8525 11.4802L15.8346 11.5098C15.7677 11.6008 15.675 11.6521 15.5667 11.6712C15.4708 11.67 15.4049 11.6502 15.3241 11.5952C15.253 11.5468 15.1971 11.4702 15.1808 11.3832C15.1643 11.2948 15.1705 11.1939 15.1704 11.1036C15.1702 10.9548 15.1704 10.806 15.1704 10.6572C15.1704 10.1059 15.1704 9.55457 15.1704 9.00325C15.1704 7.83403 15.1706 6.66477 15.1706 5.49554C15.1706 5.12385 15.171 4.75216 15.1703 4.38048C15.17 4.17044 15.1638 3.95848 15.1708 3.74868C15.1739 3.65846 15.1818 3.5714 15.2336 3.49469C15.303 3.39177 15.3837 3.35543 15.5001 3.33284Z" fill="#FAFAFA"/>
<path d="M11.8444 2.79418C11.8858 2.79134 11.9248 2.79607 11.9653 2.8045C12.0658 2.8254 12.1512 2.89387 12.2037 2.98344C12.2363 3.03905 12.2487 3.11792 12.2501 3.18173C12.2654 3.88985 12.2516 4.6014 12.2516 5.30979C12.2517 6.68678 12.2517 8.06377 12.2516 9.44075C12.2516 9.97144 12.2515 10.5021 12.2514 11.0328C12.2514 11.185 12.2514 11.3373 12.2514 11.4896C12.2513 11.585 12.2615 11.6973 12.2363 11.7894L12.2313 11.8071C12.2213 11.8436 12.2098 11.8724 12.1884 11.9036C12.1181 12.0057 12.0316 12.0525 11.9128 12.0727C11.8652 12.0759 11.8134 12.0687 11.7676 12.0555C11.6812 12.0305 11.5935 11.9553 11.5531 11.873C11.5222 11.8098 11.5138 11.7387 11.5124 11.669C11.4992 11.0081 11.512 10.3443 11.5121 9.68304C11.5122 8.39774 11.5116 7.11239 11.5116 5.82705C11.5115 5.24983 11.5115 4.67261 11.5116 4.09535C11.5117 3.87954 11.5117 3.66373 11.5118 3.44792C11.5119 3.32984 11.4938 3.16995 11.5312 3.0583L11.5356 3.04598C11.5475 3.01119 11.5619 2.98163 11.5819 2.9508C11.6489 2.84757 11.7311 2.81608 11.8444 2.79418Z" fill="#FAFAFA"/>
<path d="M4.46344 1.81294C4.53435 1.8201 4.60091 1.83719 4.66163 1.87672C4.74462 1.93072 4.80432 2.0174 4.82179 2.11743C4.8399 2.22104 4.82997 2.33905 4.83008 2.44451C4.83034 2.65235 4.83015 2.86023 4.83015 3.06807C4.83019 3.82111 4.83019 4.57415 4.83019 5.32723C4.83019 6.98196 4.83008 8.63664 4.83 10.2914C4.82997 10.8328 4.82993 11.3742 4.83011 11.9156C4.83019 12.2033 4.83679 12.4928 4.82888 12.7802C4.82655 12.8643 4.81328 12.9476 4.76374 13.0174C4.68807 13.124 4.5975 13.1653 4.47454 13.1839C4.44975 13.1832 4.42508 13.1822 4.40063 13.1775C4.30133 13.1585 4.20694 13.0975 4.15106 13.0104L4.14339 12.9981C4.11515 12.9536 4.10456 12.9026 4.09665 12.8506C4.08067 12.7455 4.09116 12.6254 4.09116 12.5187C4.09115 12.2993 4.09115 12.0798 4.09116 11.8604C4.09117 11.0849 4.09122 10.3094 4.09129 9.5339C4.09143 7.91462 4.09124 6.29535 4.09111 4.67607C4.09106 4.14115 4.09105 3.60623 4.09106 3.07131C4.09107 2.78183 4.08447 2.49051 4.09269 2.20118C4.09509 2.11658 4.11827 2.02729 4.17008 1.96005C4.25254 1.85293 4.33744 1.82884 4.46344 1.81294Z" fill="#FAFAFA"/>
<path d="M13.6403 0.301926C13.7174 0.29516 13.7999 0.305494 13.8682 0.345026C13.9493 0.392014 14.0225 0.476216 14.0463 0.570322C14.0669 0.652131 14.0592 0.749974 14.0594 0.834022C14.0598 0.985893 14.0595 1.13777 14.0595 1.28964C14.0595 1.84758 14.0595 2.40548 14.0595 2.96342C14.0596 5.39378 14.0595 7.82414 14.0595 10.2545C14.0594 11.26 14.0594 12.2654 14.0594 13.2709C14.0594 13.5159 14.0596 13.7609 14.0595 14.0059C14.0594 14.133 14.0753 14.2856 14.0475 14.4084C14.0392 14.4451 14.0228 14.489 14.003 14.5208C13.9374 14.6268 13.8399 14.6739 13.7252 14.6988C13.6796 14.7034 13.6347 14.6945 13.5905 14.683C13.4999 14.6593 13.4196 14.5925 13.3724 14.5107L13.3644 14.4965C13.3488 14.4693 13.3418 14.4456 13.3364 14.4145C13.3087 14.2545 13.3205 14.0852 13.3205 13.9232C13.3205 13.6614 13.3205 13.3996 13.3205 13.1377C13.3205 12.1786 13.3205 11.2194 13.3206 10.2603C13.3207 8.14325 13.3206 6.02627 13.3205 3.90929C13.3205 3.2054 13.3205 2.50148 13.3205 1.79755C13.3205 1.44112 13.3138 1.08337 13.3208 0.727134C13.3227 0.631227 13.3367 0.535886 13.3923 0.456063C13.455 0.366176 13.5351 0.320786 13.6403 0.301926Z" fill="#FAFAFA"/>
</svg>
