<svg width="17" height="17" viewBox="0 0 17 17" fill="none" xmlns="http://www.w3.org/2000/svg">
<rect width="17" height="17" rx="8.5" fill="url(#paint0_linear_1_197)"/>
<path d="M8.49983 14C7.69828 13.9999 6.91523 13.7689 6.25222 13.3368C5.5892 12.9047 5.0768 12.2915 4.78146 11.5767C4.48611 10.8619 4.42143 10.0785 4.59581 9.32798C4.7702 8.5775 5.1756 7.89458 5.75945 7.36777C6.47521 6.72158 8.23315 5.55814 7.96647 3C10.4277 4.57399 11.9425 6.14798 11.0549 8.18751C10.6953 9.01362 11.1255 9.83764 11.8209 9.26481C11.9524 9.15649 12.0898 9.0351 12.2333 8.89907C12.3773 9.29456 12.5 9.71972 12.5 10.1628C12.5 11.1805 12.0786 12.1565 11.3284 12.8761C10.5782 13.5957 9.56074 14 8.49983 14Z" fill="white"/>
<defs>
<linearGradient id="paint0_linear_1_197" x1="8.5" y1="0" x2="8.5" y2="17" gradientUnits="userSpaceOnUse">
<stop stop-color="#625BC9"/>
<stop offset="1" stop-color="#92AAFF"/>
</linearGradient>
</defs>
</svg>
