<svg width="31" height="31" viewBox="0 0 31 31" fill="none" xmlns="http://www.w3.org/2000/svg">
<path d="M30.875 15.25C30.875 7 24.125 0.25 15.875 0.25C7.625 0.25 0.875 7 0.875 15.25C0.875 22.75 6.3125 28.9375 13.4375 30.0625V19.5625H9.6875V15.25H13.4375V11.875C13.4375 8.125 15.6875 6.0625 19.0625 6.0625C20.75 6.0625 22.4375 6.4375 22.4375 6.4375V10.1875H20.5625C18.6875 10.1875 18.125 11.3125 18.125 12.4375V15.25H22.25L21.5 19.5625H17.9375V30.25C25.4375 29.125 30.875 22.75 30.875 15.25Z" fill="white"/>
<path d="M30.875 15.25C30.875 7 24.125 0.25 15.875 0.25C7.625 0.25 0.875 7 0.875 15.25C0.875 22.75 6.3125 28.9375 13.4375 30.0625V19.5625H9.6875V15.25H13.4375V11.875C13.4375 8.125 15.6875 6.0625 19.0625 6.0625C20.75 6.0625 22.4375 6.4375 22.4375 6.4375V10.1875H20.5625C18.6875 10.1875 18.125 11.3125 18.125 12.4375V15.25H22.25L21.5 19.5625H17.9375V30.25C25.4375 29.125 30.875 22.75 30.875 15.25Z" fill="#9D8FA4"/>
</svg>
