<svg width="176" height="52" viewBox="0 0 176 52" fill="none" xmlns="http://www.w3.org/2000/svg">
<rect x="0.607422" y="0.449707" width="175.285" height="51.2" rx="8.53333" fill="black"/>
<path d="M34.6897 33.3226L27.665 25.6754L13.836 40.3526C14.2828 41.7993 15.6324 42.8495 17.2259 42.8495C17.8832 42.8495 18.4988 42.6717 19.0268 42.3609L19.0269 42.3608L19.072 42.3343L19.072 42.3343L19.074 42.3332L34.6897 33.3226Z" fill="white" stroke="black" stroke-width="0.533333"/>
<path d="M41.8336 22.9644L41.8207 22.9573L41.8087 22.9489L41.8047 22.9461L35.115 19.0686L27.7347 25.6361L35.1536 33.0526L41.8058 29.2146L41.8057 29.2145L41.8121 29.211C42.927 28.6079 43.6829 27.4336 43.6829 26.0814C43.6829 24.7361 42.938 23.5684 41.8336 22.9644Z" fill="white" stroke="black" stroke-width="0.533333"/>
<path d="M27.7706 25.6727L13.7038 12.3429C13.6842 12.4924 13.6741 12.6449 13.6741 12.7999V39.2995C13.6741 39.4491 13.6835 39.5961 13.7019 39.7402L27.7706 25.6727Z" fill="white" stroke="black" stroke-width="0.533333"/>
<path d="M27.7719 25.6722L34.6503 18.795L19.065 9.7589L19.065 9.75893L19.0616 9.75687C18.5244 9.43459 17.8975 9.24943 17.2267 9.24943C15.637 9.24943 14.2874 10.2973 13.8373 11.7403L27.7719 25.6722Z" fill="white" stroke="black" stroke-width="0.533333"/>
<path d="M64.7481 13.2202C64.7481 14.2714 64.437 15.1081 63.8136 15.7328C63.1049 16.4754 62.1829 16.8467 61.0489 16.8467C59.9613 16.8467 59.0381 16.4704 58.2792 15.7165C57.5177 14.9638 57.1389 14.0293 57.1389 12.9154C57.1389 11.8002 57.5177 10.8669 58.2792 10.113C59.0381 9.3604 59.9613 8.98282 61.0489 8.98282C61.587 8.98282 62.1038 9.08819 62.5931 9.29893C63.0835 9.50967 63.4762 9.78941 63.7709 10.1394L63.1086 10.8017C62.6106 10.2071 61.9245 9.90857 61.0489 9.90857C60.2561 9.90857 59.5712 10.1871 58.9929 10.744C58.4146 11.3022 58.1261 12.0248 58.1261 12.9154C58.1261 13.8048 58.4146 14.5285 58.9929 15.0855C59.5712 15.6437 60.2561 15.9209 61.0489 15.9209C61.8893 15.9209 62.5893 15.6412 63.1513 15.0805C63.515 14.7154 63.7245 14.2087 63.781 13.5564H61.0489V12.652H64.6954C64.7306 12.8489 64.7481 13.0383 64.7481 13.2202Z" fill="white"/>
<path d="M64.7481 13.2202C64.7481 14.2714 64.437 15.1081 63.8136 15.7328C63.1049 16.4754 62.1829 16.8467 61.0489 16.8467C59.9613 16.8467 59.0381 16.4704 58.2792 15.7165C57.5177 14.9638 57.1389 14.0293 57.1389 12.9154C57.1389 11.8002 57.5177 10.8669 58.2792 10.113C59.0381 9.3604 59.9613 8.98282 61.0489 8.98282C61.587 8.98282 62.1038 9.08819 62.5931 9.29893C63.0835 9.50967 63.4762 9.78941 63.7709 10.1394L63.1086 10.8017C62.6106 10.2071 61.9245 9.90857 61.0489 9.90857C60.2561 9.90857 59.5712 10.1871 58.9929 10.744C58.4146 11.3022 58.1261 12.0248 58.1261 12.9154C58.1261 13.8048 58.4146 14.5285 58.9929 15.0855C59.5712 15.6437 60.2561 15.9209 61.0489 15.9209C61.8893 15.9209 62.5893 15.6412 63.1513 15.0805C63.515 14.7154 63.7245 14.2087 63.781 13.5564H61.0489V12.652H64.6954C64.7306 12.8489 64.7481 13.0383 64.7481 13.2202Z" fill="white"/>
<path d="M70.53 10.0768H67.103V12.4627H70.1939V13.3671H67.103V15.753H70.53V16.6787H66.1359V9.15229H70.53V10.0768Z" fill="white"/>
<path d="M70.53 10.0768H67.103V12.4627H70.1939V13.3671H67.103V15.753H70.53V16.6787H66.1359V9.15229H70.53V10.0768Z" fill="white"/>
<path d="M74.6082 16.6782H73.6411V10.0763H71.5387V9.1518H76.7106V10.0763H74.6082V16.6782Z" fill="white"/>
<path d="M74.6082 16.6782H73.6411V10.0763H71.5387V9.1518H76.7106V10.0763H74.6082V16.6782Z" fill="white"/>
<path d="M80.4526 9.1518H81.4198V16.6782H80.4526V9.1518Z" fill="white"/>
<path d="M85.7091 16.6782H84.7419V10.0763H82.6395V9.1518H87.8114V10.0763H85.7091V16.6782Z" fill="white"/>
<path d="M85.7091 16.6782H84.7419V10.0763H82.6395V9.1518H87.8114V10.0763H85.7091V16.6782Z" fill="white"/>
<path d="M92.7976 15.0755C93.3546 15.6399 94.0357 15.9209 94.8423 15.9209C95.6489 15.9209 96.33 15.6399 96.887 15.0755C97.4439 14.511 97.7237 13.791 97.7237 12.9154C97.7237 12.0398 97.4439 11.3185 96.887 10.7553C96.33 10.1908 95.6489 9.90857 94.8423 9.90857C94.0357 9.90857 93.3546 10.1908 92.7976 10.7553C92.2419 11.3185 91.9622 12.0398 91.9622 12.9154C91.9622 13.791 92.2419 14.511 92.7976 15.0755ZM97.602 15.7052C96.8619 16.4666 95.9424 16.8467 94.8423 16.8467C93.7422 16.8467 92.8227 16.4666 92.0839 15.7052C91.3438 14.945 90.975 14.0155 90.975 12.9154C90.975 11.8153 91.3438 10.8845 92.0839 10.1243C92.8227 9.36416 93.7422 8.98282 94.8423 8.98282C95.9361 8.98282 96.8531 9.36542 97.597 10.1293C98.3396 10.8933 98.7109 11.8215 98.7109 12.9154C98.7109 14.0155 98.3408 14.945 97.602 15.7052Z" fill="white"/>
<path d="M92.7976 15.0755C93.3546 15.6399 94.0357 15.9209 94.8423 15.9209C95.6489 15.9209 96.33 15.6399 96.887 15.0755C97.4439 14.511 97.7237 13.791 97.7237 12.9154C97.7237 12.0398 97.4439 11.3185 96.887 10.7553C96.33 10.1908 95.6489 9.90857 94.8423 9.90857C94.0357 9.90857 93.3546 10.1908 92.7976 10.7553C92.2419 11.3185 91.9622 12.0398 91.9622 12.9154C91.9622 13.791 92.2419 14.511 92.7976 15.0755ZM97.602 15.7052C96.8619 16.4666 95.9424 16.8467 94.8423 16.8467C93.7422 16.8467 92.8227 16.4666 92.0839 15.7052C91.3438 14.945 90.975 14.0155 90.975 12.9154C90.975 11.8153 91.3438 10.8845 92.0839 10.1243C92.8227 9.36416 93.7422 8.98282 94.8423 8.98282C95.9361 8.98282 96.8531 9.36542 97.597 10.1293C98.3396 10.8933 98.7109 11.8215 98.7109 12.9154C98.7109 14.0155 98.3408 14.945 97.602 15.7052Z" fill="white"/>
<path d="M100.068 16.6782V9.1518H101.245L104.902 15.0061H104.945L104.902 13.556V9.1518H105.871V16.6782H104.861L101.034 10.5392H100.992L101.034 11.9905V16.6782H100.068Z" fill="white"/>
<path d="M100.068 16.6782V9.1518H101.245L104.902 15.0061H104.945L104.902 13.556V9.1518H105.871V16.6782H104.861L101.034 10.5392H100.992L101.034 11.9905V16.6782H100.068Z" fill="white"/>
<path d="M139.407 38.0033H141.748V22.322H139.407V38.0033ZM160.49 27.9705L157.807 34.7694H157.726L154.942 27.9705H152.42L156.596 37.4727L154.217 42.7587H156.656L163.093 27.9705H160.49ZM147.216 36.222C146.448 36.222 145.379 35.8394 145.379 34.8898C145.379 33.6806 146.71 33.2165 147.861 33.2165C148.889 33.2165 149.375 33.4385 149.999 33.7408C149.817 35.1934 148.567 36.222 147.216 36.222ZM147.498 27.6281C145.803 27.6281 144.047 28.3745 143.322 30.029L145.399 30.8958C145.843 30.029 146.67 29.7455 147.538 29.7455C148.749 29.7455 149.979 30.4718 149.999 31.7639V31.9244C149.575 31.6823 148.668 31.3198 147.558 31.3198C145.319 31.3198 143.039 32.5504 143.039 34.8497C143.039 36.9483 144.875 38.3006 146.932 38.3006C148.507 38.3006 149.375 37.5943 149.919 36.7664H149.999V37.9769H152.259V31.9646C152.259 29.181 150.181 27.6281 147.498 27.6281ZM133.032 29.8797H129.703V24.5046H133.032C134.782 24.5046 135.776 25.9535 135.776 27.1916C135.776 28.4071 134.782 29.8797 133.032 29.8797ZM132.972 22.322H127.364V38.0033H129.703V32.0624H132.972C135.566 32.0624 138.116 30.1833 138.116 27.1916C138.116 24.1998 135.566 22.322 132.972 22.322ZM102.388 36.2245C100.772 36.2245 99.418 34.871 99.418 33.012C99.418 31.1329 100.772 29.7581 102.388 29.7581C103.985 29.7581 105.237 31.1329 105.237 33.012C105.237 34.871 103.985 36.2245 102.388 36.2245ZM105.077 28.8486H104.995C104.47 28.2227 103.46 27.6569 102.187 27.6569C99.5184 27.6569 97.0736 30.0002 97.0736 33.012C97.0736 36.0025 99.5184 38.3269 102.187 38.3269C103.46 38.3269 104.47 37.7612 104.995 37.1139H105.077V37.8828C105.077 39.9238 103.985 41.0151 102.227 41.0151C100.792 41.0151 99.9022 39.984 99.5385 39.1147L97.4975 39.9639C98.0834 41.3789 99.6401 43.1162 102.227 43.1162C104.975 43.1162 107.299 41.4993 107.299 37.5592V27.9793H105.077V28.8486ZM108.916 38.0033H111.261V22.3207H108.916V38.0033ZM114.715 32.8301C114.655 30.7691 116.312 29.7179 117.504 29.7179C118.435 29.7179 119.223 30.1821 119.485 30.8494L114.715 32.8301ZM121.991 31.0514C121.547 29.8597 120.192 27.6569 117.424 27.6569C114.675 27.6569 112.392 29.8183 112.392 32.9919C112.392 35.9824 114.655 38.3269 117.686 38.3269C120.132 38.3269 121.547 36.8316 122.133 35.9623L120.314 34.7493C119.708 35.6387 118.879 36.2245 117.686 36.2245C116.494 36.2245 115.645 35.6789 115.099 34.6088L122.233 31.6572L121.991 31.0514ZM65.1565 29.2939V31.5569H70.5718C70.41 32.8301 69.986 33.7596 69.34 34.4056C68.5509 35.1947 67.3179 36.064 65.1565 36.064C61.8211 36.064 59.2144 33.3758 59.2144 30.0416C59.2144 26.7061 61.8211 24.0192 65.1565 24.0192C66.9553 24.0192 68.2687 24.7267 69.2384 25.6361L70.8352 24.0392C69.4805 22.746 67.6829 21.755 65.1565 21.755C60.5892 21.755 56.7495 25.4743 56.7495 30.0416C56.7495 34.6088 60.5892 38.3269 65.1565 38.3269C67.6214 38.3269 69.4805 37.5178 70.9356 36.0025C72.4321 34.5072 72.8962 32.4061 72.8962 30.7077C72.8962 30.1821 72.8561 29.6979 72.7745 29.2939H65.1565ZM79.0541 36.2245C77.4371 36.2245 76.0422 34.8911 76.0422 32.9919C76.0422 31.0714 77.4371 29.7581 79.0541 29.7581C80.6697 29.7581 82.0646 31.0714 82.0646 32.9919C82.0646 34.8911 80.6697 36.2245 79.0541 36.2245ZM79.0541 27.6569C76.1024 27.6569 73.6978 29.8998 73.6978 32.9919C73.6978 36.064 76.1024 38.3269 79.0541 38.3269C82.0044 38.3269 84.4091 36.064 84.4091 32.9919C84.4091 29.8998 82.0044 27.6569 79.0541 27.6569ZM90.7363 36.2245C89.1194 36.2245 87.7245 34.8911 87.7245 32.9919C87.7245 31.0714 89.1194 29.7581 90.7363 29.7581C92.3532 29.7581 93.7469 31.0714 93.7469 32.9919C93.7469 34.8911 92.3532 36.2245 90.7363 36.2245ZM90.7363 27.6569C87.786 27.6569 85.3813 29.8998 85.3813 32.9919C85.3813 36.064 87.786 38.3269 90.7363 38.3269C93.6867 38.3269 96.0914 36.064 96.0914 32.9919C96.0914 29.8998 93.6867 27.6569 90.7363 27.6569Z" fill="white"/>
</svg>
