<svg width="38" height="35" viewBox="0 0 38 35" fill="none" xmlns="http://www.w3.org/2000/svg">
<path d="M18.3082 34.826L18.2946 34.8202L18.2517 34.7969C18.0009 34.6592 17.7521 34.5178 17.5053 34.373C14.539 32.6141 11.7669 30.548 9.23497 28.2089C4.75097 24.0341 0 17.8389 0 10.2087C0 4.51525 4.80164 0.000137964 10.5971 0.000137964C12.2082 -0.00773612 13.8004 0.34692 15.2552 1.03773C16.71 1.72854 17.99 2.73773 19 3.99024C20.0102 2.73747 21.2905 1.72813 22.7457 1.03731C24.2008 0.346486 25.7934 -0.00802892 27.4048 0.000137964C33.1984 0.000137964 38 4.51525 38 10.2087C38 17.8409 33.249 24.036 28.765 28.207C26.2332 30.5461 23.461 32.6123 20.4947 34.371C20.248 34.5165 19.9991 34.6585 19.7483 34.7969L19.7054 34.8202L19.6918 34.828L19.6859 34.8299C19.4746 34.9416 19.2391 35 19 35C18.7609 35 18.5254 34.9416 18.3141 34.8299L18.3082 34.826Z" fill="#F5374D"/>
</svg>
