<svg width="255" height="262" viewBox="0 0 255 262" fill="none" xmlns="http://www.w3.org/2000/svg">
<path d="M176.982 185.16C213.313 182.053 225.769 141.656 210.199 140.62C190.476 140.102 168.159 160.3 176.982 185.16ZM229.402 7.51534C169.197 -14.2371 113.663 37.0366 128.195 91.4177C128.714 94.5252 129.233 97.1148 130.271 97.1148L135.98 95.0431C217.465 63.4502 199.818 69.6652 219.022 61.3786C247.048 47.9128 263.137 18.9095 229.402 7.51534ZM125.081 98.1506C108.473 42.7336 161.412 -17.8625 229.921 4.92577C259.504 14.7662 265.213 47.9128 234.592 66.5577C229.921 69.1473 145.842 107.473 134.423 112.134C132.866 112.134 141.17 129.743 140.132 130.779L136.499 132.851C133.904 125.082 131.828 115.76 129.752 112.652L122.486 115.242C107.435 119.903 69.5474 137.512 41.5209 159.783C12.4565 182.571 -5.70878 211.056 25.4317 235.916C75.7755 277.867 184.767 263.884 174.906 195.001C157.779 196.555 151.551 199.144 120.929 200.698C119.372 200.698 117.815 198.108 124.043 190.858C138.056 189.304 173.868 186.714 173.349 184.643C165.564 152.014 195.666 138.548 209.161 138.548C219.541 138.548 226.807 146.835 221.617 164.444C214.351 185.16 195.666 188.786 178.539 193.965C182.172 262.33 106.397 266.991 69.5474 259.222C14.0135 246.274 -31.1402 201.734 27.5077 151.496C55.5342 126.636 91.3457 114.206 125.081 98.1506Z" fill="#141414" fill-opacity="0.1"/>
</svg>
