<svg width="11" height="18" viewBox="0 0 11 18" fill="none" xmlns="http://www.w3.org/2000/svg">
<path d="M3.4638 11.0477C3.4638 10.2673 3.62639 9.59258 3.95156 9.02353C4.29299 8.45448 4.8783 7.80413 5.70749 7.0725C6.19525 6.63351 6.54481 6.25144 6.75617 5.92626C6.98379 5.60109 7.0976 5.22714 7.0976 4.80442C7.0976 4.3004 6.91062 3.87768 6.53668 3.53625C6.16273 3.17856 5.66684 2.99971 5.04901 2.99971C4.39867 2.99971 3.86213 3.19482 3.43941 3.58502C2.77967 4.19198 1.84803 4.70175 1.02073 4.35644C0.301903 4.05641 -0.0951355 3.24547 0.310054 2.58023C0.630612 2.05393 1.04777 1.57593 1.56154 1.14623C2.47202 0.382077 3.61013 0 4.97585 0C6.00014 0 6.91062 0.203233 7.7073 0.609699C8.50397 1.01616 9.1218 1.57709 9.56078 2.29246C10.016 2.99159 10.2436 3.772 10.2436 4.6337C10.2436 5.47915 10.0648 6.20266 9.70711 6.80423C9.34942 7.4058 8.82101 8.03988 8.12189 8.70649C7.5691 9.22676 7.18702 9.67387 6.97566 10.0478C6.78056 10.4218 6.683 10.8933 6.683 11.4623C6.683 11.6778 6.5083 11.8525 6.2928 11.8525H4.2686C3.82412 11.8525 3.4638 11.4922 3.4638 11.0477ZM5.04901 17.9983C4.4637 17.9983 3.95969 17.795 3.53696 17.3886C3.1305 16.9659 2.92727 16.4618 2.92727 15.8765C2.92727 15.2912 3.1305 14.7953 3.53696 14.3889C3.95969 13.9824 4.4637 13.7792 5.04901 13.7792C5.63432 13.7792 6.13021 13.9824 6.53668 14.3889C6.94314 14.7953 7.14637 15.2912 7.14637 15.8765C7.14637 16.4618 6.94314 16.9659 6.53668 17.3886C6.13021 17.795 5.63432 17.9983 5.04901 17.9983Z" fill="#5D72DF"/>
</svg>
