<svg width="90" height="35" viewBox="0 0 90 35" fill="none" xmlns="http://www.w3.org/2000/svg">
<g clip-path="url(#clip0_1_58)">
<path d="M0.399414 34.6003V10.2633H5.5948V12.0684C6.34213 10.9342 8.25643 9.83594 10.7902 9.83594C15.8976 9.83594 18.9789 13.7337 18.9789 19.0212C18.9789 24.4046 15.506 28.2664 10.5864 28.2664C8.31638 28.2664 6.61789 27.4677 5.79062 26.4973V34.6003H0.399414ZM9.68716 14.6922C7.59702 14.6922 5.71869 16.1099 5.71869 19.0492C5.71869 21.9885 7.59702 23.4422 9.68716 23.4422C11.7773 23.4422 13.6836 21.9885 13.6836 19.0492C13.6836 16.1099 11.8173 14.6922 9.68716 14.6922Z" fill="#002A5C"/>
<path d="M32.6952 15.5755C32.1368 15.4484 31.5653 15.3881 30.9927 15.3958C28.8306 15.3958 26.8804 16.6698 26.8804 20.1881V27.8718H21.4932V10.264H26.6885V12.6362C27.6117 10.6394 29.8417 10.0883 31.2605 10.0883C31.7392 10.0823 32.2165 10.1414 32.6792 10.264L32.6952 15.5755Z" fill="#002A5C"/>
<path d="M52.6569 19.0495C52.6569 24.5048 48.5765 28.4025 43.2972 28.4025C38.0179 28.4025 33.9375 24.5048 33.9375 19.0495C33.9375 13.5942 38.0498 9.73242 43.2972 9.73242C48.5445 9.73242 52.6569 13.5783 52.6569 19.0495ZM47.2657 19.0495C47.2657 16.0743 45.3514 14.6925 43.2972 14.6925C41.243 14.6925 39.3247 16.0743 39.3247 19.0495C39.3247 22.0248 41.275 23.4425 43.2972 23.4425C45.3194 23.4425 47.2657 22.0248 47.2657 19.0495Z" fill="#002A5C"/>
<path d="M62.0891 14.9044V27.8717H56.6979V14.9044H53.9004V10.2638H56.6979V8.74226C56.6979 4.70073 59.1437 1.95312 63.4359 1.95312C64.0615 1.95364 64.6831 2.05201 65.2783 2.24466V6.63763C64.9883 6.56597 64.688 6.54569 64.3911 6.57773C63.4359 6.61367 62.0891 7.00105 62.0891 8.94993V10.2638H66.769V14.9044H62.0891Z" fill="#002A5C"/>
<path d="M70.0178 27.8715V10.2637H75.405V27.8715H70.0178Z" fill="#002A5C"/>
<path d="M86.2315 10.2637H89.2088V14.9163H86.2315V21.5656C86.2315 23.0153 87.0108 23.4067 88.1817 23.4067C88.6598 23.3986 89.1355 23.3383 89.6005 23.227V27.6918C88.7169 28.0644 87.7608 28.2337 86.803 28.187C83.1502 28.187 80.9162 26.0265 80.9162 22.5201V14.9322H78.6582V10.2637C78.6582 10.2637 81.3958 10.5033 81.4157 7.39231V5.12793H86.2355L86.2315 10.2637Z" fill="#002A5C"/>
<path d="M72.7097 0.400403L68.9004 4.20703L72.7097 8.01366L76.5191 4.20703L72.7097 0.400403Z" fill="#EF373E"/>
</g>
<defs>
<clipPath id="clip0_1_58">
<rect width="90" height="35" fill="white"/>
</clipPath>
</defs>
</svg>
