<svg width="207" height="60" viewBox="0 0 207 60" fill="none" xmlns="http://www.w3.org/2000/svg">
<path d="M28.5453 1.45608L20.138 9.86342C19.3338 10.6676 19.3338 11.9714 20.138 12.7756L28.5453 21.183C29.3495 21.9871 30.6533 21.9871 31.4575 21.183L39.8649 12.7756C40.669 11.9714 40.669 10.6676 39.8649 9.86342L31.4575 1.45608C30.6533 0.651901 29.3495 0.651902 28.5453 1.45608Z" fill="#262E61"/>
<path d="M47.2244 20.1414L38.8171 28.5487C38.0129 29.3529 38.0129 30.6567 38.8171 31.4609L47.2244 39.8682C48.0286 40.6724 49.3324 40.6724 50.1366 39.8682L58.5439 31.4609C59.3481 30.6567 59.3481 29.3529 58.5439 28.5487L50.1366 20.1414C49.3324 19.3372 48.0286 19.3372 47.2244 20.1414Z" fill="#262E61"/>
<path d="M43.486 12.3182C43.8412 12.3182 44.1724 12.4574 44.422 12.707L47.2973 15.5823C47.5469 15.8319 47.6861 16.1631 47.6861 16.5183C47.6861 16.8735 47.5469 17.2047 47.2973 17.4543L39.8572 24.8944C39.6076 25.144 39.2764 25.2832 38.9211 25.2832C38.5659 25.2832 38.2347 25.144 37.9851 24.8944L35.1099 22.0192C34.8603 21.7696 34.7211 21.4384 34.7211 21.0832C34.7211 20.728 34.8603 20.3967 35.1099 20.1471L42.55 12.707C42.7996 12.4574 43.1308 12.3182 43.486 12.3182ZM43.486 11.5742C42.958 11.5742 42.43 11.7758 42.0268 12.179L34.5867 19.6191C33.7803 20.4256 33.7803 21.736 34.5867 22.5424L37.4619 25.4176C37.8651 25.8208 38.3931 26.0224 38.9211 26.0224C39.4492 26.0224 39.9772 25.8208 40.3804 25.4176L47.8205 17.9775C48.6269 17.1711 48.6269 15.8607 47.8205 15.0543L44.9452 12.179C44.542 11.7758 44.014 11.5742 43.486 11.5742Z" fill="#262E61"/>
<path d="M28.5425 38.817L20.1352 47.2244C19.331 48.0286 19.331 49.3324 20.1352 50.1366L28.5425 58.5439C29.3467 59.3481 30.6505 59.3481 31.4547 58.5439L39.862 50.1366C40.6662 49.3324 40.6662 48.0286 39.862 47.2244L31.4547 38.817C30.6505 38.0129 29.3467 38.0129 28.5425 38.817Z" fill="#262E61"/>
<path d="M9.86344 20.1385L1.4561 28.5459C0.651916 29.3501 0.651917 30.6539 1.4561 31.4581L9.86344 39.8654C10.6676 40.6696 11.9715 40.6696 12.7756 39.8654L21.183 31.4581C21.9872 30.6539 21.9872 29.3501 21.183 28.5459L12.7756 20.1385C11.9714 19.3344 10.6676 19.3344 9.86344 20.1385Z" fill="#262E61"/>
<path d="M21.0745 34.7298C21.4297 34.7298 21.7609 34.869 22.0105 35.1186L24.8857 37.9938C25.1353 38.2434 25.2745 38.5746 25.2745 38.9298C25.2745 39.285 25.1353 39.6162 24.8857 39.8658L17.4456 47.3059C17.196 47.5556 16.8648 47.6948 16.5096 47.6948C16.1544 47.6948 15.8232 47.5556 15.5736 47.3059L12.6983 44.4307C12.4487 44.1811 12.3095 43.8499 12.3095 43.4947C12.3095 43.1395 12.4487 42.8083 12.6983 42.5587L20.1384 35.1186C20.388 34.869 20.7192 34.7298 21.0745 34.7298ZM21.0745 33.9857C20.5464 33.9857 20.0184 34.1874 19.6152 34.5906L12.1751 42.0307C11.3687 42.8371 11.3687 44.1475 12.1751 44.9539L15.0504 47.8292C15.4536 48.2324 15.9816 48.434 16.5096 48.434C17.0376 48.434 17.5656 48.2324 17.9688 47.8292L25.4089 40.389C26.2153 39.5826 26.2153 38.2722 25.4089 37.4658L22.5337 34.5906C22.1305 34.1874 21.6025 33.9857 21.0745 33.9857Z" fill="#262E61"/>
<path d="M16.5145 12.3182C16.8697 12.3182 17.2009 12.4574 17.4505 12.707L24.8906 20.1471C25.1402 20.3967 25.2794 20.728 25.2794 21.0832C25.2794 21.4384 25.1402 21.7696 24.8906 22.0192L22.0154 24.8944C21.7657 25.144 21.4345 25.2832 21.0793 25.2832C20.7241 25.2832 20.3929 25.144 20.1433 24.8944L12.7032 17.4543C12.4536 17.2047 12.3144 16.8735 12.3144 16.5183C12.3144 16.1631 12.4536 15.8319 12.7032 15.5823L15.5785 12.707C15.8281 12.4574 16.1593 12.3182 16.5145 12.3182ZM16.5145 11.5742C15.9865 11.5742 15.4585 11.7758 15.0552 12.179L12.18 15.0543C11.3736 15.8607 11.3736 17.1711 12.18 17.9775L19.6201 25.4176C20.0233 25.8208 20.5513 26.0224 21.0793 26.0224C21.6073 26.0224 22.1354 25.8208 22.5386 25.4176L25.4138 22.5424C26.2202 21.736 26.2202 20.4256 25.4138 19.6191L17.9737 12.179C17.5705 11.7758 17.0425 11.5742 16.5145 11.5742Z" fill="#262E61"/>
<path d="M38.9211 34.7298C39.2764 34.7298 39.6076 34.869 39.8572 35.1186L47.2973 42.5587C47.5469 42.8083 47.6861 43.1395 47.6861 43.4947C47.6861 43.8499 47.5469 44.1811 47.2973 44.4307L44.422 47.3059C44.1724 47.5556 43.8412 47.6948 43.486 47.6948C43.1308 47.6948 42.7996 47.5556 42.55 47.3059L35.1099 39.8658C34.8603 39.6162 34.7211 39.285 34.7211 38.9298C34.7211 38.5746 34.8603 38.2434 35.1099 37.9938L37.9851 35.1186C38.2347 34.869 38.5659 34.7298 38.9211 34.7298ZM38.9211 33.9857C38.3931 33.9857 37.8651 34.1874 37.4619 34.5906L34.5867 37.4658C33.7803 38.2722 33.7803 39.5826 34.5867 40.389L42.0268 47.8292C42.43 48.2324 42.958 48.434 43.486 48.434C44.014 48.434 44.542 48.2324 44.9452 47.8292L47.8205 44.9539C48.6269 44.1475 48.6269 42.8371 47.8205 42.0307L40.3804 34.5906C39.9772 34.1874 39.4492 33.9857 38.9211 33.9857Z" fill="#262E61"/>
<path d="M77.5059 8.09897H84.1684L95.7318 38.8818H89.3237L86.7461 31.5281H74.9667L72.389 38.8818H65.981L77.5011 8.09897H77.5059ZM84.8596 26.2L82.1524 18.4623L81.034 14.7663H80.6884L79.57 18.4623L76.8195 26.2H84.8596Z" fill="#262E61"/>
<path d="M99.9078 8.09897H119.425V13.5998H105.711V21.0832H118.052V26.584H105.711V38.8818H99.9078V8.09897Z" fill="#262E61"/>
<path d="M124.542 8.09897H134.948C138.159 8.09897 140.953 8.74218 143.334 10.0334C145.715 11.3246 147.548 13.1294 148.835 15.4527C150.126 17.7759 150.769 20.4544 150.769 23.4928C150.769 26.5312 150.126 29.2097 148.835 31.5329C147.543 33.8562 145.71 35.661 143.334 36.9522C140.953 38.2434 138.159 38.8866 134.948 38.8866H124.542V8.09897ZM134.689 33.3809C138.015 33.3809 140.55 32.4977 142.297 30.7361C144.044 28.9745 144.918 26.56 144.918 23.4928C144.918 20.4256 144.044 18.0111 142.297 16.2495C140.55 14.4879 138.01 13.6047 134.689 13.6047H130.345V33.3809H134.689Z" fill="#262E61"/>
<path d="M163.624 8.09897H170.286L181.85 38.8818H175.442L172.864 31.5281H161.084L158.507 38.8818H152.099L163.619 8.09897H163.624ZM170.977 26.2L168.27 18.4623L167.152 14.7663H166.806L165.688 18.4623L162.937 26.2H170.977Z" fill="#262E61"/>
<path d="M188.172 37.2882C186.107 35.7714 184.658 33.621 183.827 30.8417L189.29 28.6913C189.722 30.3233 190.452 31.6289 191.484 32.6033C192.516 33.5778 193.807 34.0626 195.352 34.0626C196.644 34.0626 197.743 33.741 198.664 33.0977C199.581 32.4545 200.042 31.5569 200.042 30.4097C200.042 29.2625 199.605 28.3265 198.732 27.5921C197.858 26.8625 196.303 26.08 194.066 25.2496L192.175 24.5632C190.197 23.8768 188.508 22.8208 187.101 21.4048C185.695 19.984 184.994 18.2031 184.994 16.0527C184.994 14.4495 185.407 12.9855 186.242 11.6654C187.072 10.3454 188.248 9.3086 189.765 8.55018C191.282 7.79177 193.005 7.41257 194.925 7.41257C197.704 7.41257 199.898 8.06538 201.501 9.371C203.105 10.6766 204.209 12.203 204.813 13.9503L199.696 16.1007C199.38 15.1551 198.828 14.3583 198.04 13.7151C197.253 13.0719 196.24 12.7454 195.012 12.7454C193.783 12.7454 192.712 13.0383 191.896 13.6287C191.08 14.2143 190.672 14.9823 190.672 15.9279C190.672 16.8735 191.061 17.6271 191.834 18.2703C192.607 18.9135 193.884 19.5375 195.66 20.1424L197.594 20.7856C200.258 21.7024 202.303 22.912 203.719 24.4192C205.14 25.9216 205.845 27.8945 205.845 30.3329C205.845 32.3393 205.332 34.0386 204.3 35.4258C203.268 36.8178 201.943 37.8546 200.32 38.541C198.703 39.2274 197.032 39.573 195.314 39.573C192.621 39.573 190.24 38.8146 188.176 37.293L188.172 37.2882Z" fill="#262E61"/>
<path d="M68.021 44.6179H69.0962L71.3618 50.642H70.3202L69.7826 49.1012H67.349L66.8017 50.642H65.7601L68.0258 44.6179H68.021ZM69.461 48.2276L68.8226 46.4371L68.5874 45.7363H68.5346L68.2994 46.4371L67.661 48.2276H69.461Z" fill="#262E61"/>
<path d="M72.029 46.3507H72.9122V46.9123H72.9554C73.085 46.7059 73.2674 46.5379 73.5026 46.4083C73.7378 46.2787 73.9922 46.2163 74.261 46.2163C74.5682 46.2163 74.837 46.2883 75.0675 46.4323C75.2979 46.5763 75.4611 46.7635 75.5619 46.9987C75.7059 46.7635 75.9027 46.5715 76.1475 46.4323C76.3923 46.2883 76.6803 46.2163 77.0115 46.2163C77.5059 46.2163 77.8803 46.3651 78.1347 46.6675C78.3891 46.9699 78.5187 47.3779 78.5187 47.8915V50.642H77.5923V48.0499C77.5923 47.3971 77.3139 47.0755 76.7571 47.0755C76.4595 47.0755 76.2147 47.1955 76.0227 47.4355C75.8307 47.6755 75.7347 47.9731 75.7347 48.3283V50.642H74.8082V48.0499C74.8082 47.3971 74.5202 47.0755 73.949 47.0755C73.6562 47.0755 73.4162 47.1955 73.229 47.4355C73.0418 47.6755 72.9458 47.9731 72.9458 48.3283V50.642H72.0194V46.3507H72.029Z" fill="#262E61"/>
<path d="M80.4003 50.4836C80.0643 50.2868 79.8051 50.018 79.6179 49.6724C79.4307 49.3268 79.3347 48.9379 79.3347 48.5059C79.3347 48.0739 79.4259 47.7139 79.6083 47.3635C79.7907 47.0131 80.0451 46.7347 80.3715 46.5283C80.6979 46.3219 81.0675 46.2163 81.4803 46.2163C81.8932 46.2163 82.2868 46.3123 82.6036 46.5043C82.9204 46.6963 83.1604 46.9555 83.3284 47.2867C83.4916 47.6179 83.578 47.9923 83.578 48.4051C83.578 48.4819 83.5684 48.5827 83.554 48.6979H80.2611C80.2947 49.0964 80.4387 49.4036 80.6883 49.6196C80.9379 49.8356 81.2259 49.946 81.5572 49.946C81.8212 49.946 82.0516 49.8836 82.2436 49.7636C82.4356 49.6436 82.594 49.4804 82.7092 49.2692L83.4916 49.6388C83.29 49.994 83.026 50.2724 82.6996 50.474C82.3732 50.6756 81.9844 50.7764 81.5284 50.7764C81.1059 50.7764 80.7315 50.6804 80.3955 50.4836H80.4003ZM82.6324 47.9923C82.6228 47.8387 82.5748 47.6899 82.4884 47.5411C82.402 47.3923 82.2772 47.2675 82.1044 47.1667C81.9316 47.0659 81.7252 47.0131 81.4756 47.0131C81.1779 47.0131 80.9283 47.0995 80.7219 47.2771C80.5155 47.4547 80.3763 47.6899 80.2947 47.9875H82.6276L82.6324 47.9923Z" fill="#262E61"/>
<path d="M84.418 46.3507H85.3012V46.9795H85.3444C85.4404 46.7587 85.6036 46.5811 85.8388 46.4371C86.074 46.2931 86.3236 46.2211 86.5876 46.2211C86.794 46.2211 86.9668 46.2499 87.1108 46.3027V47.2627C86.866 47.1715 86.6404 47.1283 86.4436 47.1283C86.2324 47.1283 86.0404 47.1859 85.8772 47.2963C85.714 47.4067 85.5796 47.5604 85.4836 47.7476C85.3876 47.9348 85.3396 48.1412 85.3396 48.3668V50.6372H84.4132V46.3459L84.418 46.3507Z" fill="#262E61"/>
<path d="M87.9076 45.5491C87.7876 45.4291 87.7252 45.2803 87.7252 45.1075C87.7252 44.9347 87.7876 44.7859 87.9076 44.6659C88.0276 44.5459 88.1764 44.4835 88.3492 44.4835C88.522 44.4835 88.6708 44.5459 88.7908 44.6659C88.9108 44.7859 88.9732 44.9347 88.9732 45.1075C88.9732 45.2803 88.9108 45.4291 88.7908 45.5491C88.6708 45.6691 88.522 45.7315 88.3492 45.7315C88.1764 45.7315 88.0276 45.6691 87.9076 45.5491ZM87.8884 46.3507H88.8148V50.642H87.8884V46.3507Z" fill="#262E61"/>
<path d="M90.7589 50.4836C90.4181 50.2868 90.1541 50.018 89.9669 49.6724C89.7797 49.3268 89.6837 48.9379 89.6837 48.4963C89.6837 48.0547 89.7797 47.6659 89.9669 47.3203C90.1541 46.9747 90.4181 46.7059 90.7589 46.5091C91.0997 46.3123 91.4789 46.2163 91.9061 46.2163C92.3765 46.2163 92.7797 46.3219 93.1109 46.5379C93.4421 46.7539 93.6773 47.0419 93.8165 47.4067L92.9669 47.7619C92.7749 47.3059 92.4149 47.0803 91.8821 47.0803C91.6517 47.0803 91.4405 47.1379 91.2485 47.2579C91.0565 47.3779 90.8981 47.5411 90.7877 47.7571C90.6725 47.9731 90.6149 48.2227 90.6149 48.5011C90.6149 48.7795 90.6725 49.034 90.7877 49.25C90.9029 49.4708 91.0565 49.6388 91.2485 49.754C91.4405 49.874 91.6517 49.9316 91.8821 49.9316C92.1509 49.9316 92.3813 49.874 92.5781 49.7492C92.7701 49.6292 92.9189 49.4564 93.0197 49.2308L93.8549 49.5908C93.6917 49.9556 93.4469 50.2436 93.1157 50.4596C92.7845 50.6756 92.3813 50.7812 91.9109 50.7812C91.4837 50.7812 91.0997 50.6852 90.7637 50.4884L90.7589 50.4836Z" fill="#262E61"/>
<path d="M95.1221 50.5988C94.8821 50.4788 94.6949 50.306 94.5605 50.0852C94.4261 49.8644 94.3589 49.61 94.3589 49.3316C94.3589 48.89 94.5269 48.5396 94.8581 48.2804C95.1941 48.0212 95.6165 47.8916 96.1253 47.8916C96.3797 47.8916 96.6053 47.9156 96.8069 47.9636C97.0085 48.0116 97.1669 48.0644 97.2869 48.1172V47.8964C97.2869 47.6324 97.1909 47.4164 96.9941 47.2532C96.7973 47.09 96.5429 47.0036 96.2357 47.0036C96.0149 47.0036 95.8085 47.0516 95.6165 47.1476C95.4245 47.2436 95.2661 47.3732 95.1509 47.5412L94.5029 47.0468C94.6949 46.7828 94.9397 46.5764 95.2421 46.4324C95.5445 46.2883 95.8805 46.2115 96.2501 46.2115C96.8741 46.2115 97.3541 46.3651 97.6901 46.6724C98.0261 46.9796 98.1941 47.4068 98.1941 47.9636V50.642H97.2869V50.1284H97.2437C97.1189 50.3156 96.9461 50.4692 96.7205 50.5892C96.4949 50.714 96.2357 50.7764 95.9477 50.7764C95.6405 50.7764 95.3621 50.714 95.1221 50.594V50.5988ZM96.7109 49.8548C96.8885 49.7492 97.0325 49.6052 97.1333 49.4276C97.2341 49.25 97.2869 49.0532 97.2869 48.8468C97.1573 48.7748 97.0085 48.7172 96.8357 48.6692C96.6629 48.626 96.4853 48.602 96.3029 48.602C95.9573 48.602 95.6981 48.6692 95.5349 48.8084C95.3717 48.9476 95.2901 49.1252 95.2901 49.3412C95.2901 49.538 95.3669 49.7012 95.5157 49.826C95.6645 49.9508 95.8613 50.0132 96.1061 50.0132C96.3317 50.0132 96.5333 49.9604 96.7109 49.8548Z" fill="#262E61"/>
<path d="M99.1014 44.6179H99.951V46.5187H99.1014V44.6179Z" fill="#262E61"/>
<path d="M101.285 50.4548C100.973 50.2388 100.748 49.9604 100.618 49.6244L101.444 49.2644C101.545 49.49 101.689 49.658 101.871 49.778C102.054 49.898 102.265 49.9556 102.5 49.9556C102.735 49.9556 102.922 49.9172 103.081 49.8356C103.239 49.754 103.316 49.634 103.316 49.4708C103.316 49.3076 103.249 49.1924 103.114 49.1012C102.98 49.01 102.774 48.9332 102.49 48.866L101.977 48.7412C101.636 48.6548 101.353 48.5108 101.127 48.2948C100.901 48.0836 100.791 47.8147 100.791 47.4883C100.791 47.2339 100.863 47.0131 101.012 46.8211C101.161 46.6291 101.362 46.4851 101.612 46.3795C101.866 46.2739 102.14 46.2259 102.438 46.2259C102.836 46.2259 103.186 46.3075 103.489 46.4659C103.791 46.6243 104.012 46.8595 104.146 47.1619L103.34 47.5171C103.177 47.1859 102.879 47.0179 102.447 47.0179C102.241 47.0179 102.068 47.0611 101.924 47.1427C101.785 47.2291 101.713 47.3347 101.713 47.4691C101.713 47.6035 101.765 47.7043 101.871 47.7859C101.977 47.8675 102.135 47.9347 102.342 47.9923L102.97 48.1508C103.393 48.2564 103.71 48.4196 103.926 48.6356C104.142 48.8516 104.247 49.1156 104.247 49.4324C104.247 49.7012 104.17 49.9412 104.017 50.1428C103.863 50.3492 103.652 50.5076 103.383 50.618C103.114 50.7284 102.817 50.786 102.49 50.786C101.996 50.786 101.593 50.6804 101.281 50.4644L101.285 50.4548Z" fill="#262E61"/>
<path d="M107.175 44.6179H110.838V45.5203H108.121V47.2532H110.569V48.146H108.121V50.6468H107.18V44.6227L107.175 44.6179Z" fill="#262E61"/>
<path d="M111.687 45.5491C111.567 45.4291 111.505 45.2803 111.505 45.1075C111.505 44.9347 111.567 44.7859 111.687 44.6659C111.807 44.5459 111.956 44.4835 112.129 44.4835C112.302 44.4835 112.45 44.5459 112.57 44.6659C112.69 44.7859 112.753 44.9347 112.753 45.1075C112.753 45.2803 112.69 45.4291 112.57 45.5491C112.45 45.6691 112.302 45.7315 112.129 45.7315C111.956 45.7315 111.807 45.6691 111.687 45.5491ZM111.668 46.3507H112.594V50.642H111.668V46.3507Z" fill="#262E61"/>
<path d="M113.746 46.3507H114.63V46.9795H114.673C114.769 46.7587 114.932 46.5811 115.167 46.4371C115.402 46.2931 115.652 46.2211 115.916 46.2211C116.122 46.2211 116.295 46.2499 116.439 46.3027V47.2627C116.194 47.1715 115.969 47.1283 115.772 47.1283C115.561 47.1283 115.369 47.1859 115.206 47.2963C115.042 47.4067 114.908 47.5604 114.812 47.7476C114.716 47.9348 114.668 48.1412 114.668 48.3668V50.6372H113.742V46.3459L113.746 46.3507Z" fill="#262E61"/>
<path d="M117.332 50.4548C117.02 50.2388 116.794 49.9604 116.665 49.6244L117.49 49.2644C117.591 49.49 117.735 49.658 117.918 49.778C118.1 49.898 118.311 49.9556 118.547 49.9556C118.782 49.9556 118.969 49.9172 119.127 49.8356C119.286 49.754 119.363 49.634 119.363 49.4708C119.363 49.3076 119.295 49.1924 119.161 49.1012C119.027 49.01 118.82 48.9332 118.537 48.866L118.023 48.7412C117.683 48.6548 117.399 48.5108 117.174 48.2948C116.948 48.0836 116.838 47.8147 116.838 47.4883C116.838 47.2339 116.91 47.0131 117.058 46.8211C117.207 46.6291 117.409 46.4851 117.659 46.3795C117.913 46.2739 118.187 46.2259 118.484 46.2259C118.883 46.2259 119.233 46.3075 119.535 46.4659C119.838 46.6243 120.059 46.8595 120.193 47.1619L119.387 47.5171C119.223 47.1859 118.926 47.0179 118.494 47.0179C118.287 47.0179 118.115 47.0611 117.971 47.1427C117.831 47.2291 117.759 47.3347 117.759 47.4691C117.759 47.6035 117.812 47.7043 117.918 47.7859C118.023 47.8675 118.182 47.9347 118.388 47.9923L119.017 48.1508C119.439 48.2564 119.756 48.4196 119.972 48.6356C120.188 48.8516 120.294 49.1156 120.294 49.4324C120.294 49.7012 120.217 49.9412 120.063 50.1428C119.91 50.3492 119.699 50.5076 119.43 50.618C119.161 50.7284 118.863 50.786 118.537 50.786C118.043 50.786 117.639 50.6804 117.327 50.4644L117.332 50.4548Z" fill="#262E61"/>
<path d="M122.281 50.618C122.113 50.5556 121.974 50.474 121.868 50.3732C121.628 50.1332 121.508 49.802 121.508 49.3892V47.1667H120.759V46.3507H121.508V45.1411H122.435V46.3507H123.476V47.1667H122.435V49.1876C122.435 49.418 122.478 49.5812 122.569 49.6772C122.655 49.7876 122.799 49.8452 123.006 49.8452C123.102 49.8452 123.183 49.8308 123.26 49.8068C123.332 49.7828 123.414 49.7396 123.495 49.6868V50.5892C123.308 50.6756 123.087 50.714 122.823 50.714C122.631 50.714 122.454 50.6852 122.286 50.6228L122.281 50.618Z" fill="#262E61"/>
<path d="M126.481 44.6179H128.411C129.035 44.6179 129.577 44.7427 130.043 44.9971C130.508 45.2515 130.868 45.6067 131.118 46.0627C131.367 46.5187 131.492 47.042 131.492 47.6324C131.492 48.2228 131.367 48.746 131.118 49.202C130.868 49.658 130.508 50.0132 130.043 50.2676C129.577 50.522 129.035 50.6468 128.411 50.6468H126.481V44.6227V44.6179ZM128.391 49.7444C129.063 49.7444 129.591 49.5572 129.971 49.1828C130.35 48.8084 130.537 48.29 130.537 47.6324C130.537 46.9748 130.35 46.4611 129.971 46.0819C129.591 45.7027 129.068 45.5155 128.391 45.5155H127.422V49.7396H128.391V49.7444Z" fill="#262E61"/>
<path d="M132.5 45.5491C132.38 45.4291 132.318 45.2803 132.318 45.1075C132.318 44.9347 132.38 44.7859 132.5 44.6659C132.62 44.5459 132.769 44.4835 132.942 44.4835C133.115 44.4835 133.264 44.5459 133.384 44.6659C133.504 44.7859 133.566 44.9347 133.566 45.1075C133.566 45.2803 133.504 45.4291 133.384 45.5491C133.264 45.6691 133.115 45.7315 132.942 45.7315C132.769 45.7315 132.62 45.6691 132.5 45.5491ZM132.481 46.3507H133.408V50.642H132.481V46.3507Z" fill="#262E61"/>
<path d="M135.145 52.2356C134.8 51.9956 134.569 51.7076 134.449 51.3764L135.318 51.0164C135.409 51.242 135.553 51.4196 135.75 51.5588C135.947 51.698 136.182 51.7652 136.451 51.7652C136.844 51.7652 137.152 51.65 137.372 51.4148C137.593 51.1844 137.704 50.8532 137.704 50.4356V50.042H137.651C137.512 50.2436 137.324 50.402 137.089 50.5172C136.854 50.6324 136.59 50.69 136.288 50.69C135.928 50.69 135.596 50.5988 135.284 50.4116C134.972 50.2244 134.732 49.9652 134.55 49.6244C134.368 49.2836 134.276 48.8947 134.276 48.4579C134.276 48.0211 134.368 47.6323 134.55 47.2915C134.732 46.9507 134.977 46.6867 135.284 46.4995C135.592 46.3123 135.928 46.2163 136.288 46.2163C136.585 46.2163 136.849 46.2739 137.089 46.3939C137.329 46.5139 137.512 46.6723 137.651 46.8739H137.704V46.3507H138.587V50.4068C138.587 50.8724 138.496 51.2708 138.318 51.5972C138.14 51.9236 137.886 52.1732 137.564 52.3412C137.243 52.5092 136.868 52.5956 136.451 52.5956C135.923 52.5956 135.486 52.4756 135.14 52.2356H135.145ZM137.084 49.682C137.276 49.5716 137.425 49.4132 137.54 49.202C137.651 48.9908 137.708 48.7411 137.708 48.4579C137.708 48.0211 137.588 47.6803 137.353 47.4355C137.113 47.1907 136.82 47.0707 136.465 47.0707C136.235 47.0707 136.024 47.1235 135.836 47.2339C135.644 47.3443 135.496 47.5027 135.38 47.7091C135.27 47.9155 135.212 48.1651 135.212 48.4579C135.212 48.7507 135.27 49.0004 135.38 49.2068C135.491 49.4132 135.644 49.5716 135.836 49.682C136.028 49.7924 136.24 49.8452 136.465 49.8452C136.691 49.8452 136.897 49.7924 137.089 49.682H137.084Z" fill="#262E61"/>
<path d="M139.763 45.5491C139.643 45.4291 139.58 45.2803 139.58 45.1075C139.58 44.9347 139.643 44.7859 139.763 44.6659C139.883 44.5459 140.032 44.4835 140.204 44.4835C140.377 44.4835 140.526 44.5459 140.646 44.6659C140.766 44.7859 140.828 44.9347 140.828 45.1075C140.828 45.2803 140.766 45.4291 140.646 45.5491C140.526 45.6691 140.377 45.7315 140.204 45.7315C140.032 45.7315 139.883 45.6691 139.763 45.5491ZM139.744 46.3507H140.67V50.642H139.744V46.3507Z" fill="#262E61"/>
<path d="M143.003 50.618C142.835 50.5556 142.696 50.474 142.59 50.3732C142.35 50.1332 142.23 49.802 142.23 49.3892V47.1667H141.481V46.3507H142.23V45.1411H143.156V46.3507H144.198V47.1667H143.156V49.1876C143.156 49.418 143.2 49.5812 143.291 49.6772C143.377 49.7876 143.521 49.8452 143.728 49.8452C143.824 49.8452 143.905 49.8308 143.982 49.8068C144.054 49.7828 144.136 49.7396 144.217 49.6868V50.5892C144.03 50.6756 143.809 50.714 143.545 50.714C143.353 50.714 143.176 50.6852 143.008 50.6228L143.003 50.618Z" fill="#262E61"/>
<path d="M145.518 50.5988C145.278 50.4788 145.091 50.306 144.956 50.0852C144.822 49.8644 144.755 49.61 144.755 49.3316C144.755 48.89 144.923 48.5396 145.254 48.2804C145.59 48.0212 146.013 47.8916 146.521 47.8916C146.776 47.8916 147.001 47.9156 147.203 47.9636C147.405 48.0116 147.563 48.0644 147.683 48.1172V47.8964C147.683 47.6324 147.587 47.4164 147.39 47.2532C147.193 47.09 146.939 47.0036 146.632 47.0036C146.411 47.0036 146.205 47.0516 146.013 47.1476C145.821 47.2436 145.662 47.3732 145.547 47.5412L144.899 47.0468C145.091 46.7828 145.336 46.5764 145.638 46.4324C145.94 46.2883 146.277 46.2115 146.646 46.2115C147.27 46.2115 147.75 46.3651 148.086 46.6724C148.422 46.9796 148.59 47.4068 148.59 47.9636V50.642H147.683V50.1284H147.64C147.515 50.3156 147.342 50.4692 147.117 50.5892C146.891 50.714 146.632 50.7764 146.344 50.7764C146.037 50.7764 145.758 50.714 145.518 50.594V50.5988ZM147.107 49.8548C147.285 49.7492 147.429 49.6052 147.529 49.4276C147.63 49.25 147.683 49.0532 147.683 48.8468C147.553 48.7748 147.405 48.7172 147.232 48.6692C147.059 48.626 146.881 48.602 146.699 48.602C146.353 48.602 146.094 48.6692 145.931 48.8084C145.768 48.9476 145.686 49.1252 145.686 49.3412C145.686 49.538 145.763 49.7012 145.912 49.826C146.061 49.9508 146.257 50.0132 146.502 50.0132C146.728 50.0132 146.929 49.9604 147.107 49.8548Z" fill="#262E61"/>
<path d="M149.598 44.6179H150.525V50.642H149.598V44.6179Z" fill="#262E61"/>
<path d="M155.176 44.6179H156.251L158.517 50.642H157.475L156.937 49.1012H154.504L153.957 50.642H152.915L155.181 44.6179H155.176ZM156.616 48.2276L155.977 46.4371L155.742 45.7363H155.689L155.454 46.4371L154.816 48.2276H156.616Z" fill="#262E61"/>
<path d="M159.539 50.4548C159.227 50.2388 159.002 49.9604 158.872 49.6244L159.698 49.2644C159.798 49.49 159.942 49.658 160.125 49.778C160.307 49.898 160.518 49.9556 160.754 49.9556C160.989 49.9556 161.176 49.9172 161.334 49.8356C161.493 49.754 161.57 49.634 161.57 49.4708C161.57 49.3076 161.502 49.1924 161.368 49.1012C161.234 49.01 161.027 48.9332 160.744 48.866L160.23 48.7412C159.89 48.6548 159.606 48.5108 159.381 48.2948C159.155 48.0836 159.045 47.8147 159.045 47.4883C159.045 47.2339 159.117 47.0131 159.266 46.8211C159.414 46.6291 159.616 46.4851 159.866 46.3795C160.12 46.2739 160.394 46.2259 160.691 46.2259C161.09 46.2259 161.44 46.3075 161.742 46.4659C162.045 46.6243 162.266 46.8595 162.4 47.1619L161.594 47.5171C161.43 47.1859 161.133 47.0179 160.701 47.0179C160.494 47.0179 160.322 47.0611 160.178 47.1427C160.038 47.2291 159.966 47.3347 159.966 47.4691C159.966 47.6035 160.019 47.7043 160.125 47.7859C160.23 47.8675 160.389 47.9347 160.595 47.9923L161.224 48.1508C161.646 48.2564 161.963 48.4196 162.179 48.6356C162.395 48.8516 162.501 49.1156 162.501 49.4324C162.501 49.7012 162.424 49.9412 162.27 50.1428C162.117 50.3492 161.906 50.5076 161.637 50.618C161.368 50.7284 161.07 50.786 160.744 50.786C160.25 50.786 159.846 50.6804 159.534 50.4644L159.539 50.4548Z" fill="#262E61"/>
<path d="M163.662 50.4548C163.35 50.2388 163.125 49.9604 162.995 49.6244L163.821 49.2644C163.922 49.49 164.066 49.658 164.248 49.778C164.43 49.898 164.642 49.9556 164.877 49.9556C165.112 49.9556 165.299 49.9172 165.458 49.8356C165.616 49.754 165.693 49.634 165.693 49.4708C165.693 49.3076 165.626 49.1924 165.491 49.1012C165.357 49.01 165.15 48.9332 164.867 48.866L164.354 48.7412C164.013 48.6548 163.73 48.5108 163.504 48.2948C163.278 48.0836 163.168 47.8147 163.168 47.4883C163.168 47.2339 163.24 47.0131 163.389 46.8211C163.538 46.6291 163.739 46.4851 163.989 46.3795C164.243 46.2739 164.517 46.2259 164.814 46.2259C165.213 46.2259 165.563 46.3075 165.866 46.4659C166.168 46.6243 166.389 46.8595 166.523 47.1619L165.717 47.5171C165.554 47.1859 165.256 47.0179 164.824 47.0179C164.618 47.0179 164.445 47.0611 164.301 47.1427C164.162 47.2291 164.09 47.3347 164.09 47.4691C164.09 47.6035 164.142 47.7043 164.248 47.7859C164.354 47.8675 164.512 47.9347 164.718 47.9923L165.347 48.1508C165.77 48.2564 166.086 48.4196 166.302 48.6356C166.518 48.8516 166.624 49.1156 166.624 49.4324C166.624 49.7012 166.547 49.9412 166.394 50.1428C166.24 50.3492 166.029 50.5076 165.76 50.618C165.491 50.7284 165.194 50.786 164.867 50.786C164.373 50.786 163.97 50.6804 163.658 50.4644L163.662 50.4548Z" fill="#262E61"/>
<path d="M168.304 50.4836C167.968 50.2868 167.709 50.018 167.522 49.6724C167.334 49.3268 167.238 48.9379 167.238 48.5059C167.238 48.0739 167.33 47.7139 167.512 47.3635C167.694 47.0131 167.949 46.7347 168.275 46.5283C168.602 46.3219 168.971 46.2163 169.384 46.2163C169.797 46.2163 170.19 46.3123 170.507 46.5043C170.824 46.6963 171.064 46.9555 171.232 47.2867C171.395 47.6179 171.482 47.9923 171.482 48.4051C171.482 48.4819 171.472 48.5827 171.458 48.6979H168.165C168.198 49.0964 168.342 49.4036 168.592 49.6196C168.842 49.8356 169.13 49.946 169.461 49.946C169.725 49.946 169.955 49.8836 170.147 49.7636C170.339 49.6436 170.498 49.4804 170.613 49.2692L171.395 49.6388C171.194 49.994 170.93 50.2724 170.603 50.474C170.277 50.6756 169.888 50.7764 169.432 50.7764C169.01 50.7764 168.635 50.6804 168.299 50.4836H168.304ZM170.536 47.9923C170.526 47.8387 170.478 47.6899 170.392 47.5411C170.306 47.3923 170.181 47.2675 170.008 47.1667C169.835 47.0659 169.629 47.0131 169.379 47.0131C169.082 47.0131 168.832 47.0995 168.626 47.2771C168.419 47.4547 168.28 47.6899 168.198 47.9875H170.531L170.536 47.9923Z" fill="#262E61"/>
<path d="M173.416 50.618C173.248 50.5556 173.109 50.474 173.003 50.3732C172.763 50.1332 172.643 49.802 172.643 49.3892V47.1667H171.894V46.3507H172.643V45.1411H173.57V46.3507H174.611V47.1667H173.57V49.1876C173.57 49.418 173.613 49.5812 173.704 49.6772C173.79 49.7876 173.934 49.8452 174.141 49.8452C174.237 49.8452 174.319 49.8308 174.395 49.8068C174.467 49.7828 174.549 49.7396 174.631 49.6868V50.5892C174.443 50.6756 174.222 50.714 173.958 50.714C173.766 50.714 173.589 50.6852 173.421 50.6228L173.416 50.618Z" fill="#262E61"/>
<path d="M177.76 50.3396C177.362 50.0468 177.088 49.6388 176.935 49.1108L177.827 48.7508C177.919 49.082 178.077 49.3508 178.303 49.562C178.528 49.7732 178.802 49.8788 179.123 49.8788C179.421 49.8788 179.675 49.802 179.882 49.6484C180.088 49.4948 180.194 49.2836 180.194 49.0148C180.194 48.77 180.103 48.5636 179.92 48.4052C179.738 48.2468 179.421 48.0836 178.965 47.9204L178.586 47.786C178.183 47.6468 177.842 47.4452 177.568 47.1812C177.295 46.9171 177.155 46.5715 177.155 46.1395C177.155 45.8419 177.237 45.5683 177.4 45.3139C177.563 45.0595 177.789 44.8627 178.077 44.7139C178.365 44.5651 178.691 44.4883 179.056 44.4883C179.584 44.4883 180.007 44.6179 180.319 44.8723C180.631 45.1267 180.842 45.4147 180.947 45.7363L180.098 46.0963C180.035 45.9043 179.92 45.7363 179.743 45.5923C179.57 45.4483 179.344 45.3715 179.071 45.3715C178.797 45.3715 178.562 45.4435 178.375 45.5827C178.187 45.7219 178.091 45.9043 178.091 46.1203C178.091 46.3363 178.178 46.4995 178.346 46.6339C178.514 46.7683 178.778 46.8979 179.138 47.0227L179.517 47.1476C180.035 47.3252 180.434 47.5604 180.717 47.8484C181 48.1364 181.144 48.5252 181.144 49.0052C181.144 49.3988 181.043 49.73 180.842 49.994C180.64 50.258 180.381 50.4596 180.074 50.5892C179.762 50.7188 179.44 50.7812 179.109 50.7812C178.61 50.7812 178.159 50.6372 177.76 50.3444V50.3396Z" fill="#262E61"/>
<path d="M182.915 50.4788C182.575 50.2772 182.306 50.0036 182.114 49.658C181.922 49.3076 181.826 48.9235 181.826 48.4963C181.826 48.0691 181.922 47.6851 182.114 47.3347C182.306 46.9891 182.57 46.7155 182.915 46.5139C183.256 46.3171 183.645 46.2163 184.077 46.2163C184.509 46.2163 184.898 46.3171 185.239 46.5187C185.579 46.7203 185.848 46.9939 186.04 47.3443C186.232 47.6947 186.328 48.0787 186.328 48.4963C186.328 48.9139 186.232 49.3124 186.04 49.658C185.848 50.0036 185.584 50.2772 185.239 50.4788C184.898 50.6756 184.509 50.7764 184.077 50.7764C183.645 50.7764 183.256 50.6756 182.915 50.4788ZM184.735 49.754C184.936 49.6388 185.099 49.4756 185.219 49.2548C185.339 49.0388 185.402 48.7843 185.402 48.4915C185.402 48.1987 185.339 47.9491 185.219 47.7331C185.099 47.5219 184.936 47.3539 184.735 47.2387C184.533 47.1235 184.312 47.0659 184.077 47.0659C183.842 47.0659 183.621 47.1235 183.419 47.2387C183.218 47.3539 183.055 47.5171 182.935 47.7331C182.815 47.9491 182.752 48.1987 182.752 48.4915C182.752 48.7843 182.815 49.0388 182.935 49.2548C183.055 49.4708 183.218 49.6388 183.419 49.754C183.621 49.8692 183.842 49.9268 184.077 49.9268C184.312 49.9268 184.533 49.8692 184.735 49.754Z" fill="#262E61"/>
<path d="M188.013 50.4836C187.672 50.2868 187.408 50.018 187.221 49.6724C187.034 49.3268 186.938 48.9379 186.938 48.4963C186.938 48.0547 187.034 47.6659 187.221 47.3203C187.408 46.9747 187.672 46.7059 188.013 46.5091C188.354 46.3123 188.733 46.2163 189.16 46.2163C189.631 46.2163 190.034 46.3219 190.365 46.5379C190.696 46.7539 190.932 47.0419 191.071 47.4067L190.221 47.7619C190.029 47.3059 189.669 47.0803 189.136 47.0803C188.906 47.0803 188.695 47.1379 188.503 47.2579C188.311 47.3779 188.152 47.5411 188.042 47.7571C187.927 47.9731 187.869 48.2227 187.869 48.5011C187.869 48.7795 187.927 49.034 188.042 49.25C188.157 49.4708 188.311 49.6388 188.503 49.754C188.695 49.874 188.906 49.9316 189.136 49.9316C189.405 49.9316 189.636 49.874 189.832 49.7492C190.024 49.6292 190.173 49.4564 190.274 49.2308L191.109 49.5908C190.946 49.9556 190.701 50.2436 190.37 50.4596C190.039 50.6756 189.636 50.7812 189.165 50.7812C188.738 50.7812 188.354 50.6852 188.018 50.4884L188.013 50.4836Z" fill="#262E61"/>
<path d="M191.983 45.5491C191.863 45.4291 191.8 45.2803 191.8 45.1075C191.8 44.9347 191.863 44.7859 191.983 44.6659C192.103 44.5459 192.252 44.4835 192.424 44.4835C192.597 44.4835 192.746 44.5459 192.866 44.6659C192.986 44.7859 193.048 44.9347 193.048 45.1075C193.048 45.2803 192.986 45.4291 192.866 45.5491C192.746 45.6691 192.597 45.7315 192.424 45.7315C192.252 45.7315 192.103 45.6691 191.983 45.5491ZM191.964 46.3507H192.89V50.642H191.964V46.3507Z" fill="#262E61"/>
<path d="M194.829 50.4836C194.493 50.2868 194.234 50.018 194.047 49.6724C193.86 49.3268 193.764 48.9379 193.764 48.5059C193.764 48.0739 193.855 47.7139 194.037 47.3635C194.22 47.0131 194.474 46.7347 194.8 46.5283C195.127 46.3219 195.496 46.2163 195.909 46.2163C196.322 46.2163 196.716 46.3123 197.032 46.5043C197.349 46.6963 197.589 46.9555 197.757 47.2867C197.921 47.6179 198.007 47.9923 198.007 48.4051C198.007 48.4819 197.997 48.5827 197.983 48.6979H194.69C194.724 49.0964 194.868 49.4036 195.117 49.6196C195.367 49.8356 195.655 49.946 195.986 49.946C196.25 49.946 196.48 49.8836 196.672 49.7636C196.864 49.6436 197.023 49.4804 197.138 49.2692L197.921 49.6388C197.719 49.994 197.455 50.2724 197.128 50.474C196.802 50.6756 196.413 50.7764 195.957 50.7764C195.535 50.7764 195.16 50.6804 194.824 50.4836H194.829ZM197.061 47.9923C197.052 47.8387 197.004 47.6899 196.917 47.5411C196.831 47.3923 196.706 47.2675 196.533 47.1667C196.36 47.0659 196.154 47.0131 195.904 47.0131C195.607 47.0131 195.357 47.0995 195.151 47.2771C194.944 47.4547 194.805 47.6899 194.724 47.9875H197.056L197.061 47.9923Z" fill="#262E61"/>
<path d="M199.941 50.618C199.773 50.5556 199.634 50.474 199.528 50.3732C199.288 50.1332 199.168 49.802 199.168 49.3892V47.1667H198.42V46.3507H199.168V45.1411H200.095V46.3507H201.136V47.1667H200.095V49.1876C200.095 49.418 200.138 49.5812 200.229 49.6772C200.316 49.7876 200.46 49.8452 200.666 49.8452C200.762 49.8452 200.844 49.8308 200.92 49.8068C200.992 49.7828 201.074 49.7396 201.156 49.6868V50.5892C200.968 50.6756 200.748 50.714 200.484 50.714C200.292 50.714 200.114 50.6852 199.946 50.6228L199.941 50.618Z" fill="#262E61"/>
<path d="M203.378 50.4068L201.592 46.3508H202.629L203.839 49.2692H203.873L205.049 46.3508H206.066L203.417 52.4613H202.442L203.378 50.4068Z" fill="#262E61"/>
</svg>
