<svg width="181" height="49" viewBox="0 0 181 49" fill="none" xmlns="http://www.w3.org/2000/svg">
<g clip-path="url(#clip0_307_5240)">
<rect width="48.0723" height="48.0723" rx="10.4885" fill="url(#paint0_linear_307_5240)"/>
<path d="M20.8331 12.6524C21.7721 9.4557 26.3002 9.45569 27.2392 12.6524L30.0641 22.2696C30.2141 22.78 30.4838 23.2471 30.8508 23.6322L37.7671 30.8872C40.066 33.2988 37.802 37.2202 34.5641 36.4351L24.8229 34.0729C24.3059 33.9476 23.7664 33.9476 23.2494 34.0729L13.5082 36.4351C10.2704 37.2202 8.0063 33.2988 10.3052 30.8873L17.2215 23.6322C17.5885 23.2471 17.8582 22.78 18.0082 22.2696L20.8331 12.6524Z" fill="white"/>
</g>
<path d="M168.811 6.11914H170.995V17.6823L177.162 11.4125H179.938V11.5153L174.798 16.7059L180.066 24.4147V24.5175H177.471L173.257 18.222L170.995 20.4832V24.5175H168.811V6.11914Z" fill="black" fill-opacity="0.7"/>
<path d="M154.407 11.4131H156.489V13.3403H156.592C156.951 12.6893 157.525 12.1411 158.313 11.6957C159.101 11.2332 159.941 11.002 160.831 11.002C162.407 11.002 163.607 11.4645 164.429 12.3895C165.268 13.2975 165.688 14.5394 165.688 16.1155V24.518H163.504V16.4495C163.504 15.2332 163.213 14.351 162.63 13.8028C162.048 13.2546 161.251 12.9805 160.24 12.9805C159.538 12.9805 158.904 13.1775 158.339 13.5716C157.791 13.9656 157.362 14.488 157.054 15.139C156.746 15.7728 156.592 16.4409 156.592 17.1433V24.518H154.407V11.4131Z" fill="black" fill-opacity="0.7"/>
<path d="M144.945 24.9292C143.986 24.9292 143.129 24.7407 142.375 24.3639C141.622 23.987 141.039 23.4731 140.628 22.8221C140.217 22.154 140.011 21.4003 140.011 20.5609C140.011 19.1733 140.534 18.094 141.579 17.3232C142.624 16.5352 143.943 16.1412 145.536 16.1412C146.324 16.1412 147.052 16.2268 147.72 16.3981C148.405 16.5694 148.928 16.7664 149.287 16.9891V16.1925C149.287 15.2161 148.945 14.4367 148.26 13.8542C147.574 13.2546 146.709 12.9548 145.664 12.9548C144.928 12.9548 144.251 13.1176 143.634 13.4431C143.018 13.7514 142.529 14.1883 142.17 14.7536L140.525 13.5202C141.039 12.7322 141.741 12.1154 142.632 11.67C143.54 11.2247 144.542 11.002 145.639 11.002C147.42 11.002 148.816 11.473 149.827 12.4152C150.855 13.3403 151.369 14.608 151.369 16.2182V24.518H149.287V22.6422H149.185C148.808 23.2761 148.243 23.8157 147.489 24.2611C146.735 24.7065 145.887 24.9292 144.945 24.9292ZM145.15 23.002C145.887 23.002 146.572 22.8135 147.206 22.4367C147.84 22.0598 148.345 21.5544 148.722 20.9206C149.099 20.2868 149.287 19.593 149.287 18.8392C148.876 18.5651 148.371 18.3424 147.771 18.1711C147.172 17.9998 146.538 17.9142 145.87 17.9142C144.671 17.9142 143.763 18.1626 143.146 18.6594C142.547 19.1561 142.247 19.7985 142.247 20.5866C142.247 21.306 142.521 21.8885 143.069 22.3339C143.617 22.7793 144.311 23.002 145.15 23.002Z" fill="black" fill-opacity="0.7"/>
<path d="M125.61 6.11914H132.214C133.139 6.11914 134.004 6.33327 134.809 6.76154C135.631 7.18981 136.282 7.78081 136.762 8.53456C137.242 9.28831 137.482 10.1363 137.482 11.0785C137.482 11.9693 137.25 12.7487 136.788 13.4168C136.342 14.0849 135.734 14.5988 134.963 14.9586V15.0613C135.888 15.3697 136.642 15.9007 137.225 16.6545C137.807 17.4082 138.098 18.2905 138.098 19.3012C138.098 20.2948 137.841 21.1941 137.327 21.9993C136.831 22.7873 136.154 23.404 135.297 23.8494C134.458 24.2948 133.55 24.5175 132.574 24.5175H125.61V6.11914ZM132.214 14.0849C132.831 14.0849 133.37 13.9393 133.833 13.6481C134.312 13.3568 134.681 12.9885 134.938 12.5431C135.195 12.0806 135.323 11.6095 135.323 11.1299C135.323 10.6673 135.195 10.2134 134.938 9.76797C134.698 9.30544 134.347 8.92857 133.884 8.63735C133.439 8.34613 132.916 8.20051 132.317 8.20051H127.769V14.0849H132.214ZM132.702 22.4361C133.319 22.4361 133.867 22.2819 134.347 21.9736C134.843 21.6652 135.22 21.2712 135.477 20.7916C135.751 20.2948 135.888 19.7894 135.888 19.2755C135.888 18.7616 135.751 18.2648 135.477 17.7851C135.203 17.2883 134.818 16.8943 134.321 16.6031C133.824 16.2948 133.25 16.1406 132.599 16.1406H127.769V22.4361H132.702Z" fill="black" fill-opacity="0.7"/>
<path d="M114.233 11.4128H117.394V13.1601H117.599C117.925 12.5434 118.43 12.0381 119.115 11.644C119.8 11.2329 120.554 11.0273 121.376 11.0273C121.976 11.0273 122.524 11.1216 123.021 11.31V14.6762C122.558 14.5049 122.164 14.385 121.839 14.3164C121.531 14.2308 121.197 14.188 120.837 14.188C119.843 14.188 119.055 14.5477 118.473 15.2672C117.89 15.9867 117.599 16.8946 117.599 17.991V24.5177H114.233V11.4128Z" fill="black"/>
<path d="M105.293 24.9292C103.991 24.9292 102.818 24.6294 101.773 24.0298C100.728 23.4302 99.9053 22.608 99.3058 21.563C98.7233 20.5009 98.4321 19.3103 98.4321 17.9913C98.4321 16.7407 98.7233 15.5844 99.3058 14.5223C99.8882 13.4431 100.693 12.5865 101.721 11.9527C102.749 11.3189 103.897 11.002 105.164 11.002C106.518 11.002 107.683 11.2932 108.659 11.8756C109.636 12.4581 110.372 13.2546 110.869 14.2653C111.383 15.2761 111.64 16.3981 111.64 17.6315C111.64 18.0255 111.614 18.4024 111.563 18.7621H101.721C101.892 19.8071 102.304 20.6037 102.955 21.1519C103.623 21.6829 104.419 21.9484 105.344 21.9484C106.115 21.9484 106.775 21.7857 107.323 21.4602C107.888 21.1176 108.334 20.6636 108.659 20.0983L111.383 21.4345C110.047 23.7643 108.017 24.9292 105.293 24.9292ZM108.402 16.3724C108.368 15.9613 108.214 15.5587 107.94 15.1647C107.683 14.7536 107.314 14.4195 106.835 14.1626C106.372 13.8885 105.824 13.7514 105.19 13.7514C104.385 13.7514 103.691 13.9913 103.109 14.4709C102.543 14.9334 102.132 15.5673 101.875 16.3724H108.402Z" fill="black"/>
<path d="M83.6938 6.11914H87.06V10.7701L86.8545 13.0571H87.06C87.4369 12.4404 87.9851 11.9436 88.7046 11.5667C89.4241 11.1898 90.2035 11.0014 91.0429 11.0014C92.6361 11.0014 93.8523 11.481 94.6917 12.4404C95.5483 13.3825 95.9765 14.693 95.9765 16.3718V24.5175H92.6104V16.783C92.6104 15.9436 92.3791 15.2926 91.9166 14.8301C91.4712 14.3676 90.8716 14.1363 90.1178 14.1363C89.2271 14.1363 88.4904 14.496 87.908 15.2155C87.3427 15.935 87.06 16.8172 87.06 17.8622V24.5175H83.6938V6.11914Z" fill="black"/>
<path d="M78.5328 24.7217C77.8818 24.7217 77.2822 24.6275 76.734 24.439C76.1859 24.2335 75.7405 23.9594 75.3979 23.6168C74.5927 22.8459 74.1901 21.7495 74.1901 20.3277V14.2891H71.9032V11.4112H74.1901V7.71094H77.5563V11.4112H80.7683V14.2891H77.5563V19.711C77.5563 20.3791 77.7019 20.8587 77.9931 21.1499C78.233 21.424 78.6441 21.5611 79.2266 21.5611C79.552 21.5611 79.8176 21.5182 80.0231 21.4326C80.2458 21.3469 80.5285 21.2013 80.8711 20.9958V24.2849C80.1345 24.5761 79.355 24.7217 78.5328 24.7217Z" fill="black"/>
<path d="M58.5608 6.11914H70.2267V9.40823H62.0297V13.6738H69.4045V16.9628H62.0297V21.2284H70.2267V24.5175H58.5608V6.11914Z" fill="black"/>
<path d="M145.852 42.0142C145.079 42.0142 144.386 41.8289 143.772 41.4583C143.158 41.0878 142.676 40.5795 142.327 39.9337C141.988 39.2772 141.818 38.5414 141.818 37.7261C141.818 36.9426 141.977 36.2226 142.295 35.5662C142.623 34.9097 143.084 34.3856 143.676 33.9939C144.269 33.6021 144.958 33.4062 145.741 33.4062C146.535 33.4062 147.223 33.5862 147.806 33.9462C148.388 34.2956 148.833 34.7827 149.14 35.4074C149.457 36.032 149.616 36.7467 149.616 37.5514C149.616 37.7102 149.6 37.8479 149.569 37.9643H143.168C143.2 38.5784 143.348 39.0972 143.613 39.5208C143.878 39.9443 144.211 40.2619 144.614 40.4737C145.026 40.6854 145.455 40.7913 145.9 40.7913C146.938 40.7913 147.737 40.3043 148.298 39.3302L149.442 39.886C149.092 40.5425 148.616 41.0613 148.012 41.4425C147.419 41.8236 146.699 42.0142 145.852 42.0142ZM148.187 36.8526C148.166 36.5138 148.07 36.175 147.901 35.8362C147.732 35.4974 147.462 35.2115 147.091 34.9786C146.731 34.7456 146.276 34.6292 145.725 34.6292C145.09 34.6292 144.55 34.8356 144.105 35.2485C143.671 35.6509 143.385 36.1856 143.248 36.8526H148.187Z" fill="#D97757"/>
<path d="M136.201 42.0142C135.481 42.0142 134.825 41.8289 134.232 41.4583C133.65 41.0877 133.189 40.5795 132.85 39.9337C132.511 39.2772 132.342 38.5361 132.342 37.7102C132.342 36.8949 132.511 36.1591 132.85 35.5026C133.189 34.8462 133.65 34.3327 134.232 33.9621C134.825 33.5915 135.481 33.4062 136.201 33.4062C136.826 33.4062 137.382 33.5492 137.869 33.835C138.356 34.1103 138.726 34.4544 138.981 34.8674H139.044L138.981 33.7397V30.3887H140.331V41.7601H139.044V40.5689H138.981C138.726 40.9713 138.356 41.3154 137.869 41.6012C137.382 41.8765 136.826 42.0142 136.201 42.0142ZM136.36 40.7913C136.837 40.7913 137.276 40.6642 137.678 40.4101C138.091 40.156 138.419 39.796 138.663 39.3301C138.917 38.8643 139.044 38.3243 139.044 37.7102C139.044 37.0961 138.917 36.5561 138.663 36.0903C138.419 35.6244 138.091 35.2644 137.678 35.0103C137.276 34.7562 136.837 34.6291 136.36 34.6291C135.894 34.6291 135.455 34.7562 135.042 35.0103C134.629 35.2644 134.295 35.6297 134.041 36.1061C133.798 36.572 133.676 37.1067 133.676 37.7102C133.676 38.3137 133.798 38.8537 134.041 39.3301C134.295 39.796 134.629 40.156 135.042 40.4101C135.455 40.6642 135.894 40.7913 136.36 40.7913Z" fill="#D97757"/>
<path d="M126.884 42.014C125.91 42.014 125.163 41.7281 124.645 41.1564C124.136 40.5846 123.882 39.7853 123.882 38.7582V33.6602H125.232V38.5518C125.232 39.3247 125.407 39.8911 125.756 40.2511C126.106 40.6111 126.577 40.7911 127.17 40.7911C127.625 40.7911 128.027 40.6693 128.377 40.4258C128.737 40.1823 129.012 39.8647 129.203 39.4729C129.404 39.0812 129.504 38.6682 129.504 38.2341V33.6602H130.854V41.7599H129.568V40.5846H129.504C129.282 40.987 128.927 41.3258 128.44 41.6011C127.953 41.8764 127.435 42.014 126.884 42.014Z" fill="#D97757"/>
<path d="M118.097 42.0142C117.504 42.0142 116.975 41.8977 116.509 41.6648C116.043 41.4319 115.683 41.1142 115.429 40.7119C115.175 40.299 115.048 39.8331 115.048 39.3143C115.048 38.4567 115.371 37.7896 116.017 37.3132C116.663 36.8261 117.478 36.5826 118.463 36.5826C118.95 36.5826 119.4 36.6356 119.813 36.7414C120.236 36.8473 120.559 36.9691 120.781 37.1067V36.6144C120.781 36.0109 120.57 35.5291 120.146 35.1691C119.723 34.7986 119.188 34.6133 118.542 34.6133C118.087 34.6133 117.669 34.7139 117.287 34.915C116.906 35.1056 116.604 35.3756 116.382 35.725L115.366 34.9627C115.683 34.4756 116.117 34.0945 116.668 33.8192C117.229 33.5439 117.848 33.4062 118.526 33.4062C119.627 33.4062 120.49 33.6974 121.115 34.2798C121.75 34.8515 122.068 35.635 122.068 36.6303V41.7601H120.781V40.6007H120.718C120.485 40.9925 120.135 41.326 119.67 41.6013C119.204 41.8766 118.68 42.0142 118.097 42.0142ZM118.224 40.8231C118.68 40.8231 119.103 40.7066 119.495 40.4737C119.887 40.2407 120.199 39.9284 120.432 39.5366C120.665 39.1449 120.781 38.7161 120.781 38.2502C120.527 38.0808 120.215 37.9432 119.844 37.8373C119.474 37.7314 119.082 37.6785 118.669 37.6785C117.928 37.6785 117.367 37.832 116.986 38.139C116.615 38.4461 116.43 38.8431 116.43 39.3302C116.43 39.7749 116.599 40.1349 116.938 40.4101C117.277 40.6854 117.706 40.8231 118.224 40.8231Z" fill="#D97757"/>
<path d="M112.236 30.3887H113.586V41.7601H112.236V30.3887Z" fill="#D97757"/>
<path d="M106.226 42.0144C105.124 42.0144 104.124 41.755 103.224 41.2362C102.324 40.7174 101.615 40.008 101.096 39.108C100.588 38.1974 100.333 37.1863 100.333 36.0746C100.333 34.9628 100.588 33.957 101.096 33.057C101.615 32.1465 102.324 31.4318 103.224 30.913C104.124 30.3942 105.124 30.1348 106.226 30.1348C107.073 30.1348 107.846 30.2989 108.544 30.6271C109.254 30.9447 109.868 31.4 110.387 31.9929L109.418 32.93C108.984 32.4112 108.507 32.03 107.989 31.7865C107.48 31.543 106.893 31.4212 106.226 31.4212C105.4 31.4212 104.643 31.6171 103.955 32.0088C103.266 32.39 102.716 32.9353 102.303 33.6447C101.9 34.3435 101.699 35.1534 101.699 36.0746C101.699 36.9957 101.9 37.811 102.303 38.5204C102.716 39.2192 103.266 39.7645 103.955 40.1562C104.643 40.5374 105.4 40.728 106.226 40.728C107.602 40.728 108.772 40.1615 109.736 39.0286L110.72 39.9815C110.191 40.6062 109.54 41.1038 108.767 41.4744C107.994 41.8344 107.147 42.0144 106.226 42.0144Z" fill="#D97757"/>
<path d="M91.5268 41.2517L88.1757 33.6602H89.6368L92.1779 39.6794H92.2097L94.6555 33.6602H96.1166L91.1138 45.1904H89.7162L91.5268 41.2517Z" fill="#D97757"/>
<path d="M79.8428 30.3887H83.9244C84.4962 30.3887 85.0309 30.521 85.5285 30.7857C86.0367 31.0504 86.4391 31.4157 86.7355 31.8816C87.032 32.3474 87.1802 32.8715 87.1802 33.4539C87.1802 34.0044 87.0373 34.4862 86.7514 34.8991C86.4761 35.312 86.1002 35.6297 85.6238 35.852V35.9156C86.1955 36.1061 86.6614 36.4344 87.0214 36.9002C87.3814 37.3661 87.5614 37.9114 87.5614 38.5361C87.5614 39.1502 87.4026 39.706 87.0849 40.2036C86.7779 40.6907 86.3597 41.0719 85.8303 41.3471C85.3115 41.6224 84.7503 41.7601 84.1468 41.7601H79.8428V30.3887ZM83.9244 35.312C84.3056 35.312 84.6391 35.222 84.925 35.0421C85.2215 34.8621 85.4491 34.6344 85.6079 34.3591C85.7667 34.0733 85.8461 33.7821 85.8461 33.4856C85.8461 33.1998 85.7667 32.9192 85.6079 32.6439C85.4597 32.358 85.2426 32.1251 84.9568 31.9451C84.6815 31.7651 84.3585 31.6751 83.988 31.6751H81.1769V35.312H83.9244ZM84.2262 40.4736C84.6074 40.4736 84.9462 40.3783 85.2426 40.1878C85.5497 39.9972 85.7826 39.7537 85.9414 39.4572C86.1108 39.1502 86.1955 38.8378 86.1955 38.5202C86.1955 38.2025 86.1108 37.8955 85.9414 37.599C85.772 37.292 85.5338 37.0485 85.2267 36.8685C84.9197 36.6779 84.565 36.5826 84.1627 36.5826H81.1769V40.4736H84.2262Z" fill="#D97757"/>
<g clip-path="url(#clip1_307_5240)">
<path d="M69.4508 37.3848C69.8408 37.4748 70.2308 37.5248 70.6308 37.5148C71.6408 37.5148 72.6408 37.5448 73.6408 37.6548C74.1508 37.7048 74.4808 38.0548 74.7208 38.4848C74.7908 38.6148 74.7208 38.7348 74.6308 38.8148C74.3108 39.0948 73.9508 39.2748 73.5108 39.1648C72.1908 38.8348 70.8808 38.5048 69.5608 38.1748C69.4508 38.1448 69.3208 38.0748 69.2608 38.1848C69.2108 38.2648 69.3408 38.3548 69.4108 38.4248C70.5308 39.4848 71.6408 40.5448 72.7608 41.6048C72.8908 41.7248 73.0208 41.8348 73.0408 42.0348C73.0608 42.2048 73.0608 42.3748 72.8908 42.4748C72.7308 42.5748 72.5908 42.4748 72.4708 42.3848C71.8608 41.8748 71.2208 41.4148 70.6408 40.8848C70.2808 40.5548 69.9008 40.2448 69.5208 39.9248C69.4408 39.8548 69.3408 39.8048 69.2408 39.7348C69.1808 39.9148 69.2808 40.0048 69.3508 40.1048C69.8308 40.8448 70.3108 41.5848 70.8108 42.3148C71.0208 42.6248 71.1608 42.9348 71.1408 43.3148C71.1408 43.5048 71.1608 43.6848 70.9308 43.7748C70.6808 43.8748 70.4408 43.9348 70.2108 43.7448C70.1208 43.6648 70.0408 43.5648 69.9708 43.4648C69.1608 42.3048 68.3808 41.1248 67.7108 39.8748C67.6608 39.7848 67.6308 39.6248 67.5008 39.6448C67.3808 39.6648 67.4008 39.8348 67.3908 39.9348C67.3008 40.9348 67.2208 41.9348 67.1308 42.9348C67.0808 43.4248 67.0308 43.9148 67.0108 44.4048C66.9908 44.8548 66.7008 45.0948 66.2808 45.0448C65.9408 45.0048 65.6308 44.5648 65.7008 44.1848C65.8208 43.4848 65.9708 42.7848 66.1008 42.0848C66.2708 41.2048 66.4308 40.3248 66.5908 39.4448C66.6108 39.3548 66.6908 39.2148 66.5608 39.1648C66.4608 39.1248 66.3908 39.2548 66.3308 39.3348C65.8808 39.9748 65.4308 40.6048 64.9908 41.2448C64.4008 42.1048 63.7708 42.9248 63.0408 43.6548C62.9008 43.7948 62.7508 43.9148 62.5308 43.8448C62.1608 43.7248 62.0708 43.4648 62.3108 43.0948C62.6108 42.6448 62.9508 42.2148 63.2708 41.7748C63.8508 40.9948 64.4408 40.2148 65.0308 39.4348C65.1808 39.2348 65.3508 39.0548 65.5108 38.8748C65.5908 38.7848 65.6808 38.6948 65.6508 38.5348C65.5008 38.5648 65.3808 38.6348 65.2608 38.7148C64.1108 39.4948 62.9708 40.2648 61.8208 41.0448C61.5508 41.2348 61.2608 41.3848 60.9308 41.4248C60.6708 41.4548 60.4408 41.3848 60.3408 41.1348C60.2408 40.8948 60.2708 40.6448 60.5008 40.4748C61.1908 39.9548 61.9008 39.4748 62.6608 39.0548C63.3808 38.6548 64.0808 38.2248 64.7808 37.8148C64.8708 37.7648 65.0208 37.7048 64.9708 37.5748C64.9308 37.4648 64.7908 37.4548 64.6808 37.4448C64.1008 37.4248 63.5108 37.3848 62.9308 37.3848C61.7208 37.3848 60.5108 37.2848 59.3008 37.1948C58.9908 37.1748 58.6508 36.8748 58.6008 36.5848C58.5508 36.3148 58.7608 36.2348 58.9508 36.2148C59.2208 36.1848 59.5008 36.2148 59.7808 36.2148C60.6308 36.2648 61.4808 36.3548 62.3308 36.3848C62.9608 36.4048 63.5708 36.4848 64.1908 36.5548C64.3608 36.5748 64.5408 36.5748 64.7108 36.5748C64.8008 36.5748 64.9208 36.6148 64.9608 36.5148C65.0008 36.3948 64.8708 36.3448 64.7908 36.2848C63.3408 35.2748 61.8708 34.3048 60.4508 33.2548C60.2008 33.0648 59.9608 32.8948 59.8808 32.5548C59.7908 32.1748 59.8708 31.8748 60.1508 31.6448C60.3608 31.4748 60.7508 31.4848 61.0408 31.7048C61.7708 32.2548 62.4808 32.8248 63.2008 33.3848C63.6608 33.7448 64.1308 34.0848 64.6008 34.4448C64.6708 34.4948 64.7608 34.5948 64.8408 34.5448C64.9508 34.4648 64.8508 34.3548 64.8108 34.2748C64.2508 33.2148 63.6808 32.1548 63.0708 31.1248C62.7808 30.6348 62.4608 30.1548 62.3408 29.5748C62.2808 29.2648 62.6108 28.6148 62.9208 28.4648C63.2108 28.3348 63.7708 28.4748 63.9708 28.7648C64.2608 29.1848 64.4208 29.6648 64.6008 30.1248C65.1008 31.3748 65.7708 32.5348 66.3208 33.7548C66.4208 33.9748 66.5108 34.2048 66.5808 34.4448C66.6108 34.5348 66.6308 34.6448 66.7408 34.6448C66.8608 34.6448 66.8508 34.5048 66.8508 34.4248C66.8408 33.6248 66.9508 32.8348 67.0508 32.0348C67.1508 31.2448 67.1408 30.4448 67.2908 29.6548C67.3408 29.3948 67.4408 29.1548 67.6308 28.9748C67.7808 28.8348 67.9508 28.6248 68.1908 28.7448C68.4608 28.8748 68.7108 29.0648 68.7108 29.4048C68.7108 30.0348 68.5508 30.6348 68.4308 31.2448C68.2608 32.1548 68.0908 33.0648 67.9208 33.9748C67.9008 34.0748 67.8808 34.2148 67.9808 34.2548C68.1008 34.3048 68.1708 34.1648 68.2408 34.0848C68.8408 33.2848 69.4408 32.4748 70.0808 31.6948C70.4308 31.2648 70.8008 30.8548 71.2008 30.4648C71.5708 30.1048 72.0608 30.2248 72.3608 30.6248C72.7808 31.1948 72.5008 31.6648 72.2008 32.1048C71.6508 32.8948 71.0608 33.6548 70.4808 34.4248C70.2308 34.7648 70.0308 35.1348 69.8408 35.5048C69.8008 35.5748 69.7608 35.6548 69.8108 35.7348C69.8708 35.8348 69.9508 35.7748 70.0308 35.7548C70.7608 35.5948 71.4808 35.4248 72.2108 35.2848C72.7608 35.1748 73.3108 35.0748 73.8708 35.0148C74.3608 34.9648 74.6708 35.1448 74.6908 35.4148C74.7308 35.7848 74.4808 36.0648 74.0208 36.1748C72.6808 36.4848 71.3308 36.7848 69.9908 37.1048C69.8108 37.1448 69.6408 37.2048 69.4708 37.2548C69.4708 37.2848 69.4708 37.3048 69.4708 37.3348L69.4508 37.3848Z" fill="#D97757"/>
</g>
<defs>
<linearGradient id="paint0_linear_307_5240" x1="48.0723" y1="0" x2="0" y2="48.0723" gradientUnits="userSpaceOnUse">
<stop stop-color="#96A7FF"/>
<stop offset="1" stop-color="#5D72DF"/>
</linearGradient>
<clipPath id="clip0_307_5240">
<rect width="48.0723" height="48.0723" rx="10.4885" fill="white"/>
</clipPath>
<clipPath id="clip1_307_5240">
<rect width="16.19" height="16.62" fill="white" transform="translate(58.5608 28.4238)"/>
</clipPath>
</defs>
</svg>
