<svg width="111" height="34" viewBox="0 0 111 34" fill="none" xmlns="http://www.w3.org/2000/svg">
<path d="M36.6279 15.2787C36.6279 15.8133 35.7479 17.2167 33.9881 19.489C31.404 22.8305 29.1429 24.5012 27.2048 24.5012C25.7345 24.5012 24.6318 23.9443 23.8967 22.8305C23.1616 21.6944 22.794 20.3578 22.794 18.8207C22.794 16.8158 23.2395 14.6995 24.1306 12.4718C22.3039 13.0287 20.6777 13.4297 19.252 13.6747C17.7372 17.5954 15.5206 20.5026 12.6024 22.3961C11.8673 22.8639 11.0096 23.3206 10.0294 23.7661C9.04926 24.1894 8.23616 24.401 7.59013 24.401C7.38964 24.401 7.24484 24.3119 7.15574 24.1337C7.17801 23.3317 7.9577 21.906 9.49479 19.8565C11.6334 17.0497 14.1506 14.9111 17.0466 13.4408C17.3362 12.0597 17.481 10.7565 17.481 9.53126C17.481 4.56355 15.0083 2.0797 10.0629 2.0797C8.85991 2.0797 7.67924 2.26905 6.52085 2.64775C5.36246 3.00418 4.33773 3.62793 3.44666 4.519C2.57787 5.41007 2.14347 6.47935 2.14347 7.72685C2.14347 8.66247 2.3551 9.47557 2.77836 10.1661C3.20162 10.8567 3.70284 11.3914 4.28204 11.7701C4.86123 12.1488 5.6075 12.4718 6.52085 12.7391C7.4342 12.9842 8.22502 13.1512 8.89332 13.2403C9.56162 13.3072 10.3524 13.374 11.2658 13.4408C11.3326 13.4408 11.3995 13.4854 11.4663 13.5745C11.5331 13.6636 11.5665 13.7416 11.5665 13.8084C11.5665 14.0312 11.4886 14.1425 11.3326 14.1425C10.1297 14.1425 8.94901 14.0534 7.79062 13.8752C6.63223 13.6747 5.42929 13.3629 4.18179 12.9396C2.95657 12.4941 1.95412 11.8146 1.17443 10.9013C0.417025 9.98794 0.038321 8.88524 0.038321 7.59319C0.038321 6.45707 0.361334 5.46576 1.00736 4.61924C1.65338 3.75045 2.48876 3.09329 3.51349 2.64775C4.5605 2.17994 5.61864 1.84579 6.68793 1.6453C7.75721 1.42253 8.81535 1.31115 9.86236 1.31115C11.2435 1.31115 12.5133 1.46709 13.6717 1.77896C14.8523 2.06856 15.9216 2.52523 16.8795 3.14898C17.8374 3.77273 18.5837 4.63038 19.1183 5.72194C19.6753 6.79122 19.9537 8.03872 19.9537 9.46443C19.9537 10.4223 19.7978 11.5696 19.4859 12.9062C21.3794 12.5943 23.0947 12.1042 24.6318 11.4359C25.6788 9.43102 26.9152 7.50408 28.3409 5.65511C29.7889 3.78387 31.2703 2.3136 32.7851 1.24432C33.4534 0.82106 33.8767 0.609431 34.0549 0.609431C34.2554 0.609431 34.3556 0.75423 34.3556 1.04383C34.3556 2.82597 33.5425 4.76404 31.9163 6.85806C30.2901 8.92979 28.6082 10.4001 26.8706 11.2688C25.5563 15.0113 24.8992 17.9853 24.8992 20.1907C24.8992 21.1486 25.1108 21.9617 25.534 22.63C25.9573 23.276 26.6145 23.599 27.5055 23.599C28.0847 23.599 28.753 23.354 29.5104 22.8639C30.2678 22.3515 30.9361 21.8057 31.5153 21.2265C32.1168 20.6251 32.8074 19.8343 33.5871 18.8541C34.3668 17.8516 34.9125 17.1276 35.2244 16.6821C35.5363 16.2366 35.9484 15.6351 36.4608 14.8777C36.5722 14.9891 36.6279 15.1227 36.6279 15.2787ZM31.6156 3.31605C29.7889 4.78632 28.3075 7.08082 27.1714 10.1996C30.1342 8.70702 31.6156 6.41252 31.6156 3.31605ZM16.7793 14.4099C13.4155 15.9692 11.1544 18.7761 9.99602 22.8305C12.6692 22.4518 14.9303 19.6449 16.7793 14.4099ZM48.6001 15.2787C48.6001 15.8801 48.1212 16.8492 47.1633 18.1858C45.938 19.8788 44.5346 21.3379 42.953 22.5632C41.3713 23.7884 39.7451 24.401 38.0744 24.401C36.8491 24.401 35.8912 24.0111 35.2007 23.2315C34.5101 22.4518 34.1648 21.4493 34.1648 20.2241C34.1648 18.4865 34.8776 16.7489 36.3034 15.0113C37.7513 13.2738 39.333 12.405 41.0483 12.405C41.7612 12.405 42.396 12.6166 42.953 13.0398C43.5099 13.4631 43.7883 14.02 43.7883 14.7106C43.7883 15.4235 43.521 16.1252 42.9864 16.8158C42.4517 17.4841 41.7723 18.0633 40.9481 18.5533C40.1238 19.0434 39.333 19.4667 38.5756 19.8231C37.8182 20.1573 37.0942 20.4246 36.4036 20.6251C36.4036 21.4493 36.6152 22.1288 37.0385 22.6634C37.484 23.198 38.1078 23.4654 38.9097 23.4654C39.8008 23.4654 40.7476 23.1646 41.75 22.5632C42.7525 21.9617 43.677 21.182 44.5235 20.2241C45.3923 19.2439 46.1385 18.3306 46.7623 17.4841C47.4083 16.6153 47.9875 15.7465 48.4999 14.8777C48.5667 15.0113 48.6001 15.145 48.6001 15.2787ZM41.8168 14.4767C41.8168 13.6302 41.4493 13.2069 40.7142 13.2069C39.9345 13.2069 39.2105 13.6525 38.5422 14.5435C37.8739 15.4123 37.3838 16.3145 37.0719 17.2502C36.76 18.1858 36.5373 19.0546 36.4036 19.8565C37.807 19.5447 39.0545 18.8986 40.1461 17.9185C41.2599 16.9383 41.8168 15.791 41.8168 14.4767ZM70.2672 15.4123C70.2672 15.9692 69.6991 16.9828 68.563 18.4531C68.5185 18.5199 68.2623 18.8652 67.7945 19.489C67.3489 20.0904 67.0148 20.5248 66.792 20.7922C66.5915 21.0595 66.2462 21.4605 65.7562 21.9951C65.2883 22.5297 64.8762 22.9307 64.5198 23.198C64.1856 23.4654 63.7847 23.7104 63.3169 23.9332C62.8713 24.1559 62.4481 24.2673 62.0471 24.2673C61.5347 24.2673 61.1115 24.0891 60.7773 23.7327C60.4432 23.3763 60.2761 22.9419 60.2761 22.4295C60.2761 21.5161 60.6548 20.0904 61.4122 18.1524C62.1696 16.2143 62.5483 14.9891 62.5483 14.4767C62.5483 14.2985 62.4815 14.1537 62.3478 14.0423C62.2142 13.9086 62.0582 13.8418 61.88 13.8418C61.3454 13.8418 60.6436 14.3653 59.7749 15.4123C58.9283 16.4593 58.1375 17.6177 57.4024 18.8875C56.6895 20.135 56.0212 21.2934 55.3975 22.3627C54.7737 23.4319 54.395 23.9777 54.2614 24C54.2168 24 54.0831 24.0223 53.8604 24.0668C53.6599 24.1114 53.4705 24.1448 53.2923 24.1671C53.1141 24.1894 52.9916 24.2005 52.9248 24.2005L52.6909 24.0334C52.7131 23.1869 53.1364 21.5941 53.9606 19.2551C54.7849 16.8937 55.197 15.2675 55.197 14.3765C55.197 13.9755 55.0076 13.775 54.6289 13.775C53.9606 13.775 53.0584 14.6104 51.9223 16.2811C50.7862 17.9519 49.7726 19.6449 48.8815 21.3602C47.9905 23.0532 47.5004 23.9109 47.4113 23.9332C47.3667 23.9332 47.2108 23.9554 46.9435 24C46.6984 24.0668 46.4645 24.1114 46.2417 24.1337C46.019 24.1782 45.8853 24.2005 45.8408 24.2005C45.7071 24.1559 45.6403 24.0668 45.6403 23.9332C45.6403 23.5545 46.6761 20.0682 48.7479 13.4742C48.9038 12.9396 49.561 12.6723 50.7194 12.6723C50.9199 12.6723 51.0201 12.7614 51.0201 12.9396C51.0201 13.0287 50.8642 13.5856 50.5523 14.6104C50.2404 15.6351 49.8951 16.7712 49.5164 18.0187C49.1377 19.2439 48.9372 19.8788 48.9149 19.9234C50.452 17.1833 51.6995 15.2898 52.6574 14.2428C53.7267 13.1067 54.6958 12.5386 55.5646 12.5386C56.0769 12.5386 56.5002 12.6834 56.8343 12.973C57.1685 13.2403 57.3356 13.619 57.3356 14.1091C57.3356 14.6883 56.8343 16.6598 55.8319 20.0236C58.8392 15.0782 61.1783 12.6055 62.849 12.6055C63.406 12.6055 63.8292 12.7837 64.1188 13.1401C64.4084 13.4965 64.5532 13.9532 64.5532 14.5101C64.5532 15.3566 64.1968 16.6264 63.4839 18.3194C62.7711 20.0125 62.4146 21.2934 62.4146 22.1622C62.4146 22.6745 62.6597 22.9307 63.1498 22.9307C63.3725 22.9307 63.651 22.8193 63.9852 22.5966C64.3416 22.3515 64.7203 22.0062 65.1213 21.5607C65.5445 21.1152 65.9455 20.6696 66.3242 20.2241C66.7029 19.7786 67.1262 19.2439 67.594 18.6202C68.0618 17.9964 68.4294 17.5063 68.6967 17.1499C68.964 16.7712 69.2759 16.3257 69.6323 15.8133C69.9887 15.2787 70.1781 15.0002 70.2004 14.9779C70.2449 15.1561 70.2672 15.3009 70.2672 15.4123ZM85.115 15.0448C85.115 15.6685 84.469 16.8046 83.1769 18.4531C82.6868 19.0991 82.297 19.6003 82.0074 19.9568C81.7401 20.2909 81.3168 20.7699 80.7376 21.3936C80.1807 21.9951 79.6683 22.4629 79.2005 22.7971C78.755 23.1312 78.2203 23.4319 77.5966 23.6993C76.9728 23.9666 76.3602 24.1002 75.7588 24.1002C75.1573 24.1002 74.3999 23.922 73.4865 23.5656C72.5955 23.2092 72.1499 22.7859 72.1499 22.2958C72.1499 22.1844 72.2724 22.0508 72.5175 21.8948C72.7625 21.7166 73.0633 21.5496 73.4197 21.3936C73.7761 21.2154 73.9766 21.1152 74.0212 21.0929C75.0459 20.4914 75.9036 19.734 76.5941 18.8207C77.307 17.885 77.6634 16.8937 77.6634 15.8467C77.6634 15.3789 77.5186 14.9779 77.229 14.6438C76.9617 14.2873 76.5941 14.1091 76.1263 14.1091C75.4135 14.1091 74.5113 14.6995 73.4197 15.8801C72.3504 17.0608 71.671 18.0298 71.3814 18.7872C71.2477 19.1214 71.1029 19.6783 70.947 20.458C70.791 21.2154 70.7019 21.6609 70.6797 21.7946C69.1648 28.3217 67.9285 32.3204 66.9706 33.7906H66.8369C66.5028 32.7436 66.3357 31.4182 66.3357 29.8142C66.3357 27.4974 66.7924 25.2698 67.7057 23.1312C67.8171 22.8862 68.0287 22.474 68.3406 21.8948C68.6748 21.3157 68.8864 20.8813 68.9755 20.5917C69.02 20.4134 69.1426 19.6449 69.3431 18.286C69.5435 16.9049 69.7886 15.6574 70.0782 14.5435C70.3901 13.4297 70.7242 12.8282 71.0806 12.7391C72.0163 12.5386 72.5286 12.4384 72.6177 12.4384C72.7291 12.4384 72.7848 12.5275 72.7848 12.7057C72.7848 12.8616 72.718 13.2181 72.5843 13.775C72.4507 14.3319 72.2947 14.9556 72.1165 15.6462C71.9383 16.3368 71.8381 16.7266 71.8158 16.8158C72.239 16.2366 72.6066 15.7576 72.9185 15.3789C73.2303 15.0002 73.6536 14.5547 74.1882 14.0423C74.7229 13.5077 75.2575 13.1067 75.7922 12.8394C76.3491 12.5498 76.906 12.405 77.4629 12.405C78.2872 12.405 78.9221 12.6723 79.3676 13.2069C79.8354 13.7416 80.0693 14.4321 80.0693 15.2787C80.0693 17.7959 78.2872 20.0125 74.7229 21.9283C75.1016 22.5743 75.7365 22.8973 76.6275 22.8973C77.1176 22.8973 77.6411 22.7636 78.1981 22.4963C78.755 22.229 79.323 21.7946 79.9022 21.1931C80.5037 20.5917 81.0049 20.0793 81.4059 19.656C81.8069 19.2105 82.3081 18.5533 82.9096 17.6845C83.5333 16.8158 83.912 16.27 84.0457 16.0472C84.2016 15.8022 84.5247 15.3121 85.0147 14.5769C85.0816 14.7106 85.115 14.8665 85.115 15.0448ZM68.6748 22.7302C67.6055 24.4455 67.0708 26.6843 67.0708 29.4467C67.0708 30.0704 67.1488 30.6273 67.3047 31.1174C67.8839 29.9813 68.3406 27.1856 68.6748 22.7302ZM95.5261 15.4123C95.5261 15.947 95.0138 16.9383 93.989 18.3863C92.9643 19.812 91.7391 21.1709 90.3134 22.4629C88.9099 23.7327 87.7738 24.3676 86.905 24.3676C85.858 24.3676 85.0895 23.9666 84.5994 23.1646C84.1093 22.3627 83.8643 21.3936 83.8643 20.2575C83.8643 17.7625 84.6662 14.1871 86.2702 9.53126C87.8741 4.85315 89.5114 1.9349 91.1822 0.776506L91.4161 0.743092C91.7948 1.14407 91.9841 1.95717 91.9841 3.18239C91.9841 7.90506 90.1129 12.65 86.3704 17.4172C86.1476 18.6647 86.0362 19.6003 86.0362 20.2241C86.0362 22.1399 86.582 23.0978 87.6736 23.0978C89.1661 23.0978 91.6611 20.4803 95.1586 15.2452C95.2922 15.0448 95.3813 14.9111 95.4259 14.8443C95.4927 15.0002 95.5261 15.1896 95.5261 15.4123ZM90.1797 6.75781C90.1797 5.91129 90.0795 4.88656 89.879 3.68362C88.1414 7.09196 87.0276 11.2243 86.5375 16.0806C88.9656 12.895 90.1797 9.78744 90.1797 6.75781ZM110.377 15.4791C110.377 16.2811 109.185 17.9964 106.801 20.6251C104.44 23.2537 102.702 24.9579 101.589 25.7376C100.453 30.0147 98.3808 32.6991 95.3734 33.7906L95.1729 33.7572C95.017 33.3562 94.939 32.8884 94.939 32.3538C94.939 29.9702 96.5986 27.5643 99.9179 25.1361C100.007 24.5346 100.129 23.8663 100.285 23.1312C100.464 22.3961 100.62 21.7946 100.753 21.3268C100.887 20.8367 101.087 20.1461 101.355 19.2551C101.644 18.364 101.834 17.7514 101.923 17.4172C99.2718 21.8057 96.8771 24 94.7385 24C94.2039 24 93.7806 23.8106 93.4688 23.4319C93.1792 23.0532 93.0344 22.5966 93.0344 22.0619C93.0344 21.6164 93.1792 20.9592 93.4688 20.0904L95.6407 13.374C95.7076 13.129 95.986 12.9507 96.4761 12.8394C96.9885 12.7057 97.3895 12.6611 97.6791 12.7057L97.8795 12.8728C97.7459 13.5856 97.2669 15.067 96.4427 17.317C95.6185 19.5669 95.2063 21.182 95.2063 22.1622C95.2063 22.3404 95.2732 22.4963 95.4068 22.63C95.5405 22.7414 95.6964 22.7971 95.8746 22.7971C96.5429 22.7971 97.3449 22.2847 98.2805 21.26C99.2161 20.2352 100.04 19.1103 100.753 17.885C101.488 16.6375 102.157 15.4903 102.758 14.4433C103.382 13.3963 103.761 12.8616 103.894 12.8394C104.563 12.728 105.042 12.6723 105.331 12.6723L105.565 12.8394C105.565 12.9285 105.52 13.0955 105.431 13.3406C105.365 13.5634 105.275 13.8195 105.164 14.1091C105.053 14.3987 104.986 14.5658 104.964 14.6104C103.805 17.6845 102.78 21.0149 101.889 24.6015C102.892 23.7772 103.928 22.7748 104.997 21.5941C106.089 20.4134 106.98 19.3887 107.67 18.5199C108.361 17.6289 109.23 16.4705 110.277 15.0448C110.343 15.1784 110.377 15.3232 110.377 15.4791ZM99.851 26.1052C97.5565 27.6868 96.4093 29.3798 96.4093 31.1842C96.4093 31.563 96.4873 31.9639 96.6432 32.3872C98.3585 31.4738 99.4278 29.3798 99.851 26.1052Z" fill="#B9D478"/>
</svg>
