<svg width="112" height="32" viewBox="0 0 112 32" fill="none" xmlns="http://www.w3.org/2000/svg">
<path d="M97.3337 32C94.2729 32 91.6514 31.3315 89.4692 29.9947C87.287 28.6435 85.6078 26.7662 84.4317 24.3627C83.2697 21.9591 82.6887 19.1715 82.6887 16C82.6887 12.8284 83.2697 10.0409 84.4317 7.63732C85.6078 5.23377 87.287 3.36355 89.4692 2.02666C91.6514 0.675548 94.2729 -7.62939e-06 97.3337 -7.62939e-06C100.395 -7.62939e-06 103.016 0.675548 105.198 2.02666C107.395 3.36355 109.074 5.23377 110.236 7.63732C111.412 10.0409 112 12.8284 112 16C112 19.1715 111.412 21.9591 110.236 24.3627C109.074 26.7662 107.395 28.6435 105.198 29.9947C103.016 31.3315 100.395 32 97.3337 32ZM97.3337 27.1573C99.3884 27.1715 101.096 26.7164 102.456 25.792C103.831 24.8675 104.858 23.5662 105.538 21.888C106.233 20.2098 106.58 18.2471 106.58 16C106.58 13.7529 106.233 11.8044 105.538 10.1547C104.858 8.49066 103.831 7.19644 102.456 6.27199C101.096 5.34755 99.3884 4.8711 97.3337 4.84266C95.279 4.82844 93.5715 5.28355 92.2112 6.20799C90.8508 7.13244 89.8235 8.43377 89.1291 10.112C88.4489 11.7902 88.1089 13.7529 88.1089 16C88.1089 18.2471 88.4489 20.2027 89.1291 21.8667C89.8093 23.5164 90.8296 24.8035 92.1899 25.728C93.5644 26.6524 95.279 27.1289 97.3337 27.1573Z" fill="white"/>
<path d="M65.8789 32C63.8951 32 62.0317 31.6515 60.2887 30.9547C58.5599 30.2435 57.0366 29.2053 55.7188 27.84C54.4151 26.4747 53.3949 24.8035 52.658 22.8267C51.9212 20.8355 51.5527 18.56 51.5527 16C51.5527 12.6435 52.1762 9.77777 53.4232 7.40266C54.6702 5.01333 56.3777 3.18577 58.5458 1.91999C60.7138 0.639992 63.1582 -7.62939e-06 65.8789 -7.62939e-06C69.6482 -7.62939e-06 72.6311 0.88177 74.8275 2.64532C77.038 4.39466 78.533 6.8551 79.3124 10.0267L74.0835 10.8587C73.5025 9.03821 72.5531 7.58755 71.2353 6.50666C69.9174 5.41155 68.2383 4.86399 66.1977 4.86399C64.143 4.83555 62.4355 5.28355 61.0752 6.20799C59.7148 7.13244 58.6875 8.43377 57.9931 10.112C57.313 11.7902 56.9729 13.7529 56.9729 16C56.9729 18.2471 57.313 20.2027 57.9931 21.8667C58.6733 23.5164 59.6936 24.8035 61.0539 25.728C62.4284 26.6524 64.143 27.1289 66.1977 27.1573C67.7423 27.1715 69.0956 26.8942 70.2575 26.3253C71.4195 25.7422 72.3689 24.8675 73.1058 23.7013C73.8426 22.5209 74.3386 21.0489 74.5937 19.2853H69.1948V15.2533H80.035C80.0634 15.4809 80.0846 15.8151 80.0988 16.256C80.113 16.6969 80.1201 16.96 80.1201 17.0453C80.1201 19.9467 79.5462 22.528 78.3984 24.7893C77.2648 27.0364 75.6352 28.8 73.5096 30.08C71.3841 31.36 68.8405 32 65.8789 32Z" fill="white"/>
<path d="M34.3562 32C31.2954 32 28.6739 31.3315 26.4917 29.9947C24.3094 28.6435 22.6303 26.7662 21.4541 24.3627C20.2922 21.9591 19.7112 19.1715 19.7112 16C19.7112 12.8284 20.2922 10.0409 21.4541 7.63732C22.6303 5.23377 24.3094 3.36355 26.4917 2.02666C28.6739 0.675548 31.2954 -7.62939e-06 34.3562 -7.62939e-06C37.417 -7.62939e-06 40.0385 0.675548 42.2207 2.02666C44.4171 3.36355 46.0963 5.23377 47.2583 7.63732C48.4344 10.0409 49.0225 12.8284 49.0225 16C49.0225 19.1715 48.4344 21.9591 47.2583 24.3627C46.0963 26.7662 44.4171 28.6435 42.2207 29.9947C40.0385 31.3315 37.417 32 34.3562 32ZM34.3562 27.1573C36.4109 27.1715 38.1184 26.7164 39.4788 25.792C40.8533 24.8675 41.8806 23.5662 42.5608 21.888C43.2551 20.2098 43.6023 18.2471 43.6023 16C43.6023 13.7529 43.2551 11.8044 42.5608 10.1547C41.8806 8.49066 40.8533 7.19644 39.4788 6.27199C38.1184 5.34755 36.4109 4.8711 34.3562 4.84266C32.3015 4.82844 30.594 5.28355 29.2336 6.20799C27.8733 7.13244 26.8459 8.43377 26.1516 10.112C25.4714 11.7902 25.1313 13.7529 25.1313 16C25.1313 18.2471 25.4714 20.2027 26.1516 21.8667C26.8318 23.5164 27.852 24.8035 29.2124 25.728C30.5869 26.6524 32.3015 27.1289 34.3562 27.1573Z" fill="white"/>
<path d="M0 31.36V0.640007H5.12257V26.5387H18.641V31.36H0Z" fill="white"/>
</svg>
