<svg width="150" height="77" viewBox="0 0 150 77" fill="none" xmlns="http://www.w3.org/2000/svg">
<path d="M21.3901 10.36H14.0311V37.5882H7.65334V10.36H0.294359V4.86531H21.3901V10.36ZM43.5839 4.86531V10.36H31.8096V17.6699H43.0933V23.1646H31.8096V32.0935H43.5839V37.5882H25.4318V4.86531H43.5839ZM49.7701 4.86531H59.2877C61.3155 4.86531 62.9672 5.04519 64.2427 5.40497C65.551 5.73203 66.7775 6.38616 67.9222 7.36736C70.1462 9.32975 71.2583 11.9626 71.2583 15.266C71.2583 18.3404 70.3588 20.7771 68.56 22.5759C66.6303 24.5056 63.8666 25.4704 60.2689 25.4704H56.1478V37.5882H49.7701V4.86531ZM56.1478 10.36V19.9757H58.748C60.6123 19.9757 62.0023 19.6323 62.9181 18.9455C64.0955 18.0297 64.6843 16.7541 64.6843 15.1188C64.6843 13.5162 64.0792 12.2733 62.869 11.3903C61.8878 10.7034 60.3833 10.36 58.3555 10.36H56.1478ZM75.9768 4.86531H82.3546V32.0935H92.4609V37.5882H75.9768V4.86531Z" fill="#F3EEE7"/>
<rect x="99.3956" y="8.31758" width="46.5413" height="25.208" rx="12.604" stroke="#F3EEE7" stroke-width="6.54131"/>
<path d="M1.63477 43.3724H26.0324C28.021 43.3724 29.6407 43.5488 30.8916 43.9016C32.1745 44.2223 33.3773 44.8638 34.4999 45.826C36.6809 47.7504 37.7714 50.3323 37.7714 53.5718C37.7714 56.5867 36.8893 58.9762 35.1253 60.7402C33.2329 62.6325 30.5227 63.5787 26.9946 63.5787H7.8891V75.4619H1.63477V43.3724ZM7.8891 48.7607V58.1904H10.4389C12.2671 58.1904 28.6945 57.8536 29.5926 57.18C30.7473 56.282 31.3246 55.0311 31.3246 53.4274C31.3246 51.8558 30.7312 50.637 29.5445 49.771C28.5823 49.0975 12.0426 48.7607 10.0541 48.7607H7.8891Z" fill="#F3EEE7"/>
<path d="M42.6918 43.3724H48.9461V70.0736H58.8568V75.4619H42.6918V43.3724Z" fill="#F3EEE7"/>
<path d="M87.4952 75.4619L84.6567 68.7265H71.715L68.8765 75.4619H62.093L75.9006 43.3724H80.8079L94.2307 75.4619H87.4952ZM73.6876 63.6268H82.8285L78.258 52.0803L73.6876 63.6268Z" fill="#F3EEE7"/>
<path d="M121.672 66.9945V74.3073C119.299 75.5582 116.653 76.1836 113.734 76.1836C109.051 76.1836 105.138 74.6922 101.995 71.7093C98.5633 68.4058 96.8474 64.3164 96.8474 59.4412C96.8474 54.2453 98.5633 50.0597 101.995 46.8844C105.01 44.062 108.939 42.6507 113.782 42.6507C116.605 42.6507 119.235 43.3082 121.672 44.6232V51.936C119.588 49.5305 117.006 48.3277 113.927 48.3277C110.783 48.3277 108.217 49.4343 106.229 51.6474C104.272 53.8284 103.294 56.4584 103.294 59.5374C103.294 62.9052 104.385 65.5833 106.566 67.5719C108.747 69.5283 111.281 70.5066 114.167 70.5066C117.182 70.5066 119.684 69.3359 121.672 66.9945Z" fill="#F3EEE7"/>
<path d="M146.666 43.3724V48.7607H135.12V55.9292H146.185V61.3175H135.12V70.0736H146.666V75.4619H128.866V43.3724H146.666Z" fill="#F3EEE7"/>
</svg>
