<svg width="176" height="55" viewBox="0 0 176 55" fill="none" xmlns="http://www.w3.org/2000/svg">
<path d="M88.9176 25.6562H85.1847C85.1165 25.1733 84.9773 24.7443 84.767 24.3693C84.5568 23.9886 84.2869 23.6648 83.9574 23.3977C83.6278 23.1307 83.2472 22.9261 82.8153 22.7841C82.3892 22.642 81.9261 22.571 81.4261 22.571C80.5227 22.571 79.7358 22.7955 79.0653 23.2443C78.3949 23.6875 77.875 24.3352 77.5057 25.1875C77.1364 26.0341 76.9517 27.0625 76.9517 28.2727C76.9517 29.517 77.1364 30.5625 77.5057 31.4091C77.8807 32.2557 78.4034 32.8949 79.0739 33.3267C79.7443 33.7585 80.5199 33.9744 81.4006 33.9744C81.8949 33.9744 82.3523 33.9091 82.7727 33.7784C83.1989 33.6477 83.5767 33.4574 83.9062 33.2074C84.2358 32.9517 84.5085 32.642 84.7244 32.2784C84.946 31.9148 85.0994 31.5 85.1847 31.0341L88.9176 31.0511C88.821 31.8523 88.5795 32.625 88.1932 33.3693C87.8125 34.108 87.2983 34.7699 86.6506 35.3551C86.0085 35.9347 85.2415 36.3949 84.3494 36.7358C83.4631 37.071 82.4602 37.2386 81.3409 37.2386C79.7841 37.2386 78.392 36.8864 77.1648 36.1818C75.9432 35.4773 74.9773 34.4574 74.267 33.1222C73.5625 31.7869 73.2102 30.1705 73.2102 28.2727C73.2102 26.3693 73.5682 24.75 74.2841 23.4148C75 22.0795 75.9716 21.0625 77.1989 20.3636C78.4261 19.6591 79.8068 19.3068 81.3409 19.3068C82.3523 19.3068 83.2898 19.4489 84.1534 19.733C85.0227 20.017 85.7926 20.4318 86.4631 20.9773C87.1335 21.517 87.679 22.179 88.0994 22.9631C88.5256 23.7472 88.7983 24.6449 88.9176 25.6562ZM91.4957 37V23.9091H95.0156V26.1932H95.152C95.3906 25.3807 95.7912 24.767 96.3537 24.3523C96.9162 23.9318 97.5639 23.7216 98.2969 23.7216C98.4787 23.7216 98.6747 23.733 98.8849 23.7557C99.0952 23.7784 99.2798 23.8097 99.4389 23.8494V27.071C99.2685 27.0199 99.0327 26.9744 98.7315 26.9347C98.4304 26.8949 98.1548 26.875 97.9048 26.875C97.3707 26.875 96.8935 26.9915 96.473 27.2244C96.0582 27.4517 95.7287 27.7699 95.4844 28.179C95.2457 28.5881 95.1264 29.0597 95.1264 29.5938V37H91.4957ZM103.956 41.9091C103.496 41.9091 103.064 41.8722 102.661 41.7983C102.263 41.7301 101.933 41.642 101.672 41.5341L102.49 38.8239C102.916 38.9545 103.3 39.0256 103.641 39.0369C103.987 39.0483 104.286 38.9688 104.536 38.7983C104.791 38.6278 104.999 38.3381 105.158 37.929L105.371 37.375L100.675 23.9091H104.493L107.203 33.5227H107.339L110.075 23.9091H113.919L108.831 38.4148C108.587 39.1193 108.254 39.733 107.834 40.2557C107.419 40.7841 106.893 41.1903 106.257 41.4744C105.621 41.7642 104.854 41.9091 103.956 41.9091ZM115.777 41.9091V23.9091H119.357V26.108H119.518C119.678 25.7557 119.908 25.3977 120.209 25.0341C120.516 24.6648 120.913 24.358 121.402 24.1136C121.896 23.8636 122.51 23.7386 123.243 23.7386C124.197 23.7386 125.078 23.9886 125.885 24.4886C126.692 24.983 127.337 25.7301 127.82 26.7301C128.303 27.7244 128.544 28.9716 128.544 30.4716C128.544 31.9318 128.308 33.1648 127.837 34.1705C127.371 35.1705 126.734 35.929 125.928 36.446C125.126 36.9574 124.229 37.2131 123.234 37.2131C122.53 37.2131 121.93 37.0966 121.436 36.8636C120.947 36.6307 120.547 36.3381 120.234 35.9858C119.922 35.6278 119.683 35.267 119.518 34.9034H119.408V41.9091H115.777ZM119.331 30.4545C119.331 31.233 119.439 31.9119 119.655 32.4915C119.871 33.071 120.183 33.5227 120.592 33.8466C121.001 34.1648 121.499 34.3239 122.084 34.3239C122.675 34.3239 123.175 34.1619 123.584 33.8381C123.993 33.5085 124.303 33.054 124.513 32.4744C124.729 31.8892 124.837 31.2159 124.837 30.4545C124.837 29.6989 124.732 29.0341 124.521 28.4602C124.311 27.8864 124.001 27.4375 123.592 27.1136C123.183 26.7898 122.68 26.6278 122.084 26.6278C121.493 26.6278 120.993 26.7841 120.584 27.0966C120.18 27.4091 119.871 27.8523 119.655 28.4261C119.439 29 119.331 29.6761 119.331 30.4545ZM137.928 23.9091V26.6364H130.044V23.9091H137.928ZM131.834 20.7727H135.464V32.9773C135.464 33.3125 135.516 33.5739 135.618 33.7614C135.72 33.9432 135.862 34.071 136.044 34.1449C136.232 34.2187 136.447 34.2557 136.692 34.2557C136.862 34.2557 137.033 34.2415 137.203 34.2131C137.374 34.179 137.504 34.1534 137.595 34.1364L138.166 36.8381C137.984 36.8949 137.729 36.9602 137.399 37.0341C137.07 37.1136 136.669 37.1619 136.197 37.179C135.322 37.2131 134.555 37.0966 133.896 36.8295C133.243 36.5625 132.734 36.1477 132.371 35.5852C132.007 35.0227 131.828 34.3125 131.834 33.4545V20.7727ZM146.067 37.2557C144.743 37.2557 143.598 36.9744 142.632 36.4119C141.672 35.8437 140.93 35.054 140.408 34.0426C139.885 33.0256 139.624 31.8466 139.624 30.5057C139.624 29.1534 139.885 27.9716 140.408 26.9602C140.93 25.9432 141.672 25.1534 142.632 24.5909C143.598 24.0227 144.743 23.7386 146.067 23.7386C147.391 23.7386 148.533 24.0227 149.493 24.5909C150.459 25.1534 151.203 25.9432 151.726 26.9602C152.249 27.9716 152.51 29.1534 152.51 30.5057C152.51 31.8466 152.249 33.0256 151.726 34.0426C151.203 35.054 150.459 35.8437 149.493 36.4119C148.533 36.9744 147.391 37.2557 146.067 37.2557ZM146.084 34.4432C146.686 34.4432 147.189 34.2727 147.592 33.9318C147.996 33.5852 148.3 33.1136 148.504 32.517C148.714 31.9205 148.82 31.2415 148.82 30.4801C148.82 29.7188 148.714 29.0398 148.504 28.4432C148.3 27.8466 147.996 27.375 147.592 27.0284C147.189 26.6818 146.686 26.5085 146.084 26.5085C145.476 26.5085 144.964 26.6818 144.55 27.0284C144.141 27.375 143.831 27.8466 143.621 28.4432C143.416 29.0398 143.314 29.7188 143.314 30.4801C143.314 31.2415 143.416 31.9205 143.621 32.517C143.831 33.1136 144.141 33.5852 144.55 33.9318C144.964 34.2727 145.476 34.4432 146.084 34.4432ZM164.408 24.5653C164.339 23.8778 164.047 23.3437 163.53 22.9631C163.013 22.5824 162.311 22.392 161.425 22.392C160.822 22.392 160.314 22.4773 159.899 22.6477C159.484 22.8125 159.166 23.0426 158.945 23.3381C158.729 23.6335 158.621 23.9688 158.621 24.3438C158.609 24.6562 158.675 24.929 158.817 25.1619C158.964 25.3949 159.166 25.5966 159.422 25.767C159.678 25.9318 159.973 26.0767 160.308 26.2017C160.643 26.321 161.001 26.4233 161.382 26.5085L162.95 26.8835C163.712 27.054 164.411 27.2812 165.047 27.5653C165.683 27.8494 166.234 28.1989 166.7 28.6136C167.166 29.0284 167.527 29.517 167.783 30.0795C168.044 30.642 168.178 31.2869 168.183 32.0142C168.178 33.0824 167.905 34.0085 167.365 34.7926C166.831 35.571 166.058 36.1761 165.047 36.608C164.041 37.0341 162.828 37.2472 161.408 37.2472C159.999 37.2472 158.771 37.0312 157.726 36.5994C156.686 36.1676 155.874 35.5284 155.288 34.6818C154.709 33.8295 154.405 32.7756 154.376 31.5199H157.947C157.987 32.1051 158.155 32.5937 158.45 32.9858C158.751 33.3722 159.152 33.6648 159.652 33.8636C160.158 34.0568 160.729 34.1534 161.365 34.1534C161.99 34.1534 162.533 34.0625 162.993 33.8807C163.459 33.6989 163.82 33.446 164.075 33.1222C164.331 32.7983 164.459 32.4261 164.459 32.0057C164.459 31.6136 164.342 31.2841 164.109 31.017C163.882 30.75 163.547 30.5227 163.104 30.3352C162.666 30.1477 162.129 29.9773 161.493 29.8239L159.592 29.3466C158.121 28.9886 156.959 28.429 156.107 27.6676C155.254 26.9062 154.831 25.8807 154.837 24.5909C154.831 23.5341 155.112 22.6108 155.68 21.821C156.254 21.0312 157.041 20.4148 158.041 19.9716C159.041 19.5284 160.178 19.3068 161.45 19.3068C162.746 19.3068 163.876 19.5284 164.842 19.9716C165.814 20.4148 166.57 21.0312 167.109 21.821C167.649 22.6108 167.928 23.5256 167.945 24.5653H164.408ZM170.597 37V23.9091H174.228V37H170.597ZM172.421 22.2216C171.881 22.2216 171.418 22.0426 171.032 21.6847C170.651 21.321 170.461 20.8864 170.461 20.3807C170.461 19.8807 170.651 19.4517 171.032 19.0938C171.418 18.7301 171.881 18.5483 172.421 18.5483C172.961 18.5483 173.421 18.7301 173.802 19.0938C174.188 19.4517 174.381 19.8807 174.381 20.3807C174.381 20.8864 174.188 21.321 173.802 21.6847C173.421 22.0426 172.961 22.2216 172.421 22.2216Z" fill="white"/>
<path fill-rule="evenodd" clip-rule="evenodd" d="M2.58374 30.2513L30.6643 48.9863L35.1134 46.4176L36.1378 45.4203L7.78784 27.2467L2.58374 30.2513Z" fill="url(#paint0_linear_1096_6446)"/>
<path fill-rule="evenodd" clip-rule="evenodd" d="M15.6112 16.7173L2.66254 23.9424L2.62023 30.3631L36.387 11.4553L36.386 11.1888L31.1435 8.07969L15.6112 16.7173Z" fill="url(#paint1_linear_1096_6446)"/>
<path fill-rule="evenodd" clip-rule="evenodd" d="M36.1372 45.4199L38.5806 41.3682L12.4684 24.6839L7.7793 27.4045L36.1372 45.4199Z" fill="url(#paint2_linear_1096_6446)"/>
<path fill-rule="evenodd" clip-rule="evenodd" d="M36.3804 11.1616L2.58316 30.268L7.67356 33.5304L36.3804 17.2551L36.3804 11.1616Z" fill="url(#paint3_linear_1096_6446)"/>
<path fill-rule="evenodd" clip-rule="evenodd" d="M25.9385 45.8668L31.6074 49.7031L59.4478 30.1384L54.308 27.1709L25.9385 45.8668Z" fill="url(#paint4_linear_1096_6446)"/>
<path fill-rule="evenodd" clip-rule="evenodd" d="M46.5001 16.6933L59.3564 23.8669L59.3984 30.2415L25.8737 11.4693L25.8747 11.2041L31.0791 8.1176L46.5001 16.6933Z" fill="url(#paint5_linear_1096_6446)"/>
<path fill-rule="evenodd" clip-rule="evenodd" d="M25.9939 11.241L59.4357 30.1465L54.3818 33.3856L25.9939 17.2911L25.9939 11.241Z" fill="url(#paint6_linear_1096_6446)"/>
<path fill-rule="evenodd" clip-rule="evenodd" d="M36.0947 10.8812L36.1602 39.035L31.1996 42.2679L31.1199 8.01123L31.1202 8.01104L36.0947 10.8812Z" fill="url(#paint7_linear_1096_6446)"/>
<path fill-rule="evenodd" clip-rule="evenodd" d="M26.0426 45.792L31.2138 42.4218L31.1339 8.0806L25.9616 10.9917L26.0426 45.792Z" fill="url(#paint8_linear_1096_6446)"/>
<path d="M26.8877 45.2344L26.0795 39.5236L44.4364 27.6494L49.4349 30.4464L26.8877 45.2344Z" fill="url(#paint9_linear_1096_6446)"/>
<path d="M9.6853 13.4955L31.0809 1.31641L53.4641 14.1538" stroke="url(#paint10_linear_1096_6446)" stroke-width="1.04058"/>
<path d="M53.4636 42.1334L32.068 54.3125L9.68487 41.4751" stroke="url(#paint11_linear_1096_6446)" stroke-width="1.04058"/>
<defs>
<linearGradient id="paint0_linear_1096_6446" x1="30.0506" y1="46.4995" x2="10.4384" y2="32.5812" gradientUnits="userSpaceOnUse">
<stop stop-color="#02064A"/>
<stop offset="1" stop-color="#0134B9"/>
</linearGradient>
<linearGradient id="paint1_linear_1096_6446" x1="5.0613" y1="25.3062" x2="28.6318" y2="12.9631" gradientUnits="userSpaceOnUse">
<stop stop-color="#0285E3"/>
<stop offset="1" stop-color="#01C3FD"/>
</linearGradient>
<linearGradient id="paint2_linear_1096_6446" x1="29.1016" y1="39.5399" x2="13.6017" y2="27.8358" gradientUnits="userSpaceOnUse">
<stop stop-color="#4077E2"/>
<stop offset="1" stop-color="#185DEE"/>
</linearGradient>
<linearGradient id="paint3_linear_1096_6446" x1="6.95979" y1="31.3171" x2="27.9628" y2="21.7871" gradientUnits="userSpaceOnUse">
<stop stop-color="#0136BD"/>
<stop offset="1" stop-color="#02064A"/>
</linearGradient>
<linearGradient id="paint4_linear_1096_6446" x1="52.6293" y1="31.9753" x2="15.0441" y2="52.6313" gradientUnits="userSpaceOnUse">
<stop stop-color="#012897"/>
<stop offset="1" stop-color="#004DF4"/>
</linearGradient>
<linearGradient id="paint5_linear_1096_6446" x1="57.2546" y1="25.9381" x2="34.6373" y2="13.8989" gradientUnits="userSpaceOnUse">
<stop stop-color="#01C3FD"/>
<stop offset="1" stop-color="#0285E3"/>
</linearGradient>
<linearGradient id="paint6_linear_1096_6446" x1="36.0607" y1="13.6019" x2="34.6705" y2="52.212" gradientUnits="userSpaceOnUse">
<stop stop-color="#02064A"/>
<stop offset="1" stop-color="#004DF4"/>
</linearGradient>
<linearGradient id="paint7_linear_1096_6446" x1="34.1634" y1="13.2845" x2="34.4796" y2="39.2232" gradientUnits="userSpaceOnUse">
<stop stop-color="#0285E3"/>
<stop offset="0.494792" stop-color="#0194FE"/>
<stop offset="1" stop-color="#01C3FD"/>
</linearGradient>
<linearGradient id="paint8_linear_1096_6446" x1="30.3675" y1="9.80496" x2="30.3675" y2="35.7437" gradientUnits="userSpaceOnUse">
<stop stop-color="#233B8D"/>
<stop offset="1" stop-color="#1A5FED"/>
</linearGradient>
<linearGradient id="paint9_linear_1096_6446" x1="16.1326" y1="50.6119" x2="57.8876" y2="21.5099" gradientUnits="userSpaceOnUse">
<stop stop-color="#004DF4"/>
<stop offset="1" stop-color="#5786DB"/>
</linearGradient>
<linearGradient id="paint10_linear_1096_6446" x1="31.5747" y1="1.31641" x2="31.5747" y2="14.1538" gradientUnits="userSpaceOnUse">
<stop stop-color="white"/>
<stop offset="1" stop-color="white" stop-opacity="0"/>
</linearGradient>
<linearGradient id="paint11_linear_1096_6446" x1="31.5742" y1="54.3125" x2="31.5742" y2="41.4751" gradientUnits="userSpaceOnUse">
<stop stop-color="white"/>
<stop offset="1" stop-color="white" stop-opacity="0"/>
</linearGradient>
</defs>
</svg>
