<svg id="Layer_1" data-name="Layer 1" xmlns="http://www.w3.org/2000/svg" viewBox="0 0 225.2 87.64"><defs><style>.cls-1{fill:#fff;}.cls-2{fill:#ef373e;}</style></defs><path class="cls-1" d="M1,86.64V25.7H14v4.52c1.87-2.84,6.66-5.59,13-5.59,12.78,0,20.49,9.76,20.49,23,0,13.48-8.69,23.15-21,23.15-5.68,0-9.93-2-12-4.43V86.64ZM24.24,36.79c-5.23,0-9.93,3.55-9.93,10.91s4.7,11,9.93,11,10-3.64,10-11S29.57,36.79,24.24,36.79Z"/><path class="cls-1" d="M81.81,39a18.08,18.08,0,0,0-4.26-.45c-5.41,0-10.29,3.19-10.29,12V69.79H53.78V25.7h13v5.94c2.31-5,7.89-6.38,11.44-6.38a13.21,13.21,0,0,1,3.55.44Z"/><path class="cls-1" d="M131.76,47.7c0,13.66-10.21,23.42-23.42,23.42S84.92,61.36,84.92,47.7s10.29-23.33,23.42-23.33S131.76,34,131.76,47.7Zm-13.49,0c0-7.45-4.79-10.91-9.93-10.91S98.4,40.25,98.4,47.7s4.88,11,9.94,11S118.27,55.15,118.27,47.7Z"/><path class="cls-1" d="M155.36,37.32V69.79H141.87V37.32h-7V25.7h7V21.89c0-10.12,6.12-17,16.86-17a15,15,0,0,1,4.61.73v11a6.39,6.39,0,0,0-2.22-.15c-2.39.09-5.76,1.06-5.76,5.94V25.7h11.71V37.32Z"/><path class="cls-1" d="M175.2,69.79V25.7h13.48V69.79Z"/><path class="cls-1" d="M215.77,25.7h7.45V37.35h-7.45V54c0,3.63,1.95,4.61,4.88,4.61a16.43,16.43,0,0,0,3.55-.45V69.34a16,16,0,0,1-7,1.24c-9.14,0-14.73-5.41-14.73-14.19v-19h-5.65V25.7s6.85.6,6.9-7.19V12.84h12.06Z"/><rect class="cls-2" x="175.2" y="3.79" width="13.48" height="13.48" transform="translate(45.84 131.74) rotate(-45)"/></svg>