<svg width="218" height="52" viewBox="0 0 218 52" fill="none" xmlns="http://www.w3.org/2000/svg">
<rect x="0.963745" y="0.449707" width="216.844" height="51.2" rx="8.53333" fill="black"/>
<path d="M36.9582 27.1348C36.9751 25.8265 37.3226 24.5437 37.9685 23.4058C38.6143 22.2679 39.5375 21.3118 40.6521 20.6265C39.944 19.6153 39.0099 18.783 37.9239 18.1959C36.8379 17.6088 35.63 17.283 34.396 17.2444C31.7639 16.9681 29.2121 18.8195 27.8708 18.8195C26.5035 18.8195 24.4384 17.2718 22.2146 17.3176C20.7761 17.3641 19.3743 17.7824 18.1455 18.5317C16.9168 19.2811 15.9032 20.3359 15.2034 21.5935C12.1719 26.842 14.4331 34.5557 17.337 38.7982C18.7899 40.8757 20.4879 43.1963 22.7097 43.114C24.8839 43.0238 25.6959 41.7276 28.3204 41.7276C30.9204 41.7276 31.6823 43.114 33.9492 43.0616C36.2822 43.0238 37.7521 40.975 39.154 38.8778C40.1979 37.3976 41.0012 35.7616 41.5341 34.0304C40.1787 33.4571 39.022 32.4975 38.2083 31.2713C37.3946 30.0451 36.9598 28.6064 36.9582 27.1348Z" fill="white"/>
<path d="M32.6766 14.4544C33.9486 12.9273 34.5753 10.9646 34.4235 8.98291C32.4801 9.18703 30.685 10.1159 29.3957 11.5843C28.7654 12.3017 28.2826 13.1363 27.975 14.0403C27.6674 14.9444 27.541 15.9003 27.603 16.8532C28.575 16.8632 29.5367 16.6525 30.4155 16.237C31.2943 15.8215 32.0674 15.212 32.6766 14.4544Z" fill="white"/>
<path d="M69.0489 39.0357V26.584H68.9664L63.8668 38.9066H61.9203L56.8074 26.584H56.7262V39.0357H54.3341V22.1177H57.3715L62.8463 35.4714H62.9394L68.4036 22.1177H71.4516V39.0357L69.0489 39.0357Z" fill="white"/>
<path d="M73.4727 35.5299C73.4727 33.3733 75.1251 32.0707 78.0574 31.8951L81.4341 31.7075V30.7695C81.4341 29.3978 80.5307 28.6235 78.994 28.6235C78.4249 28.5478 77.8477 28.6824 77.3707 29.0021C76.8938 29.3218 76.5499 29.8045 76.4037 30.3597H74.0355C74.106 28.1312 76.1815 26.5493 79.0646 26.5493C82.0075 26.5493 83.954 28.1552 83.954 30.582V39.0356H81.5272V37.0067H81.4686C81.08 37.6947 80.5136 38.2656 79.8288 38.6597C79.144 39.0539 78.3658 39.2567 77.5757 39.2472C77.0568 39.2979 76.5331 39.2396 76.038 39.076C75.543 38.9123 75.0877 38.6469 74.7013 38.2969C74.3149 37.9468 74.006 37.5198 73.7944 37.0433C73.5828 36.5668 73.4732 36.0513 73.4727 35.5299ZM81.4341 34.4163V33.4664L78.3967 33.654C76.8839 33.7484 76.0285 34.4043 76.0285 35.4594C76.0285 36.5384 76.9199 37.2422 78.2796 37.2422C78.6734 37.2689 79.0685 37.2165 79.4418 37.0881C79.815 36.9597 80.1587 36.7578 80.4527 36.4945C80.7467 36.2311 80.985 35.9115 81.1536 35.5546C81.3221 35.1977 81.4175 34.8107 81.4341 34.4163H81.4341Z" fill="white"/>
<path d="M94.5855 30.9453C94.4748 30.2706 94.1143 29.6622 93.5758 29.2409C93.0372 28.8197 92.3599 28.6164 91.6784 28.6715C89.732 28.6715 88.4428 30.3013 88.4428 32.8691C88.4428 35.4954 89.744 37.0773 91.701 37.0773C92.3735 37.1446 93.0463 36.953 93.5823 36.5413C94.1182 36.1297 94.477 35.5291 94.5855 34.8621H97.0241C96.8724 36.1376 96.2288 37.3035 95.2304 38.1116C94.2319 38.9197 92.9575 39.3062 91.6784 39.1887C88.1608 39.1887 85.863 36.7846 85.863 32.8691C85.863 29.0348 88.1607 26.5495 91.6545 26.5495C92.943 26.4402 94.2232 26.8387 95.2221 27.6599C96.221 28.481 96.8595 29.66 97.0016 30.9453H94.5855Z" fill="white"/>
<path d="M113.477 34.4629H107.028L105.479 39.0357H102.748L108.856 22.1177H111.694L117.802 39.0357H115.024L113.477 34.4629ZM107.696 32.3528H112.807L110.288 24.9316H110.217L107.696 32.3528Z" fill="white"/>
<path d="M130.993 32.8691C130.993 36.7022 128.942 39.1648 125.846 39.1648C125.061 39.2058 124.281 39.0252 123.595 38.6435C122.909 38.2619 122.344 37.6946 121.965 37.0068H121.906V43.1162H119.374V26.7012H121.825V28.7527H121.872C122.268 28.0682 122.843 27.5039 123.534 27.1199C124.226 26.7359 125.009 26.5466 125.799 26.5721C128.93 26.5721 130.993 29.0467 130.993 32.8691ZM128.391 32.8691C128.391 30.3719 127.1 28.7301 125.131 28.7301C123.197 28.7301 121.896 30.4065 121.896 32.8691C121.896 35.3544 123.197 37.0188 125.131 37.0188C127.1 37.0188 128.391 35.389 128.391 32.8691Z" fill="white"/>
<path d="M144.569 32.8691C144.569 36.7021 142.518 39.1648 139.422 39.1648C138.637 39.2058 137.857 39.0252 137.171 38.6435C136.485 38.2619 135.92 37.6946 135.541 37.0068H135.482V43.1162H132.95V26.7012H135.401V28.7527H135.448C135.844 28.0682 136.419 27.5039 137.11 27.1199C137.802 26.7359 138.584 26.5466 139.375 26.5721C142.506 26.5721 144.569 29.0467 144.569 32.8691ZM141.967 32.8691C141.967 30.3719 140.676 28.7301 138.707 28.7301C136.773 28.7301 135.472 30.4065 135.472 32.8691C135.472 35.3544 136.773 37.0188 138.707 37.0188C140.676 37.0188 141.967 35.389 141.967 32.8691H141.967Z" fill="white"/>
<path d="M153.542 34.3218C153.729 35.9995 155.359 37.101 157.586 37.101C159.72 37.101 161.256 35.9994 161.256 34.4867C161.256 33.1735 160.33 32.3873 158.137 31.8484L155.945 31.3202C152.838 30.5699 151.396 29.117 151.396 26.7594C151.396 23.8404 153.94 21.8354 157.552 21.8354C161.127 21.8354 163.577 23.8404 163.66 26.7594H161.104C160.951 25.0711 159.555 24.052 157.516 24.052C155.476 24.052 154.08 25.0831 154.08 26.5838C154.08 27.7799 154.972 28.4837 157.153 29.0225L159.016 29.4802C162.488 30.3011 163.93 31.6954 163.93 34.17C163.93 37.3351 161.409 39.3175 157.399 39.3175C153.647 39.3175 151.114 37.3817 150.95 34.3217L153.542 34.3218Z" fill="white"/>
<path d="M169.394 23.7822V26.7012H171.739V28.7062H169.394V35.5061C169.394 36.5625 169.864 37.0548 170.895 37.0548C171.173 37.0499 171.451 37.0304 171.728 36.9962V38.9892C171.264 39.0758 170.793 39.1151 170.321 39.1063C167.824 39.1063 166.85 38.1683 166.85 35.7762V28.7062H165.057V26.7012H166.85V23.7822H169.394Z" fill="white"/>
<path d="M173.097 32.8689C173.097 28.988 175.382 26.5493 178.947 26.5493C182.523 26.5493 184.798 28.988 184.798 32.8689C184.798 36.7605 182.535 39.1886 178.947 39.1886C175.36 39.1886 173.097 36.7605 173.097 32.8689ZM182.218 32.8689C182.218 30.2067 180.998 28.6355 178.947 28.6355C176.895 28.6355 175.675 30.2187 175.675 32.8689C175.675 35.5418 176.895 37.1011 178.947 37.1011C180.998 37.1011 182.218 35.5418 182.218 32.8689H182.218Z" fill="white"/>
<path d="M186.887 26.701H189.301V28.8005H189.36C189.523 28.1448 189.908 27.5653 190.448 27.1595C190.988 26.7536 191.652 26.5462 192.327 26.572C192.619 26.5709 192.91 26.6026 193.194 26.6664V29.0346C192.826 28.9221 192.442 28.8704 192.057 28.8816C191.689 28.8667 191.322 28.9316 190.982 29.0717C190.642 29.2119 190.336 29.4241 190.085 29.6937C189.834 29.9633 189.645 30.2839 189.53 30.6336C189.415 30.9833 189.377 31.3537 189.419 31.7195V39.0356H186.887V26.701Z" fill="white"/>
<path d="M204.866 35.4128C204.526 37.6519 202.345 39.1886 199.555 39.1886C195.967 39.1886 193.74 36.7844 193.74 32.9275C193.74 29.0585 195.979 26.5493 199.449 26.5493C202.861 26.5493 205.007 28.8936 205.007 32.6335V33.5009H196.296V33.6539C196.255 34.1079 196.312 34.5652 196.462 34.9955C196.613 35.4257 196.852 35.8192 197.166 36.1496C197.48 36.4801 197.861 36.74 198.283 36.912C198.705 37.0841 199.158 37.1644 199.614 37.1477C200.212 37.2037 200.813 37.0652 201.326 36.7526C201.839 36.44 202.238 35.9701 202.462 35.4128L204.866 35.4128ZM196.308 31.7314H202.474C202.497 31.3232 202.435 30.9148 202.292 30.5317C202.15 30.1486 201.93 29.7991 201.646 29.5051C201.361 29.2112 201.02 28.9791 200.642 28.8235C200.264 28.6679 199.858 28.5921 199.449 28.6009C199.037 28.5984 198.628 28.6776 198.246 28.8339C197.865 28.9903 197.518 29.2206 197.226 29.5117C196.934 29.8027 196.702 30.1487 196.545 30.5297C196.387 30.9107 196.307 31.3191 196.308 31.7314L196.308 31.7314Z" fill="white"/>
<path d="M57.7101 9.38325C58.2409 9.34516 58.7735 9.42535 59.2696 9.61803C59.7657 9.81072 60.2128 10.1111 60.5787 10.4975C60.9446 10.8839 61.2202 11.3467 61.3856 11.8525C61.551 12.3583 61.6021 12.8945 61.5351 13.4225C61.5351 16.0195 60.1315 17.5123 57.7101 17.5123H54.7738V9.38325H57.7101ZM56.0364 16.3627H57.5691C57.9484 16.3854 58.3279 16.3232 58.6802 16.1807C59.0324 16.0382 59.3484 15.8189 59.6052 15.5388C59.862 15.2588 60.0531 14.925 60.1647 14.5617C60.2762 14.1985 60.3053 13.815 60.2499 13.4391C60.3013 13.0646 60.2692 12.6835 60.156 12.3229C60.0427 11.9623 59.8511 11.6313 59.5949 11.3534C59.3387 11.0756 59.0242 10.8579 58.674 10.7159C58.3237 10.5739 57.9464 10.5111 57.5691 10.532H56.0364V16.3627Z" fill="white"/>
<path d="M62.9613 14.4423C62.9227 14.0392 62.9689 13.6324 63.0967 13.2481C63.2246 12.8638 63.4313 12.5105 63.7037 12.2108C63.9761 11.9111 64.3081 11.6716 64.6785 11.5078C65.0489 11.3439 65.4494 11.2593 65.8544 11.2593C66.2594 11.2593 66.6599 11.3439 67.0303 11.5078C67.4006 11.6716 67.7327 11.9111 68.005 12.2108C68.2774 12.5105 68.4842 12.8638 68.612 13.2481C68.7399 13.6324 68.786 14.0392 68.7474 14.4423C68.7867 14.8459 68.7412 15.2532 68.6137 15.6381C68.4862 16.023 68.2795 16.377 68.0071 16.6773C67.7346 16.9776 67.4023 17.2175 67.0316 17.3817C66.6608 17.546 66.2599 17.6308 65.8544 17.6308C65.4489 17.6308 65.0479 17.546 64.6772 17.3817C64.3064 17.2175 63.9742 16.9776 63.7017 16.6773C63.4292 16.377 63.2226 16.023 63.0951 15.6381C62.9676 15.2532 62.922 14.8459 62.9613 14.4423ZM67.5021 14.4423C67.5021 13.1125 66.9048 12.3349 65.8564 12.3349C64.804 12.3349 64.212 13.1125 64.212 14.4423C64.212 15.7828 64.804 16.5544 65.8564 16.5544C66.9048 16.5544 67.5021 15.7774 67.5021 14.4423H67.5021Z" fill="white"/>
<path d="M76.4388 17.5121H75.1829L73.9149 12.9939H73.8192L72.5566 17.5121H71.3126L69.6216 11.3774H70.8496L71.9485 16.0586H72.039L73.3003 11.3774H74.4618L75.723 16.0586H75.8188L76.9124 11.3774H78.1231L76.4388 17.5121Z" fill="white"/>
<path d="M79.5454 11.3774H80.7109V12.3519H80.8014C80.9548 12.0019 81.2137 11.7085 81.5419 11.5126C81.87 11.3167 82.2511 11.228 82.6321 11.259C82.9306 11.2365 83.2303 11.2815 83.509 11.3907C83.7878 11.4998 84.0384 11.6702 84.2423 11.8893C84.4462 12.1085 84.5982 12.3707 84.6871 12.6565C84.7759 12.9424 84.7993 13.2446 84.7554 13.5407V17.512H83.5447V13.8447C83.5447 12.8589 83.1163 12.3686 82.2209 12.3686C82.0183 12.3591 81.816 12.3936 81.6279 12.4697C81.4398 12.5458 81.2704 12.6616 81.1313 12.8092C80.9921 12.9569 80.8866 13.1329 80.8218 13.3252C80.7571 13.5175 80.7346 13.7215 80.7561 13.9232V17.5121H79.5454L79.5454 11.3774Z" fill="white"/>
<path d="M86.6846 8.98291H87.8953V17.5124H86.6846V8.98291Z" fill="white"/>
<path d="M89.5783 14.4423C89.5397 14.0392 89.5858 13.6324 89.7137 13.2481C89.8415 12.8638 90.0483 12.5105 90.3207 12.2108C90.5931 11.9111 90.9251 11.6716 91.2954 11.5078C91.6658 11.3439 92.0663 11.2593 92.4713 11.2593C92.8763 11.2593 93.2768 11.3439 93.6472 11.5078C94.0176 11.6716 94.3496 11.9111 94.622 12.2108C94.8944 12.5105 95.1011 12.8638 95.229 13.2481C95.3568 13.6324 95.4029 14.0392 95.3644 14.4423C95.4037 14.8459 95.3581 15.2532 95.2306 15.6381C95.1031 16.023 94.8965 16.377 94.624 16.6773C94.3515 16.9776 94.0193 17.2175 93.6485 17.3817C93.2778 17.546 92.8768 17.6308 92.4713 17.6308C92.0658 17.6308 91.6649 17.546 91.2941 17.3817C90.9234 17.2175 90.5911 16.9776 90.3186 16.6773C90.0462 16.377 89.8395 16.023 89.712 15.6381C89.5845 15.2532 89.539 14.8459 89.5783 14.4423ZM94.1191 14.4423C94.1191 13.1125 93.5217 12.3349 92.4733 12.3349C91.4209 12.3349 90.8289 13.1125 90.8289 14.4423C90.8289 15.7828 91.421 16.5544 92.4733 16.5544C93.5217 16.5544 94.1191 15.7774 94.1191 14.4423H94.1191Z" fill="white"/>
<path d="M96.6389 15.7775C96.6389 14.6732 97.4611 14.0366 98.9206 13.9461L100.582 13.8503V13.3208C100.582 12.6729 100.154 12.307 99.3264 12.307C98.6506 12.307 98.1822 12.5551 98.0479 12.9889H96.8757C96.9995 11.9351 97.9906 11.2593 99.3823 11.2593C100.92 11.2593 101.788 12.0249 101.788 13.3208V17.5124H100.622V16.6503H100.526C100.332 16.9595 100.059 17.2116 99.7353 17.3808C99.4116 17.5501 99.0487 17.6303 98.6838 17.6135C98.4263 17.6402 98.166 17.6128 97.9197 17.5328C97.6735 17.4528 97.4467 17.3221 97.254 17.1492C97.0614 16.9762 96.9071 16.7647 96.8011 16.5285C96.6952 16.2922 96.6399 16.0364 96.6389 15.7775ZM100.582 15.2533V14.7404L99.0843 14.8362C98.2394 14.8927 97.8563 15.1801 97.8563 15.7209C97.8563 16.2731 98.3352 16.5944 98.9939 16.5944C99.1868 16.6139 99.3818 16.5944 99.567 16.5371C99.7523 16.4797 99.9242 16.3857 100.072 16.2606C100.221 16.1354 100.342 15.9818 100.43 15.8087C100.517 15.6357 100.569 15.4468 100.582 15.2533Z" fill="white"/>
<path d="M103.379 14.4424C103.379 12.504 104.376 11.276 105.926 11.276C106.309 11.2583 106.689 11.3501 107.023 11.5407C107.356 11.7313 107.628 12.0128 107.807 12.3522H107.897V8.98291H109.108V17.5124H107.948V16.5432H107.852C107.659 16.8804 107.378 17.1583 107.038 17.347C106.698 17.5357 106.314 17.6278 105.926 17.6135C104.365 17.6136 103.379 16.3855 103.379 14.4424ZM104.63 14.4424C104.63 15.7436 105.243 16.5266 106.269 16.5266C107.289 16.5266 107.92 15.7323 107.92 14.4478C107.92 13.1692 107.283 12.3636 106.269 12.3636C105.25 12.3636 104.63 13.1519 104.63 14.4424H104.63Z" fill="white"/>
<path d="M114.117 14.4424C114.079 14.0392 114.125 13.6325 114.253 13.2482C114.38 12.8639 114.587 12.5105 114.86 12.2108C115.132 11.9111 115.464 11.6717 115.834 11.5078C116.205 11.3439 116.605 11.2593 117.01 11.2593C117.415 11.2593 117.816 11.3439 118.186 11.5078C118.557 11.6717 118.889 11.9111 119.161 12.2108C119.434 12.5105 119.64 12.8639 119.768 13.2482C119.896 13.6325 119.942 14.0392 119.904 14.4424C119.943 14.846 119.897 15.2533 119.77 15.6382C119.642 16.0231 119.436 16.3771 119.163 16.6774C118.891 16.9777 118.558 17.2176 118.188 17.3818C117.817 17.546 117.416 17.6309 117.01 17.6309C116.605 17.6309 116.204 17.546 115.833 17.3818C115.462 17.2176 115.13 16.9777 114.858 16.6774C114.585 16.3771 114.379 16.0231 114.251 15.6382C114.123 15.2533 114.078 14.846 114.117 14.4424ZM118.658 14.4424C118.658 13.1126 118.06 12.335 117.012 12.335C115.96 12.335 115.368 13.1126 115.368 14.4424C115.368 15.7829 115.96 16.5545 117.012 16.5545C118.06 16.5545 118.658 15.7775 118.658 14.4424H118.658Z" fill="white"/>
<path d="M121.528 11.3774H122.694V12.3519H122.784C122.938 12.0019 123.197 11.7085 123.525 11.5126C123.853 11.3167 124.234 11.228 124.615 11.259C124.913 11.2365 125.213 11.2815 125.492 11.3907C125.771 11.4998 126.021 11.6702 126.225 11.8893C126.429 12.1085 126.581 12.3707 126.67 12.6565C126.759 12.9424 126.782 13.2446 126.738 13.5407V17.512H125.528V13.8447C125.528 12.8589 125.099 12.3686 124.204 12.3686C124.001 12.3591 123.799 12.3936 123.611 12.4697C123.423 12.5458 123.253 12.6616 123.114 12.8092C122.975 12.9569 122.869 13.1329 122.805 13.3252C122.74 13.5175 122.718 13.7215 122.739 13.9232V17.5121H121.528V11.3774Z" fill="white"/>
<path d="M133.579 9.8501V11.4054H134.909V12.4252H133.579V15.5797C133.579 16.2223 133.844 16.5037 134.447 16.5037C134.601 16.5032 134.755 16.4938 134.909 16.4757V17.4842C134.691 17.5231 134.471 17.5438 134.25 17.5461C132.904 17.5461 132.367 17.0724 132.367 15.8897V12.4251H131.394V11.4053H132.367V9.8501H133.579Z" fill="white"/>
<path d="M136.562 8.98291H137.763V12.3636H137.858C138.019 12.0103 138.285 11.7152 138.62 11.5186C138.955 11.3219 139.342 11.2332 139.729 11.2646C140.026 11.2485 140.323 11.2981 140.598 11.4098C140.874 11.5216 141.121 11.6928 141.323 11.9113C141.525 12.1297 141.676 12.39 141.766 12.6735C141.855 12.9571 141.881 13.2569 141.842 13.5517V17.5124H140.63V13.8504C140.63 12.8705 140.173 12.3742 139.318 12.3742C139.11 12.3571 138.901 12.3858 138.705 12.458C138.509 12.5303 138.331 12.6445 138.184 12.7927C138.037 12.9408 137.924 13.1193 137.853 13.3157C137.782 13.512 137.755 13.7215 137.773 13.9295V17.5124H136.563L136.562 8.98291Z" fill="white"/>
<path d="M148.901 15.8561C148.737 16.4167 148.38 16.9017 147.894 17.2262C147.408 17.5506 146.824 17.6939 146.243 17.6309C145.839 17.6416 145.437 17.5641 145.066 17.404C144.695 17.2439 144.363 17.0049 144.093 16.7036C143.823 16.4024 143.622 16.046 143.504 15.6594C143.386 15.2727 143.354 14.8649 143.409 14.4644C143.355 14.0627 143.388 13.6541 143.506 13.2662C143.624 12.8784 143.824 12.5204 144.092 12.2165C144.36 11.9126 144.691 11.6699 145.061 11.5047C145.431 11.3396 145.832 11.2559 146.237 11.2594C147.944 11.2594 148.974 12.4256 148.974 14.352V14.7744H144.642V14.8423C144.623 15.0674 144.652 15.294 144.725 15.5076C144.799 15.7211 144.917 15.9169 145.07 16.0824C145.224 16.2478 145.411 16.3793 145.619 16.4684C145.826 16.5575 146.05 16.6023 146.276 16.5998C146.566 16.6345 146.859 16.5824 147.119 16.4499C147.379 16.3175 147.594 16.1108 147.736 15.856L148.901 15.8561ZM144.642 13.879H147.741C147.756 13.6731 147.728 13.4663 147.659 13.2719C147.589 13.0775 147.48 12.8997 147.338 12.75C147.196 12.6004 147.024 12.4821 146.833 12.4028C146.642 12.3236 146.437 12.2851 146.231 12.2898C146.021 12.2872 145.814 12.3265 145.62 12.4054C145.426 12.4844 145.249 12.6014 145.101 12.7495C144.953 12.8976 144.837 13.0738 144.758 13.2678C144.679 13.4618 144.64 13.6696 144.642 13.879H144.642Z" fill="white"/>
</svg>
