<svg width="171" height="52" viewBox="0 0 171 52" fill="none" xmlns="http://www.w3.org/2000/svg">
<rect x="0.692749" y="0.449707" width="169.968" height="51.2" rx="8.53333" fill="black"/>
<path d="M29.7172 8.98291H13.4928V25.2166H29.7172V8.98291Z" fill="white"/>
<path d="M47.626 8.98291H31.4016V25.2166H47.626V8.98291Z" fill="white"/>
<path d="M29.7172 26.8828H13.4928V43.1163H29.7172V26.8828Z" fill="white"/>
<path d="M47.6262 26.8828H31.4019V43.1163H47.6262V26.8828Z" fill="white"/>
<path d="M69.0462 19.5527C68.5184 19.8506 67.959 20.0754 67.3677 20.2271C66.7764 20.3785 66.1533 20.4543 65.4986 20.4543C63.9445 20.4543 62.7107 19.9925 61.7969 19.0689C60.8831 18.1453 60.4261 16.8431 60.4261 15.1619C60.4261 13.4664 60.932 12.1152 61.9435 11.1086C62.9599 10.0971 64.2695 9.59129 65.8724 9.59129C66.4685 9.59129 67.0159 9.65237 67.5143 9.77453C68.0175 9.89181 68.5257 10.0799 69.0389 10.3389L68.5037 11.4164C68.0738 11.1916 67.6511 11.0304 67.2356 10.9327C66.8204 10.8349 66.3634 10.7861 65.8651 10.7861C64.6874 10.7861 63.7197 11.1599 62.9624 11.9075C62.2099 12.6552 61.8335 13.7107 61.8335 15.0741C61.8335 16.4569 62.1658 17.5026 62.8305 18.2112C63.5 18.9149 64.4382 19.2667 65.6451 19.2667C66.0409 19.2667 66.4098 19.2277 66.7519 19.1494C67.0988 19.0714 67.4165 18.9541 67.7047 18.7976V15.939H65.4179V14.7516H69.0462V19.5527ZM77.6661 16.7307H72.2566C72.281 17.5809 72.5083 18.2358 72.9384 18.6949C73.3684 19.1494 73.9719 19.3767 74.7488 19.3767C75.086 19.3767 75.4305 19.3254 75.7823 19.2228C76.139 19.1153 76.4957 18.9419 76.8525 18.7024L77.4464 19.6112C77.0016 19.9045 76.5545 20.1195 76.1049 20.2563C75.6553 20.3931 75.1618 20.4616 74.6242 20.4616C73.4613 20.4616 72.5548 20.1171 71.9048 19.4281C71.255 18.7342 70.9275 17.7667 70.9227 16.5254C70.9178 15.289 71.2452 14.2946 71.9048 13.5421C72.5694 12.7847 73.4294 12.406 74.4849 12.406C75.4916 12.406 76.2736 12.7334 76.8305 13.3882C77.3876 14.0381 77.6661 14.9447 77.6661 16.1075V16.7307ZM76.3541 15.7044C76.3492 14.9959 76.1782 14.4461 75.841 14.0552C75.5087 13.6643 75.0494 13.4688 74.463 13.4688C73.8863 13.4688 73.3977 13.6716 72.9971 14.0772C72.6012 14.4779 72.3593 15.0203 72.2713 15.7044H76.3541ZM83.3615 20.183C83.1513 20.271 82.9412 20.3344 82.7312 20.3736C82.5259 20.4175 82.2938 20.4395 82.0348 20.4395C81.4044 20.4395 80.9109 20.2588 80.5541 19.8972C80.2023 19.5356 80.0265 19.0004 80.0265 18.2919V13.674H78.7143V12.5892H80.0265V10.83L81.3385 10.4122V12.5892H83.2589V13.674H81.3385V18.1526C81.3385 18.5876 81.4166 18.9002 81.573 19.0909C81.7294 19.2815 81.9639 19.3767 82.2767 19.3767C82.4233 19.3767 82.5649 19.3596 82.7017 19.3254C82.8385 19.2913 82.9558 19.2496 83.0536 19.2008L83.3615 20.183ZM89.7899 10.962C89.5309 10.962 89.3159 10.8765 89.1447 10.7054C88.9738 10.5344 88.8882 10.3267 88.8882 10.0824C88.8882 9.82829 88.9738 9.61817 89.1447 9.45202C89.3159 9.28099 89.5309 9.19547 89.7899 9.19547C90.0488 9.19547 90.2639 9.28099 90.4348 9.45202C90.6108 9.61817 90.6986 9.82829 90.6986 10.0824C90.6986 10.3267 90.6108 10.5344 90.4348 10.7054C90.2639 10.8765 90.0488 10.962 89.7899 10.962ZM90.4275 20.2783H89.1228V12.5892H90.4275V20.2783ZM96.8192 20.183C96.6091 20.271 96.3989 20.3344 96.1888 20.3736C95.9837 20.4175 95.7515 20.4395 95.4924 20.4395C94.8621 20.4395 94.3686 20.2588 94.0119 19.8972C93.6601 19.5356 93.484 19.0004 93.484 18.2919V13.674H92.172V12.5892H93.484V10.83L94.7961 10.4122V12.5892H96.7166V13.674H94.7961V18.1526C94.7961 18.5876 94.8743 18.9002 95.0306 19.0909C95.1871 19.2815 95.4217 19.3767 95.7343 19.3767C95.881 19.3767 96.0227 19.3596 96.1595 19.3254C96.2963 19.2913 96.4136 19.2496 96.5113 19.2008L96.8192 20.183ZM106.282 10.207C106.145 10.1581 106.021 10.1239 105.908 10.1044C105.796 10.0848 105.679 10.0751 105.556 10.0751C105.151 10.0751 104.848 10.1826 104.647 10.3976C104.452 10.6126 104.354 10.9278 104.354 11.3431V12.5892H106.121V13.674H104.354V20.2783H103.057V13.674H101.767V12.5892H103.057V11.2772C103.057 10.5588 103.279 9.99687 103.724 9.59129C104.173 9.1857 104.784 8.98291 105.556 8.98291C105.752 8.98291 105.93 8.99757 106.092 9.02689C106.253 9.0562 106.419 9.09775 106.59 9.15149L106.282 10.207ZM111.442 13.7034C111.345 13.674 111.254 13.6521 111.171 13.6374C111.088 13.6227 110.988 13.6154 110.871 13.6154C110.25 13.6154 109.761 13.8793 109.405 14.407C109.048 14.9298 108.869 15.592 108.869 16.3935V20.2783H107.565V12.5892H108.869V14.1138H108.899C109.075 13.5714 109.341 13.161 109.698 12.8824C110.06 12.599 110.477 12.4573 110.951 12.4573C111.103 12.4573 111.232 12.4646 111.34 12.4793C111.452 12.4939 111.555 12.5159 111.648 12.5452L111.442 13.7034ZM116.353 20.4616C115.205 20.4616 114.289 20.1023 113.605 19.384C112.925 18.6608 112.586 17.703 112.586 16.5107C112.586 15.2256 112.938 14.2214 113.641 13.4981C114.345 12.7749 115.305 12.4109 116.522 12.406C117.675 12.4011 118.577 12.7554 119.227 13.4688C119.881 14.1774 120.209 15.1522 120.209 16.3935C120.209 17.6297 119.859 18.6169 119.161 19.3547C118.462 20.0925 117.526 20.4616 116.353 20.4616ZM116.441 19.3767C117.223 19.3767 117.822 19.1226 118.237 18.6144C118.657 18.1012 118.868 17.3756 118.868 16.4374C118.868 15.4894 118.657 14.7613 118.237 14.2531C117.817 13.7449 117.218 13.4908 116.441 13.4908C115.664 13.4908 115.049 13.7571 114.594 14.2898C114.145 14.8174 113.92 15.5457 113.92 16.4742C113.92 17.378 114.147 18.089 114.601 18.6071C115.056 19.1201 115.669 19.3767 116.441 19.3767ZM133.249 20.2783H131.937V15.8583C131.937 15.0227 131.807 14.4192 131.548 14.0479C131.289 13.6765 130.857 13.4908 130.251 13.4908C129.733 13.4908 129.293 13.7253 128.931 14.1945C128.575 14.6636 128.396 15.2304 128.396 15.8951V20.2783H127.092V15.7191C127.092 14.9764 126.948 14.4192 126.659 14.0479C126.376 13.6765 125.948 13.4908 125.376 13.4908C124.844 13.4908 124.404 13.7131 124.057 14.1578C123.715 14.6025 123.544 15.1841 123.544 15.9024V20.2783H122.239V12.5892H123.544V13.806H123.573C123.847 13.3418 124.184 12.9924 124.585 12.7578C124.986 12.5233 125.447 12.406 125.97 12.406C126.498 12.406 126.955 12.5501 127.341 12.8384C127.732 13.1267 128.003 13.5103 128.155 13.9892C128.438 13.4615 128.792 13.0657 129.217 12.8018C129.647 12.5379 130.143 12.406 130.705 12.406C131.551 12.406 132.186 12.6674 132.611 13.1903C133.036 13.7083 133.249 14.4901 133.249 15.5359V20.2783Z" fill="white"/>
<path d="M82.4755 27.0567C82.4755 26.5756 82.6487 26.1907 82.9952 25.8634C83.3416 25.5364 83.7456 25.3823 84.2269 25.3823C84.7272 25.3823 85.1507 25.5555 85.4778 25.8828C85.8051 26.2098 85.9782 26.614 85.9782 27.0567C85.9782 27.5187 85.805 27.9227 85.4587 28.2308C85.1123 28.5579 84.7081 28.7119 84.2076 28.7119C83.7072 28.7119 83.3032 28.5579 82.9566 28.2308C82.6487 27.9035 82.4755 27.5187 82.4755 27.0567ZM85.651 42.7998H82.7834V30.5786H85.651V42.7998Z" fill="white"/>
<path d="M94.3883 40.7102C94.8116 40.7102 95.2927 40.614 95.8125 40.4216C96.3321 40.2291 96.7939 39.9596 97.2366 39.6326V42.3077C96.7748 42.5771 96.2552 42.7696 95.6778 42.9042C95.1004 43.0389 94.4459 43.116 93.7531 43.116C91.9633 43.116 90.5006 42.5386 89.365 41.403C88.2296 40.2676 87.6715 38.8049 87.6715 37.0536C87.6715 35.0904 88.2489 33.4739 89.4037 32.2037C90.5582 30.9335 92.175 30.2983 94.292 30.2983C94.8309 30.2983 95.3699 30.3753 95.9279 30.51C96.486 30.6447 96.9095 30.8179 97.2366 30.9911V33.7433C96.7939 33.4161 96.3321 33.1659 95.8701 32.9927C95.4083 32.8195 94.9272 32.7233 94.4459 32.7233C93.3104 32.7233 92.406 33.089 91.6939 33.8203C91.0009 34.5517 90.6545 35.5524 90.6545 36.8034C90.6545 38.0352 90.9818 38.9974 91.6554 39.6902C92.3289 40.3832 93.2335 40.7102 94.3883 40.7102Z" fill="white"/>
<path d="M105.415 30.3921C105.646 30.3921 105.858 30.4114 106.031 30.4306C106.204 30.469 106.377 30.5077 106.493 30.5461V33.4522C106.339 33.3366 106.127 33.2406 105.838 33.1443C105.55 33.048 105.203 32.9902 104.78 32.9902C104.068 32.9902 103.471 33.279 102.99 33.8755C102.509 34.4723 102.259 35.3767 102.259 36.6277V42.8056H99.3911V30.5846H102.259V32.5091H102.297C102.567 31.8355 102.952 31.3159 103.49 30.9502C104.029 30.5846 104.664 30.3921 105.415 30.3921Z" fill="white"/>
<path d="M106.648 36.8804C106.648 34.8596 107.225 33.2622 108.361 32.069C109.496 30.8949 111.094 30.2983 113.114 30.2983C115.02 30.2983 116.521 30.8757 117.599 32.0112C118.676 33.1466 119.215 34.6864 119.215 36.6109C119.215 38.5932 118.638 40.1713 117.502 41.3454C116.367 42.5193 114.808 43.0967 112.845 43.0967C110.959 43.0967 109.438 42.5386 108.341 41.4223C107.206 40.3254 106.648 38.8049 106.648 36.8804ZM109.65 36.7841C109.65 38.0543 109.939 39.0359 110.516 39.7095C111.094 40.3832 111.921 40.7102 112.999 40.7102C114.038 40.7102 114.846 40.3832 115.385 39.7095C115.924 39.0359 116.213 38.0352 116.213 36.7072C116.213 35.3984 115.924 34.3976 115.366 33.724C114.808 33.0505 114 32.7233 112.98 32.7233C111.921 32.7233 111.113 33.0697 110.516 33.7818C109.939 34.4939 109.65 35.4755 109.65 36.7841Z" fill="white"/>
<path d="M123.488 33.8017C123.488 34.2059 123.623 34.5331 123.873 34.7641C124.142 34.9949 124.72 35.2837 125.605 35.6495C126.76 36.1112 127.568 36.6308 128.03 37.2082C128.492 37.7856 128.723 38.4786 128.723 39.2868C128.723 40.4415 128.28 41.3653 127.395 42.0583C126.51 42.7511 125.316 43.0975 123.815 43.0975C123.315 43.0975 122.757 43.0397 122.141 42.905C121.525 42.7896 121.005 42.6164 120.582 42.4432V39.614C121.102 39.9797 121.66 40.2683 122.275 40.48C122.872 40.6917 123.43 40.8073 123.911 40.8073C124.566 40.8073 125.047 40.711 125.355 40.5378C125.663 40.3646 125.817 40.0567 125.817 39.614C125.817 39.2098 125.663 38.8826 125.336 38.6133C125.008 38.3439 124.412 38.0166 123.507 37.6702C122.449 37.2275 121.698 36.7271 121.255 36.169C120.813 35.6108 120.582 34.8989 120.582 34.052C120.582 32.955 121.024 32.0504 121.891 31.3383C122.757 30.6262 123.892 30.2798 125.297 30.2798C125.72 30.2798 126.202 30.3183 126.741 30.4145C127.279 30.5108 127.722 30.6262 128.068 30.7802V33.5131C127.684 33.263 127.241 33.0511 126.741 32.8588C126.24 32.6856 125.72 32.5893 125.239 32.5893C124.7 32.5893 124.258 32.7047 123.969 32.9164C123.642 33.1282 123.488 33.4362 123.488 33.8017Z" fill="white"/>
<path d="M129.993 36.8804C129.993 34.8596 130.57 33.2622 131.705 32.069C132.841 30.8949 134.438 30.2983 136.459 30.2983C138.364 30.2983 139.866 30.8757 140.943 32.0112C142.021 33.1466 142.56 34.6864 142.56 36.6109C142.56 38.5932 141.983 40.1713 140.847 41.3454C139.712 42.5193 138.153 43.0967 136.19 43.0967C134.304 43.0967 132.783 42.5386 131.686 41.4223C130.551 40.3254 129.993 38.8049 129.993 36.8804ZM132.976 36.7841C132.976 38.0543 133.264 39.0359 133.842 39.7095C134.419 40.3832 135.247 40.7102 136.324 40.7102C137.364 40.7102 138.172 40.3832 138.711 39.7095C139.25 39.0359 139.539 38.0352 139.539 36.7072C139.539 35.3984 139.25 34.3976 138.692 33.724C138.133 33.0505 137.325 32.7233 136.305 32.7233C135.247 32.7233 134.438 33.0697 133.842 33.7818C133.264 34.4939 132.976 35.4755 132.976 36.7841Z" fill="white"/>
<path d="M152.049 32.9486V39.2228C152.049 40.5314 152.357 41.4938 152.953 42.1482C153.55 42.8025 154.474 43.1104 155.686 43.1104C156.09 43.1104 156.514 43.0719 156.937 42.9757C157.36 42.8794 157.668 42.8025 157.842 42.6871V40.3006C157.668 40.416 157.457 40.5123 157.226 40.5892C156.995 40.6661 156.783 40.7048 156.629 40.7048C156.052 40.7048 155.609 40.5507 155.34 40.2428C155.07 39.9349 154.936 39.396 154.936 38.6454V32.9295H157.861V30.5815H154.955V26.9633L152.068 27.8486V30.6006H147.776V29.1188C147.776 28.3874 147.93 27.8293 148.257 27.4444C148.584 27.0596 149.046 26.8862 149.643 26.8862C149.951 26.8862 150.22 26.9248 150.471 27.0018C150.701 27.0787 150.875 27.1556 150.971 27.2134V24.7307C150.759 24.6538 150.528 24.6153 150.259 24.5768C149.989 24.5384 149.681 24.519 149.335 24.519C148.026 24.519 146.949 24.9232 146.121 25.7507C145.293 26.5783 144.87 27.6176 144.87 28.9071V30.6006H142.83V32.9486H144.87V42.8218H147.776V32.9486H152.049Z" fill="white"/>
<path d="M80.0117 25.7573V42.809H77.0478V29.4524H77.0094L71.7168 42.809H69.7537L64.3264 29.4524H64.2879V42.809H61.5551V25.7573H65.7891L70.6968 38.4018H70.7737L75.9508 25.7573H80.0117Z" fill="white"/>
</svg>
