<svg width="33" height="38" viewBox="0 0 33 38" fill="none" xmlns="http://www.w3.org/2000/svg">
<path d="M30.3309 38H2.66912C1.195 38 0 36.7848 0 35.2857V2.71429C0 1.21523 1.195 0 2.66912 0H20.625L33 12.5844V35.2857C33 36.7848 31.805 38 30.3309 38Z" fill="url(#paint0_linear_1_1921)"/>
<g opacity="0.1">
<path fill-rule="evenodd" clip-rule="evenodd" d="M24.1432 17.1495H8.85645V15.6689H24.1432V17.1495Z" fill="white"/>
<path fill-rule="evenodd" clip-rule="evenodd" d="M24.1432 20.8506H8.85645V19.3701H24.1432V20.8506Z" fill="white"/>
<path fill-rule="evenodd" clip-rule="evenodd" d="M24.1432 24.5518H8.85645V23.0713H24.1432V24.5518Z" fill="white"/>
<path fill-rule="evenodd" clip-rule="evenodd" d="M24.1432 28.253H8.85645V26.7725H24.1432V28.253Z" fill="white"/>
<path fill-rule="evenodd" clip-rule="evenodd" d="M24.1432 31.9542H8.85645V30.4736H24.1432V31.9542Z" fill="white"/>
</g>
<path d="M7.54849 26.8217C7.42709 26.8217 7.32485 26.7795 7.24179 26.695C7.15872 26.6105 7.11719 26.5065 7.11719 26.3831V20.4181C7.11719 20.2946 7.15872 20.1907 7.24179 20.1062C7.32485 20.0152 7.42709 19.9697 7.54849 19.9697H9.73377C10.3408 19.9697 10.836 20.0737 11.2194 20.2816C11.6028 20.4896 11.8775 20.756 12.0436 21.0809C12.2098 21.4057 12.2928 21.7566 12.2928 22.1335C12.2928 22.5104 12.2098 22.8613 12.0436 23.1862C11.8775 23.511 11.6028 23.7775 11.2194 23.9854C10.836 24.1933 10.3408 24.2973 9.73377 24.2973H7.98938V26.3831C7.98938 26.5065 7.94465 26.6105 7.8552 26.695C7.77213 26.7795 7.6699 26.8217 7.54849 26.8217ZM9.64751 23.4591C10.2993 23.4591 10.7561 23.3324 11.0181 23.0789C11.2865 22.8255 11.4207 22.5104 11.4207 22.1335C11.4207 21.7566 11.2865 21.4415 11.0181 21.1881C10.7561 20.9347 10.2993 20.8079 9.64751 20.8079H7.98938V23.4591H9.64751Z" fill="white"/>
<path d="M14.659 26.773C14.5376 26.773 14.4354 26.7307 14.3523 26.6463C14.2693 26.5618 14.2277 26.4578 14.2277 26.3344V20.4181C14.2277 20.2946 14.2693 20.1907 14.3523 20.1062C14.4354 20.0152 14.5376 19.9697 14.659 19.9697H16.5855C17.314 19.9697 17.9306 20.1354 18.4353 20.4668C18.9465 20.7917 19.3299 21.2141 19.5855 21.7339C19.8411 22.2537 19.9689 22.7995 19.9689 23.3713C19.9689 23.9432 19.8411 24.489 19.5855 25.0088C19.3299 25.5286 18.9465 25.9542 18.4353 26.2856C17.9306 26.6105 17.314 26.773 16.5855 26.773H14.659ZM16.4801 25.9445C17.0041 25.9445 17.4641 25.8373 17.8603 25.6228C18.2564 25.4019 18.5631 25.0998 18.7804 24.7164C18.9976 24.3265 19.1063 23.8782 19.1063 23.3713C19.1063 22.8645 18.9976 22.4194 18.7804 22.036C18.5631 21.6462 18.2564 21.344 17.8603 21.1296C17.4641 20.9087 17.0041 20.7982 16.4801 20.7982H15.0999V25.9445H16.4801Z" fill="white"/>
<path d="M22.5277 26.8217C22.4063 26.8217 22.3041 26.7795 22.221 26.695C22.138 26.6105 22.0964 26.5065 22.0964 26.3831V20.4181C22.0964 20.2946 22.138 20.1907 22.221 20.1062C22.3041 20.0152 22.4063 19.9697 22.5277 19.9697H26.2561C26.3711 19.9697 26.467 20.012 26.5437 20.0964C26.6267 20.1744 26.6683 20.2719 26.6683 20.3888C26.6683 20.5058 26.6267 20.6033 26.5437 20.6812C26.467 20.7592 26.3711 20.7982 26.2561 20.7982H22.9686V22.9522H25.9207C26.0357 22.9522 26.1315 22.9945 26.2082 23.0789C26.2913 23.1569 26.3328 23.2544 26.3328 23.3713C26.3328 23.4883 26.2913 23.5858 26.2082 23.6637C26.1315 23.7417 26.0357 23.7807 25.9207 23.7807H22.9686V26.3831C22.9686 26.5065 22.9239 26.6105 22.8344 26.695C22.7514 26.7795 22.6491 26.8217 22.5277 26.8217Z" fill="white"/>
<path fill-rule="evenodd" clip-rule="evenodd" d="M10.8514 22.8988L10.8525 22.8978C11.0707 22.6917 11.1775 22.4424 11.1775 22.1332C11.1775 21.824 11.0707 21.5747 10.8525 21.3686L10.8514 21.3676L10.8503 21.3665C10.6581 21.1806 10.2818 21.0544 9.64699 21.0544H8.23151V23.212H9.64699C10.2818 23.212 10.6581 23.0858 10.8503 22.8998L10.8514 22.8988ZM7.98887 23.4587V20.8076H9.64699C10.2987 20.8076 10.7556 20.9343 11.0176 21.1878C11.286 21.4412 11.4201 21.7563 11.4201 22.1332C11.4201 22.5101 11.286 22.8252 11.0176 23.0786C10.7556 23.332 10.2987 23.4587 9.64699 23.4587H7.98887ZM18.5653 26.4934L18.5646 26.4938C18.0132 26.8487 17.3493 27.0194 16.585 27.0194H14.6585C14.4752 27.0194 14.3105 26.9529 14.1802 26.8204C14.05 26.688 13.9846 26.5205 13.9846 26.334V20.4178C13.9846 20.2328 14.0489 20.0666 14.1771 19.9346C14.3053 19.7959 14.4707 19.7227 14.6585 19.7227H16.585C17.3494 19.7227 18.0136 19.8967 18.5649 20.2582C19.1111 20.6057 19.5256 21.061 19.802 21.6232C20.0742 22.1767 20.211 22.7603 20.211 23.371C20.211 23.9818 20.0742 24.5653 19.802 25.1188C19.5256 25.6811 19.1111 26.1395 18.5653 26.4934ZM18.4348 20.4665C17.93 20.1351 17.3134 19.9694 16.585 19.9694H14.6585C14.5371 19.9694 14.4349 20.0149 14.3518 20.1059C14.2687 20.1903 14.2272 20.2943 14.2272 20.4178V26.334C14.2272 26.4575 14.2687 26.5615 14.3518 26.6459C14.4349 26.7304 14.5371 26.7726 14.6585 26.7726H16.585C17.3134 26.7726 17.93 26.6102 18.4348 26.2853C18.946 25.9539 19.3294 25.5283 19.585 25.0085C19.8406 24.4887 19.9684 23.9428 19.9684 23.371C19.9684 22.7992 19.8406 22.2534 19.585 21.7336C19.3294 21.2137 18.946 20.7914 18.4348 20.4665ZM18.5692 22.1582L18.5688 22.1574C18.3747 21.8091 18.102 21.5399 17.7458 21.3471L17.7444 21.3464L17.7431 21.3456C17.388 21.1476 16.9693 21.0446 16.4796 21.0446H15.3421V25.6974H16.4796C16.9698 25.6974 17.3891 25.5974 17.7444 25.4054C18.1022 25.2056 18.3753 24.9355 18.5692 24.5937C18.7629 24.2457 18.8631 23.8406 18.8631 23.371C18.8631 22.9011 18.7627 22.4997 18.5696 22.1589L18.5692 22.1582ZM18.7799 24.7161C18.5626 25.0995 18.2559 25.4016 17.8598 25.6225C17.4636 25.837 17.0035 25.9442 16.4796 25.9442H15.0994V20.7979H16.4796C17.0035 20.7979 17.4636 20.9083 17.8598 21.1293C18.2559 21.3437 18.5626 21.6459 18.7799 22.0357C18.9971 22.4191 19.1058 22.8642 19.1058 23.371C19.1058 23.8779 18.9971 24.3262 18.7799 24.7161ZM7.54798 27.0681C7.36462 27.0681 7.19994 27.0016 7.06969 26.8692C6.93945 26.7367 6.87402 26.5692 6.87402 26.3828V20.4178C6.87402 20.2328 6.93838 20.0666 7.06652 19.9346C7.19478 19.7959 7.36017 19.7227 7.54798 19.7227H9.73325C10.3652 19.7227 10.9034 19.8305 11.333 20.0636C11.7506 20.29 12.0653 20.5891 12.2584 20.9667C12.4431 21.3278 12.535 21.7179 12.535 22.1332C12.535 22.5485 12.4431 22.9386 12.2584 23.2997C12.0653 23.6772 11.7506 23.9763 11.333 24.2028C10.9034 24.4358 10.3652 24.5437 9.73325 24.5437H8.23151V26.3828C8.23151 26.5738 8.15953 26.7419 8.02307 26.8724C7.89333 27.0027 7.72983 27.0681 7.54798 27.0681ZM7.85468 26.6947C7.77162 26.7791 7.66938 26.8214 7.54798 26.8214C7.42657 26.8214 7.32434 26.7791 7.24127 26.6947C7.1582 26.6102 7.11667 26.5062 7.11667 26.3828V20.4178C7.11667 20.2943 7.1582 20.1903 7.24127 20.1059C7.32434 20.0149 7.42657 19.9694 7.54798 19.9694H9.73325C10.3403 19.9694 10.8355 20.0734 11.2189 20.2813C11.6022 20.4892 11.877 20.7556 12.0431 21.0805C12.2093 21.4054 12.2923 21.7563 12.2923 22.1332C12.2923 22.5101 12.2093 22.8609 12.0431 23.1858C11.877 23.5107 11.6022 23.7771 11.2189 23.9851C10.8355 24.193 10.3403 24.297 9.73325 24.297H7.98887V26.3828C7.98887 26.5062 7.94414 26.6102 7.85468 26.6947ZM22.5272 27.0681C22.3439 27.0681 22.1792 27.0016 22.0489 26.8692C21.9187 26.7367 21.8533 26.5692 21.8533 26.3828V20.4178C21.8533 20.2328 21.9176 20.0666 22.0458 19.9346C22.174 19.7959 22.3394 19.7227 22.5272 19.7227H26.2556C26.4338 19.7227 26.5922 19.7902 26.7148 19.9215C26.844 20.0462 26.9104 20.2073 26.9104 20.3885C26.9104 20.5713 26.8427 20.7337 26.7113 20.8589C26.5866 20.9838 26.429 21.0446 26.2556 21.0446H23.2107V22.7052H25.9201C26.0983 22.7052 26.2567 22.7727 26.3794 22.9041C26.5085 23.0288 26.5749 23.1898 26.5749 23.371C26.5749 23.5539 26.5073 23.7163 26.3758 23.8414C26.2512 23.9663 26.0936 24.0271 25.9201 24.0271H23.2107V26.3828C23.2107 26.5738 23.1388 26.7419 23.0023 26.8724C22.8726 27.0027 22.7091 27.0681 22.5272 27.0681ZM22.8339 26.6947C22.9234 26.6102 22.9681 26.5062 22.9681 26.3828V23.7804H25.9201C26.0352 23.7804 26.131 23.7414 26.2077 23.6634C26.2907 23.5855 26.3323 23.488 26.3323 23.371C26.3323 23.2541 26.2907 23.1566 26.2077 23.0786C26.131 22.9942 26.0352 22.9519 25.9201 22.9519H22.9681V20.7979H26.2556C26.3706 20.7979 26.4665 20.7589 26.5431 20.6809C26.6262 20.6029 26.6677 20.5055 26.6677 20.3885C26.6677 20.2716 26.6262 20.1741 26.5431 20.0961C26.4665 20.0116 26.3706 19.9694 26.2556 19.9694H22.5272C22.4058 19.9694 22.3036 20.0149 22.2205 20.1059C22.1374 20.1903 22.0959 20.2943 22.0959 20.4178V26.3828C22.0959 26.5062 22.1374 26.6102 22.2205 26.6947C22.3036 26.7791 22.4058 26.8214 22.5272 26.8214C22.6486 26.8214 22.7509 26.7791 22.8339 26.6947Z" fill="white"/>
<path d="M33 12.5844C26.1655 12.5844 20.625 7.04394 20.625 0.209415V0L33 12.5844Z" fill="url(#paint1_linear_1_1921)"/>
<defs>
<linearGradient id="paint0_linear_1_1921" x1="16.5" y1="0" x2="16.5" y2="38" gradientUnits="userSpaceOnUse">
<stop stop-color="#FF7981"/>
<stop offset="1" stop-color="#E85567"/>
</linearGradient>
<linearGradient id="paint1_linear_1_1921" x1="26.8125" y1="0" x2="26.8125" y2="12.5844" gradientUnits="userSpaceOnUse">
<stop stop-color="#D03954"/>
<stop offset="1" stop-color="#C02A3C"/>
</linearGradient>
</defs>
</svg>
