<svg width="33" height="38" viewBox="0 0 33 38" fill="none" xmlns="http://www.w3.org/2000/svg">
<mask id="mask0_1_1941" style="mask-type:alpha" maskUnits="userSpaceOnUse" x="0" y="0" width="33" height="38">
<path d="M30.3309 38H2.66912C1.19501 38 0 36.7848 0 35.2857V2.71429C0 1.21523 1.195 0 2.66912 0H20.625L33 12.5844V35.2857C33 36.7848 31.805 38 30.3309 38Z" fill="url(#paint0_linear_1_1941)"/>
</mask>
<g mask="url(#mask0_1_1941)">
<path d="M30.3309 38H2.66912C1.19501 38 0 36.7848 0 35.2857V2.71429C0 1.21523 1.195 0 2.66912 0H20.625L33 12.5844V35.2857C33 36.7848 31.805 38 30.3309 38Z" fill="url(#paint1_linear_1_1941)"/>
<g opacity="0.27" filter="url(#filter0_f_1_1941)">
<rect x="5.82324" y="18.3828" width="21.5956" height="10.3636" fill="#0072A2" style="mix-blend-mode:darken"/>
</g>
<path d="M25.2081 26.8702C24.5691 26.8702 23.9941 26.7305 23.4829 26.4511C22.9781 26.1652 22.5787 25.7591 22.2848 25.2328C21.9973 24.7 21.8535 24.0794 21.8535 23.3712C21.8535 22.6629 21.9973 22.0456 22.2848 21.5193C22.5787 20.9864 22.9781 20.5803 23.4829 20.3009C23.9941 20.015 24.5691 19.8721 25.2081 19.8721C25.6426 19.8721 26.0292 19.9241 26.3678 20.028C26.7129 20.132 27.0547 20.2814 27.3934 20.4764C27.534 20.5543 27.6043 20.6778 27.6043 20.8467C27.6043 20.9442 27.5691 21.0319 27.4988 21.1099C27.4285 21.1814 27.3359 21.2171 27.2209 21.2171C27.157 21.2171 27.0995 21.2041 27.0483 21.1781C26.7672 21.0287 26.4924 20.915 26.2241 20.837C25.9557 20.759 25.6458 20.72 25.2944 20.72C24.7449 20.72 24.2752 20.837 23.8854 21.0709C23.5021 21.2983 23.2113 21.6135 23.0132 22.0164C22.8216 22.4127 22.7257 22.8643 22.7257 23.3712C22.7257 23.878 22.8216 24.3328 23.0132 24.7357C23.2113 25.1321 23.5021 25.4472 23.8854 25.6811C24.2752 25.9086 24.7449 26.0223 25.2944 26.0223C25.6458 26.0223 25.9557 25.9833 26.2241 25.9053C26.4924 25.8273 26.7672 25.7136 27.0483 25.5642C27.0995 25.5382 27.157 25.5252 27.2209 25.5252C27.3359 25.5252 27.4285 25.5609 27.4988 25.6324C27.5691 25.7039 27.6043 25.7916 27.6043 25.8956C27.6043 26.0645 27.534 26.188 27.3934 26.2659C27.0547 26.4609 26.7129 26.6103 26.3678 26.7143C26.0292 26.8183 25.6426 26.8702 25.2081 26.8702Z" fill="white"/>
<path d="M16.7685 26.8702C16.0976 26.8702 15.5097 26.7208 15.0049 26.4219C14.5001 26.123 14.1104 25.7104 13.8356 25.1841C13.5608 24.6577 13.4171 24.0534 13.4043 23.3712C13.4171 22.6889 13.5608 22.0846 13.8356 21.5583C14.1104 21.0319 14.5001 20.6193 15.0049 20.3204C15.5097 20.0215 16.0976 19.8721 16.7685 19.8721C17.4394 19.8721 18.0241 20.0215 18.5225 20.3204C19.0272 20.6193 19.417 21.0352 19.6918 21.568C19.9729 22.0943 20.1199 22.6954 20.1327 23.3712C20.1199 24.0469 19.9729 24.6512 19.6918 25.1841C19.417 25.7104 19.0272 26.123 18.5225 26.4219C18.0241 26.7208 17.4394 26.8702 16.7685 26.8702ZM16.7685 26.0418C17.2797 26.0418 17.7237 25.9248 18.1007 25.6909C18.4777 25.457 18.7653 25.1386 18.9633 24.7357C19.1614 24.3328 19.2605 23.878 19.2605 23.3712C19.2605 22.8643 19.1614 22.4095 18.9633 22.0066C18.7653 21.6037 18.4777 21.2853 18.1007 21.0514C17.7237 20.8175 17.2797 20.7005 16.7685 20.7005C16.2509 20.7005 15.8036 20.8175 15.4266 21.0514C15.056 21.2853 14.7717 21.6037 14.5736 22.0066C14.3755 22.4095 14.2765 22.8643 14.2765 23.3712C14.2765 23.878 14.3755 24.3328 14.5736 24.7357C14.7717 25.1386 15.056 25.457 15.4266 25.6909C15.8036 25.9248 16.2509 26.0418 16.7685 26.0418Z" fill="white"/>
<path d="M6.36978 26.773C6.24838 26.773 6.14614 26.7307 6.06308 26.6463C5.98001 26.5618 5.93848 26.4578 5.93848 26.3344V20.4181C5.93848 20.2946 5.98001 20.1907 6.06308 20.1062C6.14614 20.0152 6.24838 19.9697 6.36978 19.9697H8.29628C9.0247 19.9697 9.64131 20.1354 10.1461 20.4668C10.6573 20.7917 11.0407 21.2141 11.2962 21.7339C11.5518 22.2537 11.6796 22.7995 11.6796 23.3713C11.6796 23.9432 11.5518 24.489 11.2962 25.0088C11.0407 25.5286 10.6573 25.9542 10.1461 26.2856C9.64131 26.6105 9.0247 26.773 8.29628 26.773H6.36978ZM8.19085 25.9445C8.7148 25.9445 9.17486 25.8373 9.57102 25.6228C9.96719 25.4019 10.2739 25.0998 10.4911 24.7164C10.7084 24.3265 10.817 23.8782 10.817 23.3713C10.817 22.8645 10.7084 22.4194 10.4911 22.036C10.2739 21.6462 9.96719 21.344 9.57102 21.1296C9.17486 20.9087 8.7148 20.7982 8.19085 20.7982H6.81067V25.9445H8.19085Z" fill="white"/>
<path fill-rule="evenodd" clip-rule="evenodd" d="M23.3669 26.6673L23.3653 26.6664C22.8205 26.3578 22.3895 25.9187 22.0743 25.3543L22.0734 25.3528L22.0726 25.3512C21.7624 24.7764 21.6113 24.1137 21.6113 23.3708C21.6113 22.6281 21.7623 21.9681 22.0732 21.3991L22.0737 21.3982C22.3888 20.827 22.8203 20.3868 23.3669 20.0841C23.9171 19.7765 24.5329 19.625 25.2086 19.625C25.6614 19.625 26.0721 19.6791 26.4378 19.7913C26.8011 19.9008 27.1592 20.0576 27.5119 20.2604C27.6148 20.3179 27.7019 20.3979 27.762 20.5035C27.8222 20.6092 27.8474 20.7266 27.8474 20.8464C27.8474 21.0111 27.7857 21.1571 27.6781 21.2763L27.6746 21.2803L27.6709 21.2841C27.5479 21.4091 27.3898 21.4636 27.2213 21.4636C27.1243 21.4636 27.0289 21.4436 26.9403 21.3985L26.9383 21.3975L26.9364 21.3965C26.6679 21.2538 26.4084 21.1467 26.1579 21.0739C25.9159 21.0036 25.6293 20.9665 25.2948 20.9665C24.7794 20.9665 24.3544 21.076 24.0092 21.2831L24.0082 21.2837C23.6656 21.4869 23.408 21.7662 23.2311 22.1257C23.0583 22.4833 22.9688 22.8965 22.9688 23.3708C22.9688 23.8445 23.058 24.2611 23.2311 24.6257C23.4077 24.9781 23.6652 25.2579 24.0087 25.468C24.354 25.6689 24.7793 25.7752 25.2948 25.7752C25.6293 25.7752 25.9159 25.738 26.1579 25.6677C26.4084 25.5949 26.6679 25.4879 26.9364 25.3452L26.9383 25.3441L26.9403 25.3432C27.0289 25.2981 27.1243 25.2781 27.2213 25.2781C27.3898 25.2781 27.5479 25.3325 27.6709 25.4576C27.7881 25.5768 27.8474 25.7279 27.8474 25.8952C27.8474 26.0151 27.8222 26.1325 27.762 26.2382C27.7019 26.3437 27.6148 26.4238 27.5119 26.4812C27.1592 26.6841 26.8012 26.8408 26.4379 26.9504C26.0721 27.0626 25.6614 27.1167 25.2086 27.1167C24.5336 27.1167 23.9184 26.9688 23.3685 26.6682L23.3669 26.6673ZM26.3683 26.714C26.7133 26.61 27.0552 26.4606 27.3939 26.2656C27.5344 26.1876 27.6047 26.0642 27.6047 25.8952C27.6047 25.7913 27.5696 25.7036 27.4993 25.6321C27.429 25.5606 27.3363 25.5249 27.2213 25.5249C27.1574 25.5249 27.0999 25.5379 27.0488 25.5639C26.7677 25.7133 26.4929 25.827 26.2245 25.905C25.9562 25.983 25.6463 26.022 25.2948 26.022C24.7453 26.022 24.2757 25.9082 23.8859 25.6808C23.5025 25.4469 23.2118 25.1318 23.0137 24.7354C22.822 24.3325 22.7262 23.8777 22.7262 23.3708C22.7262 22.864 22.822 22.4124 23.0137 22.016C23.2118 21.6132 23.5025 21.298 23.8859 21.0706C24.2757 20.8367 24.7453 20.7197 25.2948 20.7197C25.6463 20.7197 25.9562 20.7587 26.2245 20.8367C26.4929 20.9147 26.7677 21.0284 27.0488 21.1778C27.0999 21.2038 27.1574 21.2168 27.2213 21.2168C27.3363 21.2168 27.429 21.1811 27.4993 21.1096C27.5696 21.0316 27.6047 20.9439 27.6047 20.8464C27.6047 20.6775 27.5344 20.554 27.3939 20.4761C27.0552 20.2811 26.7133 20.1317 26.3683 20.0277C26.0296 19.9237 25.6431 19.8718 25.2086 19.8718C24.5696 19.8718 23.9945 20.0147 23.4833 20.3006C22.9786 20.58 22.5792 20.9861 22.2853 21.519C21.9977 22.0453 21.854 22.6626 21.854 23.3708C21.854 24.0791 21.9977 24.6996 22.2853 25.2325C22.5792 25.7588 22.9786 26.1649 23.4833 26.4508C23.9945 26.7302 24.5696 26.8699 25.2086 26.8699C25.6431 26.8699 26.0296 26.8179 26.3683 26.714Z" fill="white"/>
<path fill-rule="evenodd" clip-rule="evenodd" d="M13.1621 23.3708L13.1622 23.3661C13.1756 22.6508 13.3267 22.0075 13.6218 21.4422C13.9177 20.8754 14.3393 20.429 14.8833 20.1069C15.4304 19.7829 16.0616 19.625 16.769 19.625C17.476 19.625 18.1044 19.7828 18.6456 20.1072C19.1896 20.4295 19.6108 20.8791 19.9063 21.4515C20.2078 22.0164 20.3623 22.6566 20.3758 23.3661L20.3759 23.3708L20.3758 23.3756C20.3623 24.0856 20.2076 24.7288 19.9064 25.2998C19.6106 25.8663 19.1892 26.3125 18.6456 26.6345C18.1044 26.9589 17.476 27.1167 16.769 27.1167C16.0616 27.1167 15.4304 26.9588 14.8833 26.6348C14.3393 26.3127 13.9177 25.8662 13.6218 25.2994C13.3267 24.7342 13.1756 24.0909 13.1622 23.3755L13.1621 23.3708ZM18.523 26.4216C19.0277 26.1227 19.4175 25.7101 19.6923 25.1837C19.9734 24.6509 20.1204 24.0466 20.1332 23.3708C20.1204 22.6951 19.9734 22.094 19.6923 21.5677C19.4175 21.0349 19.0277 20.619 18.523 20.3201C18.0246 20.0212 17.4399 19.8718 16.769 19.8718C16.0981 19.8718 15.5102 20.0212 15.0054 20.3201C14.5006 20.619 14.1109 21.0316 13.8361 21.5579C13.5613 22.0843 13.4176 22.6886 13.4048 23.3708C13.4176 24.0531 13.5613 24.6574 13.8361 25.1837C14.1109 25.7101 14.5006 26.1227 15.0054 26.4216C15.5102 26.7205 16.0981 26.8699 16.769 26.8699C17.4399 26.8699 18.0246 26.7205 18.523 26.4216ZM16.769 25.7947C17.2427 25.7947 17.6416 25.6867 17.9748 25.4799C18.3129 25.2702 18.569 24.9866 18.7468 24.625C18.926 24.2605 19.0183 23.8442 19.0183 23.3708C19.0183 22.8975 18.926 22.4812 18.7468 22.1166C18.569 21.7551 18.3129 21.4715 17.9748 21.2617C17.6416 21.055 17.2427 20.947 16.769 20.947C16.2886 20.947 15.8869 21.0551 15.5543 21.2613C15.2229 21.4707 14.9693 21.7543 14.7911 22.1166C14.6119 22.4812 14.5196 22.8975 14.5196 23.3708C14.5196 23.8442 14.6119 24.2605 14.7911 24.625C14.9693 24.9874 15.2229 25.271 15.5543 25.4804C15.8869 25.6866 16.2886 25.7947 16.769 25.7947ZM15.4271 21.0511C15.8041 20.8172 16.2514 20.7002 16.769 20.7002C17.2802 20.7002 17.7242 20.8172 18.1012 21.0511C18.4782 21.285 18.7658 21.6034 18.9638 22.0063C19.1619 22.4092 19.261 22.864 19.261 23.3708C19.261 23.8777 19.1619 24.3325 18.9638 24.7354C18.7658 25.1382 18.4782 25.4566 18.1012 25.6906C17.7242 25.9245 17.2802 26.0414 16.769 26.0414C16.2514 26.0414 15.8041 25.9245 15.4271 25.6906C15.0565 25.4566 14.7722 25.1382 14.5741 24.7354C14.376 24.3325 14.277 23.8777 14.277 23.3708C14.277 22.864 14.376 22.4092 14.5741 22.0063C14.7722 21.6034 15.0565 21.285 15.4271 21.0511Z" fill="white"/>
<path fill-rule="evenodd" clip-rule="evenodd" d="M10.277 26.4934L10.2763 26.4938C9.72497 26.8487 9.06099 27.0194 8.29674 27.0194H6.37024C6.18689 27.0194 6.0222 26.9529 5.89196 26.8204C5.76171 26.688 5.69629 26.5205 5.69629 26.334V20.4178C5.69629 20.2328 5.76065 20.0666 5.88878 19.9346C6.01705 19.7959 6.18244 19.7227 6.37024 19.7227H8.29674C9.06115 19.7227 9.72531 19.8967 10.2766 20.2582C10.8228 20.6057 11.2373 21.061 11.5137 21.6232C11.7859 22.1767 11.9227 22.7603 11.9227 23.371C11.9227 23.9818 11.7859 24.5653 11.5137 25.1188C11.2373 25.6811 10.8229 26.1395 10.277 26.4934ZM6.06354 20.1059C5.98047 20.1903 5.93894 20.2943 5.93894 20.4178V26.334C5.93894 26.4575 5.98047 26.5615 6.06354 26.6459C6.1466 26.7304 6.24884 26.7726 6.37024 26.7726H8.29674C9.02516 26.7726 9.64177 26.6102 10.1466 26.2853C10.6577 25.9539 11.0411 25.5283 11.2967 25.0085C11.5523 24.4887 11.6801 23.9428 11.6801 23.371C11.6801 22.7992 11.5523 22.2534 11.2967 21.7336C11.0411 21.2137 10.6577 20.7914 10.1466 20.4665C9.64177 20.1351 9.02516 19.9694 8.29674 19.9694H6.37024C6.24884 19.9694 6.1466 20.0149 6.06354 20.1059ZM10.2809 22.1582L10.2805 22.1574C10.0864 21.8091 9.81374 21.5399 9.45748 21.3471L9.45614 21.3464L9.45481 21.3456C9.09975 21.1476 8.68104 21.0446 8.19131 21.0446H7.05378V25.6974H8.19131C8.68157 25.6974 9.10082 25.5974 9.45614 25.4054C9.81395 25.2056 10.087 24.9355 10.2809 24.5937C10.4746 24.2457 10.5748 23.8406 10.5748 23.371C10.5748 22.9011 10.4745 22.4997 10.2814 22.1589L10.2809 22.1582ZM10.4916 24.7161C10.2744 25.0995 9.96765 25.4016 9.57148 25.6225C9.17532 25.837 8.71526 25.9442 8.19131 25.9442H6.81113V20.7979H8.19131C8.71526 20.7979 9.17532 20.9083 9.57148 21.1293C9.96765 21.3437 10.2744 21.6459 10.4916 22.0357C10.7089 22.4191 10.8175 22.8642 10.8175 23.371C10.8175 23.8779 10.7089 24.3262 10.4916 24.7161Z" fill="white"/>
<mask id="mask1_1_1941" style="mask-type:alpha" maskUnits="userSpaceOnUse" x="0" y="0" width="33" height="38">
<path d="M30.3309 38H2.66912C1.19501 38 0 36.7848 0 35.2857V2.71429C0 1.21523 1.195 0 2.66912 0H20.625L33 12.5844V35.2857C33 36.7848 31.805 38 30.3309 38Z" fill="url(#paint2_linear_1_1941)"/>
</mask>
<g mask="url(#mask1_1_1941)">
<ellipse opacity="0.05" cx="-1.75919" cy="-1.54255" rx="27.1158" ry="26.4643" fill="url(#paint3_linear_1_1941)"/>
<ellipse opacity="0.07" cx="-1.75873" cy="-1.54256" rx="17.046" ry="16.5942" fill="url(#paint4_linear_1_1941)"/>
</g>
<g filter="url(#filter1_d_1_1941)">
<path d="M33 12.5844C26.1655 12.5844 20.625 7.04394 20.625 0.209414V0L33 12.5844Z" fill="url(#paint5_linear_1_1941)"/>
</g>
<g opacity="0.11">
<path fill-rule="evenodd" clip-rule="evenodd" d="M24.1432 16.9024H8.85645V15.4219H24.1432V16.9024ZM24.1432 20.6037H8.85645V19.1232H24.1432V20.6037ZM24.1432 24.305H8.85645V22.8245H24.1432V24.305ZM24.1432 28.0063H8.85645V26.5258H24.1432V28.0063ZM24.1432 31.7076H8.85645V30.2271H24.1432V31.7076Z" fill="white"/>
</g>
</g>
<defs>
<filter id="filter0_f_1_1941" x="-33.1768" y="-20.6172" width="99.5957" height="88.3633" filterUnits="userSpaceOnUse" color-interpolation-filters="sRGB">
<feFlood flood-opacity="0" result="BackgroundImageFix"/>
<feBlend mode="normal" in="SourceGraphic" in2="BackgroundImageFix" result="shape"/>
<feGaussianBlur stdDeviation="19.5" result="effect1_foregroundBlur_1_1941"/>
</filter>
<filter id="filter1_d_1_1941" x="-2.375" y="-24" width="62.375" height="62.584" filterUnits="userSpaceOnUse" color-interpolation-filters="sRGB">
<feFlood flood-opacity="0" result="BackgroundImageFix"/>
<feColorMatrix in="SourceAlpha" type="matrix" values="0 0 0 0 0 0 0 0 0 0 0 0 0 0 0 0 0 0 127 0" result="hardAlpha"/>
<feOffset dx="2" dy="1"/>
<feGaussianBlur stdDeviation="12.5"/>
<feColorMatrix type="matrix" values="0 0 0 0 0 0 0 0 0 0 0 0 0 0 0 0 0 0 0.33 0"/>
<feBlend mode="normal" in2="BackgroundImageFix" result="effect1_dropShadow_1_1941"/>
<feBlend mode="normal" in="SourceGraphic" in2="effect1_dropShadow_1_1941" result="shape"/>
</filter>
<linearGradient id="paint0_linear_1_1941" x1="16.5" y1="0" x2="16.5" y2="38" gradientUnits="userSpaceOnUse">
<stop stop-color="#FF7979"/>
<stop offset="1" stop-color="#E85555"/>
</linearGradient>
<linearGradient id="paint1_linear_1_1941" x1="16.5" y1="0" x2="16.5" y2="38" gradientUnits="userSpaceOnUse">
<stop stop-color="#6ABDF8"/>
<stop offset="1" stop-color="#008BD6"/>
</linearGradient>
<linearGradient id="paint2_linear_1_1941" x1="16.5" y1="0" x2="16.5" y2="38" gradientUnits="userSpaceOnUse">
<stop stop-color="#6ABDF8"/>
<stop offset="1" stop-color="#008BD6"/>
</linearGradient>
<linearGradient id="paint3_linear_1_1941" x1="0.209612" y1="-0.633124" x2="8.67756" y2="21.4669" gradientUnits="userSpaceOnUse">
<stop stop-color="white" stop-opacity="0"/>
<stop offset="1" stop-color="white"/>
</linearGradient>
<linearGradient id="paint4_linear_1_1941" x1="-0.521072" y1="-0.972319" x2="4.77863" y2="12.8943" gradientUnits="userSpaceOnUse">
<stop stop-color="white" stop-opacity="0"/>
<stop offset="1" stop-color="white"/>
</linearGradient>
<linearGradient id="paint5_linear_1_1941" x1="26.8125" y1="0" x2="26.8125" y2="12.5844" gradientUnits="userSpaceOnUse">
<stop stop-color="#009FE3"/>
<stop offset="1" stop-color="#0087C1"/>
</linearGradient>
</defs>
</svg>
